<?xml version="1.0" encoding="UTF-8"?>
<svg width="172px" height="87px" viewBox="0 0 172 87" version="1.1" xmlns="http://www.w3.org/2000/svg" xmlns:xlink="http://www.w3.org/1999/xlink">
    <!-- Generator: Sketch 51.2 (57519) - http://www.bohemiancoding.com/sketch -->
    <title>Page 1</title>
    <desc>Created with Sketch.</desc>
    <defs>
        <polygon id="path-1" points="0 86.5540022 171.325596 86.5540022 171.325596 0.343196683 0 0.343196683"></polygon>
    </defs>
    <g id="Page-1" stroke="none" stroke-width="1" fill="none" fill-rule="evenodd">
        <g id="1-copy-7" transform="translate(-82.000000, -86.000000)">
            <g id="1">
                <g id="Page-1" transform="translate(82.000000, 85.000000)">
                    <path d="M1.01902241,1.00654253 L1.01902241,44.3107176 L43.3529875,44.3107176 L44.3262168,44.3107176 L85.6859461,44.3107176 L86.6571625,44.3107176 L128.018905,44.3107176 L128.991128,44.3107176 L171.325093,44.3107176 L171.325093,1.00654253 L1.01902241,1.00654253 Z M128.991128,43.3395011 L170.35287,43.3395011 L170.35287,1.97876539 L128.991128,1.97876539 L128.991128,43.3395011 Z M86.6571625,43.3395011 L128.018905,43.3395011 L128.018905,1.97876539 L86.6571625,1.97876539 L86.6571625,43.3395011 Z M44.3262168,43.3395011 L85.6859461,43.3395011 L85.6859461,1.97876539 L44.3262168,1.97876539 L44.3262168,43.3395011 Z M1.99225171,43.3395011 L43.3539939,43.3395011 L43.3539939,1.97876539 L1.99225171,1.97876539 L1.99225171,43.3395011 Z" id="Fill-1" fill="#FEFEFE"></path>
                    <polygon id="Fill-2" fill="#FEFEFE" points="20.8806498 29.0916053 24.4645894 29.0916053 24.4645894 16.2262587 20.8806498 16.2262587"></polygon>
                    <polygon id="Fill-3" fill="#FEFEFE" points="62.9617967 29.0913034 66.5276203 29.0913034 66.5276203 19.3509588 70.3863184 19.3509588 70.3863184 16.2259567 59.102092 16.2259567 59.102092 19.3509588 62.9617967 19.3509588"></polygon>
                    <polygon id="Fill-4" fill="#FEFEFE" points="112.671572 26.0591959 105.530867 26.0591959 105.530867 24.0191382 112.671572 24.0191382 112.671572 21.2071396 105.530867 21.2071396 105.530867 19.2586681 112.671572 19.2586681 112.671572 16.2262587 102.001275 16.2262587 102.001275 29.0916053 112.671572 29.0916053"></polygon>
                    <path d="M149.642611,20.4535159 L151.075784,24.1109257 L148.190315,24.1109257 L149.642611,20.4535159 Z M147.143615,26.8866924 L152.104367,26.8866924 L153.042371,29.1833928 L156.864837,29.1833928 L151.387781,16.22646 L147.950782,16.22646 L142.474731,29.1833928 L146.224734,29.1833928 L147.143615,26.8866924 Z" id="Fill-5" fill="#FEFEFE"></path>
                    <polygon id="Fill-6" fill="#FEFEFE" points="0.761876508 69.9964229 2.51509827 69.9964229 2.51509827 62.0304353 0.761876508 62.0304353"></polygon>
                    <polygon id="Fill-7" fill="#FEFEFE" points="11.3119036 62.0311398 4.71165769 62.0311398 4.71165769 63.6464791 7.13617619 63.6464791 7.13617619 69.9961209 8.88839152 69.9961209 8.88839152 63.6464791 11.3119036 63.6464791"></polygon>
                    <polygon id="Fill-8" fill="#FEFEFE" points="23.7823224 63.5900177 23.7823224 62.0310392 17.7738644 62.0310392 17.7738644 69.9960203 23.8386832 69.9960203 23.8386832 68.4370418 19.5150088 68.4370418 19.5150088 66.7643354 23.2700435 66.7643354 23.2700435 65.2053569 19.5150088 65.2053569 19.5150088 63.5900177"></polygon>
                    <g id="Group-30" transform="translate(0.000000, 0.663648)">
                        <path d="M28.209157,62.9499206 L28.209157,67.7516549 L29.5638278,67.7516549 C30.2844402,67.7516549 30.8641507,67.5292312 31.3039658,67.0853904 C31.7437809,66.6415495 31.9631853,66.0638518 31.9631853,65.3502845 C31.9631853,64.6447688 31.7417681,64.0680776 31.2979272,63.6212174 C30.8550928,63.1733507 30.2763887,62.9499206 29.5638278,62.9499206 L28.209157,62.9499206 Z M32.6063016,68.1944893 C31.8142319,68.9533465 30.798732,69.3327751 29.5638278,69.3327751 L26.4569417,69.3327751 L26.4569417,61.367794 L29.5638278,61.367794 C30.8067836,61.367794 31.8232899,61.7452097 32.6123403,62.5000411 C33.4013907,63.2548725 33.795916,64.2049537 33.795916,65.3502845 C33.795916,66.4885703 33.3993779,67.4366386 32.6063016,68.1944893 Z" id="Fill-9" fill="#FEFEFE"></path>
                        <path d="M42.1676002,68.5472472 C42.7855555,67.9403627 43.0955396,67.0456359 43.0955396,65.8620602 L43.0955396,61.3672908 L41.3433243,61.3672908 L41.3433243,65.9304983 C41.3433243,66.5534858 41.192358,67.0265135 40.8924383,67.3526007 C40.5935251,67.6796943 40.1708195,67.8417314 39.625328,67.8417314 C39.0788301,67.8417314 38.6561245,67.6736556 38.3562048,67.3354912 C38.0562851,66.9983331 37.9073317,66.5112153 37.9073317,65.8741375 L37.9073317,61.3672908 L36.1541099,61.3672908 L36.1541099,65.9194274 C36.1541099,67.0718034 36.4570489,67.9494207 37.0649398,68.5532858 C37.6708179,69.1561445 38.5172355,69.4570707 39.6021798,69.4570707 C40.6941693,69.4570707 41.5496449,69.1551381 42.1676002,68.5472472" id="Fill-11" fill="#FEFEFE"></path>
                        <path d="M51.4192166,69.1389344 C51.923444,68.9185236 52.3924459,68.5773398 52.8242095,68.1143765 L51.7090719,66.9207365 C51.3598365,67.2387721 51.0297236,67.4742795 50.7197395,67.6262522 C50.4087489,67.7772185 50.0403912,67.8537081 49.6156727,67.8537081 C48.9484018,67.8537081 48.3958652,67.6101492 47.9600758,67.1250442 C47.5242865,66.6399392 47.3058886,66.0481513 47.3058886,65.3496807 C47.3058886,64.6441649 47.5242865,64.0513706 47.9600758,63.569285 C48.3958652,63.0871993 48.9484018,62.8466597 49.6156727,62.8466597 C50.0403912,62.8466597 50.4027103,62.9171106 50.70263,63.0580125 C51.0025497,63.1979079 51.3225982,63.4233509 51.663782,63.7343414 L52.7104815,62.5286241 C52.2857631,62.1119571 51.8378964,61.7909022 51.3678881,61.5674721 C50.8968733,61.3430355 50.3171627,61.2323269 49.62775,61.2323269 C48.4210262,61.2323269 47.4266616,61.6298715 46.6466692,62.425967 C45.8646638,63.2220625 45.4741644,64.1973047 45.4741644,65.3496807 C45.4741644,66.5111146 45.8626509,67.4873632 46.6406305,68.279433 C47.4176037,69.0735157 48.390833,69.4690473 49.5583056,69.4690473 C50.295021,69.4690473 50.9149892,69.3593451 51.4192166,69.1389344" id="Fill-13" fill="#FEFEFE"></path>
                        <path d="M57.5974614,65.998735 L58.6562383,63.4162052 L59.7140087,65.998735 L57.5974614,65.998735 Z M61.067673,69.333077 L62.9004037,69.333077 L59.4865528,61.3117352 L57.8702072,61.3117352 L54.4573627,69.333077 L56.2437971,69.333077 L56.972461,67.5456362 L60.3400155,67.5456362 L61.067673,69.333077 Z" id="Fill-15" fill="#FEFEFE"></path>
                        <polygon id="Fill-17" fill="#FEFEFE" points="63.52007 62.9833345 65.943582 62.9833345 65.943582 69.3329764 67.6947909 69.3329764 67.6947909 62.9833345 70.1193094 62.9833345 70.1193094 61.3679953 63.52007 61.3679953"></polygon>
                        <mask id="mask-2" fill="white">
                            <use xlink:href="#path-1"></use>
                        </mask>
                        <g id="Clip-20"></g>
                        <polygon id="Fill-19" fill="#FEFEFE" mask="url(#mask-2)" points="72.3178817 69.3327751 74.070097 69.3327751 74.070097 61.367794 72.3178817 61.367794"></polygon>
                        <path d="M82.5805696,67.1309822 C82.1337094,67.6130678 81.5600376,67.8536074 80.8625733,67.8536074 C80.1651091,67.8536074 79.5884179,67.6110549 79.1335062,67.1249435 C78.6785944,66.6398385 78.4501321,66.0480507 78.4501321,65.34958 C78.4501321,64.6440643 78.6745687,64.05127 79.1214289,63.5691843 C79.5692955,63.0870987 80.1419609,62.8465591 80.8404316,62.8465591 C81.5378958,62.8465591 82.114587,63.0891116 82.5694988,63.575223 C83.0244105,64.060328 83.2518664,64.6521158 83.2518664,65.34958 C83.2518664,66.0561022 83.0284363,66.6488965 82.5805696,67.1309822 M80.8625733,61.2322263 C79.6488044,61.2322263 78.6383368,61.6317837 77.8301639,62.431905 C77.0229975,63.2320263 76.6184079,64.2052556 76.6184079,65.34958 C76.6184079,66.5029624 77.0189718,67.4782046 77.8200995,68.2743002 C78.6192144,69.0714021 79.6256563,69.4689467 80.8404316,69.4689467 C82.0542005,69.4689467 83.0636617,69.0693892 83.8718346,68.2692679 C84.6800074,67.4681402 85.0835906,66.4959173 85.0835906,65.34958 C85.0835906,64.1972041 84.6840332,63.2219619 83.8839119,62.4258664 C83.0837906,61.6297708 82.0763422,61.2322263 80.8625733,61.2322263" id="Fill-21" fill="#FEFEFE" mask="url(#mask-2)"></path>
                        <polygon id="Fill-22" fill="#FEFEFE" mask="url(#mask-2)" points="92.9290064 66.271984 89.1971199 61.3675927 87.5817806 61.3675927 87.5817806 69.3325738 89.3108478 69.3325738 89.3108478 64.2691647 93.1675331 69.3325738 94.65908 69.3325738 94.65908 61.3675927 92.9290064 61.3675927"></polygon>
                        <path d="M3.14050126,83.0836899 L4.19827168,80.50116 L5.25704855,83.0836899 L3.14050126,83.0836899 Z M3.41324701,78.3966901 L0.000402576754,86.4180319 L1.78583048,86.4180319 L2.51449441,84.6305911 L5.8830554,84.6305911 L6.61071288,86.4180319 L8.44243712,86.4180319 L5.02858624,78.3966901 L3.41324701,78.3966901 Z" id="Fill-23" fill="#FEFEFE" mask="url(#mask-2)"></path>
                        <path d="M15.0192329,84.7113077 C14.7072359,84.862274 14.3398846,84.9387636 13.9151662,84.9387636 C13.2468887,84.9387636 12.6953586,84.6952047 12.2595693,84.2100997 C11.8227735,83.7249947 11.605382,83.1332069 11.605382,82.4347362 C11.605382,81.7292204 11.8227735,81.1364262 12.2595693,80.6543405 C12.6953586,80.1722548 13.2468887,79.9317152 13.9151662,79.9317152 C14.3398846,79.9317152 14.7022037,80.0021662 15.001117,80.143068 C15.3010366,80.2829634 15.6220916,80.5084064 15.962269,80.819397 L17.009975,79.6136796 C16.5852565,79.1970127 16.1373898,78.8759577 15.6673815,78.6515211 C15.1973731,78.428091 14.6166562,78.316376 13.926237,78.316376 C12.7205196,78.316376 11.7271615,78.714927 10.9451562,79.5110225 C10.1641573,80.3071181 9.7736578,81.2823602 9.7736578,82.4347362 C9.7736578,83.5961701 10.1621444,84.5724188 10.9391175,85.3644885 C11.7170971,86.1575647 12.6903264,86.5541028 13.8588054,86.5541028 C14.593508,86.5541028 15.2134762,86.4444007 15.71871,86.2239899 C16.2229374,86.0035791 16.6909329,85.6623953 17.1237029,85.1994321 L16.0085653,84.005792 C15.6603364,84.3238276 15.3302235,84.559335 15.0192329,84.7113077" id="Fill-24" fill="#FEFEFE" mask="url(#mask-2)"></path>
                        <path d="M21.8972568,83.0836899 L22.9550272,80.50116 L24.013804,83.0836899 L21.8972568,83.0836899 Z M22.1700025,78.3966901 L18.7571581,86.4180319 L20.542586,86.4180319 L21.2712499,84.6305911 L24.6398109,84.6305911 L25.3674684,86.4180319 L27.1991926,86.4180319 L23.7853417,78.3966901 L22.1700025,78.3966901 Z" id="Fill-25" fill="#FEFEFE" mask="url(#mask-2)"></path>
                        <path d="M34.1523977,84.1707478 C33.7125826,84.6135822 33.1318656,84.8360059 32.4122596,84.8360059 L31.0575889,84.8360059 L31.0575889,80.0352781 L32.4122596,80.0352781 C33.1248205,80.0352781 33.7035246,80.2577018 34.146359,80.7065748 C34.5901999,81.153435 34.8116171,81.7291198 34.8116171,82.4346356 C34.8116171,83.1482029 34.5922128,83.7269069 34.1523977,84.1707478 M32.4122596,78.452145 L29.3053735,78.452145 L29.3053735,86.4171261 L32.4122596,86.4171261 C33.6471638,86.4171261 34.6626637,86.0376975 35.4547335,85.2798468 C36.2478097,84.521996 36.6443478,83.5729213 36.6443478,82.4346356 C36.6443478,81.2903111 36.2498226,80.3392235 35.4607721,79.5843921 C34.6717217,78.8295607 33.6552154,78.452145 32.4122596,78.452145" id="Fill-26" fill="#FEFEFE" mask="url(#mask-2)"></path>
                        <polygon id="Fill-27" fill="#FEFEFE" mask="url(#mask-2)" points="40.882072 83.1859444 44.6371067 83.1859444 44.6371067 81.6269659 40.882072 81.6269659 40.882072 80.0116267 45.1493856 80.0116267 45.1493856 78.4526482 39.141934 78.4526482 39.141934 86.4176293 45.2057463 86.4176293 45.2057463 84.8586508 40.882072 84.8586508"></polygon>
                        <polygon id="Fill-28" fill="#FEFEFE" mask="url(#mask-2)" points="51.8064954 81.820706 49.7130963 78.452145 47.8250113 78.452145 47.8250113 86.4171261 49.5430076 86.4171261 49.5430076 81.2520663 51.7612056 84.6196209 51.8064954 84.6196209 54.048848 81.2178473 54.048848 86.4171261 55.788986 86.4171261 55.788986 78.452145 53.900901 78.452145"></polygon>
                        <polygon id="Fill-29" fill="#FEFEFE" mask="url(#mask-2)" points="61.7735914 81.6497115 59.8734291 78.4522457 57.8253198 78.4522457 60.8859096 83.2771281 60.8859096 86.4172267 62.6381249 86.4172267 62.6381249 83.242909 65.6987147 78.4522457 63.7079727 78.4522457"></polygon>
                    </g>
                </g>
            </g>
        </g>
    </g>
</svg>