<svg width="458" height="500" viewBox="0 0 458 500" fill="none" xmlns="http://www.w3.org/2000/svg">
<path opacity="0.4" d="M147.45 385.65L195.27 358C198.72 356 198.27 352.53 194.27 350.23L163.27 332.34L102.97 367.21L133.97 385.1C137.97 387.39 143.97 387.64 147.45 385.65Z" fill="#D6D8E5"/>
<path d="M143.131 383.12L190.971 355.51C194.411 353.51 193.971 350.04 189.971 347.74L158.971 329.85L98.651 364.68L129.651 382.57C133.661 384.86 139.681 385.11 143.131 383.12Z" fill="#B1B4C4"/>
<path d="M98.6905 364.68V362.85L101.48 364.46L98.6905 364.68Z" fill="#B1B4C4"/>
<path d="M193.281 352.22V350.36L190.421 351.55L193.281 352.22Z" fill="#B1B4C4"/>
<path d="M143.131 381.3L190.971 353.68C194.411 351.68 193.971 348.22 189.971 345.92L158.971 328L98.651 362.82L129.651 380.71C133.661 383 139.681 383.29 143.131 381.3Z" fill="#D6D8E5"/>
<path d="M158.841 328.11L166.311 303.35L105.341 338.32L98.6906 362.85L158.841 328.11Z" fill="#9EA1AF"/>
<path d="M100.46 363.87L98.6903 362.87L101.32 360.77L100.46 363.87Z" fill="#9EA1AF"/>
<path d="M160.77 329.04L168.23 304.28L107.26 339.25L100.46 363.87L160.77 329.04Z" fill="#B1B4C4"/>
<path d="M5.9707 405.61L241.971 269.35C245.281 267.44 247.971 262.35 247.971 257.89V75.33C247.971 70.92 245.291 68.89 241.971 70.8L5.9707 207.06C2.66071 208.97 -0.0292969 214.06 -0.0292969 218.51V401.08C-0.0292969 405.49 2.68071 407.52 5.9707 405.61Z" fill="#B1B4C4"/>
<path d="M4.78125 407.49L2.16125 405.98L3.29126 398.23L4.78125 407.49Z" fill="#B1B4C4"/>
<path d="M248.42 71.93L245.84 70.44L242.14 72.55C242.14 72.55 246.08 73.15 246.14 73.13C246.2 73.11 248.42 71.93 248.42 71.93Z" fill="#B1B4C4"/>
<path d="M8.15039 406.86L244.15 270.6C247.46 268.69 250.15 263.6 250.15 259.14V76.58C250.15 72.17 247.46 70.14 244.15 72.05L8.15039 208.31C4.84039 210.22 2.15039 215.31 2.15039 219.76V402.33C2.16039 406.74 4.84039 408.77 8.15039 406.86Z" fill="#E4E7F2"/>
<path d="M8.57031 407.09L244.57 270.83C247.88 268.92 250.57 263.83 250.57 259.38V76.82C250.57 72.41 247.89 70.38 244.57 72.29L8.57031 208.55C5.26031 210.46 2.57031 215.55 2.57031 220V402.56C2.57031 407 5.26031 409 8.57031 407.09Z" fill="#D6D8E5"/>
<path d="M5.82008 396L247.58 256.42L247.45 77.55C247.45 75.72 246.16 74.98 244.58 75.89L8.58006 212.15C7.74112 212.698 7.04375 213.437 6.54494 214.306C6.04613 215.175 5.76004 216.149 5.71007 217.15L5.82008 396Z" fill="white"/>
<path d="M20.7913 240.5L235.091 116.78C235.834 116.248 236.441 115.549 236.865 114.74C237.288 113.931 237.517 113.033 237.531 112.12V96.65C237.531 94.86 236.441 94.03 235.091 94.81L20.7913 218.53C20.0476 219.063 19.4395 219.764 19.0157 220.575C18.5919 221.386 18.3644 222.285 18.3513 223.2V238.66C18.3513 240.46 19.4413 241.28 20.7913 240.5Z" fill="#E9EAF2"/>
<path d="M31.9713 281.91L82.3412 252.83C83.0835 252.298 83.6909 251.599 84.1146 250.79C84.5383 249.98 84.7666 249.083 84.7812 248.17V215.66C84.7812 213.86 83.6912 213.04 82.3412 213.82L31.9713 242.9C31.2278 243.431 30.6197 244.13 30.1958 244.939C29.772 245.749 29.5443 246.646 29.5312 247.56V280.07C29.5713 281.86 30.6613 282.69 31.9713 281.91Z" fill="#E9EAF2"/>
<path d="M98.3595 292.47L224.719 219.47C225.092 219.205 225.397 218.856 225.609 218.451C225.821 218.046 225.934 217.597 225.939 217.14V211.55C225.939 210.65 225.399 210.23 224.719 210.62L98.3595 283.62C97.9886 283.886 97.6852 284.236 97.4733 284.64C97.2615 285.045 97.1472 285.493 97.1395 285.95V291.55C97.1395 292.44 97.6895 292.86 98.3595 292.47Z" fill="#E9EAF2"/>
<path d="M110.8 298.53L224.36 233C224.73 232.733 225.033 232.383 225.245 231.979C225.457 231.575 225.572 231.126 225.58 230.67V227.88C225.58 226.98 225.03 226.57 224.36 226.96L110.8 292.52C110.429 292.786 110.126 293.136 109.914 293.54C109.702 293.945 109.588 294.393 109.58 294.85V297.63C109.58 298.5 110.13 298.92 110.8 298.53Z" fill="#E9EAF2"/>
<path d="M110.8 309.09L224.36 243.53C224.731 243.264 225.034 242.914 225.246 242.51C225.458 242.105 225.572 241.657 225.58 241.2V238.41C225.58 237.52 225.03 237.1 224.36 237.49L110.8 303.05C110.429 303.316 110.126 303.666 109.914 304.07C109.702 304.475 109.588 304.923 109.58 305.38V308.17C109.58 309.07 110.13 309.48 110.8 309.09Z" fill="#E9EAF2"/>
<path d="M139.83 302.89L224.36 254.09C224.731 253.824 225.034 253.474 225.246 253.07C225.458 252.665 225.572 252.217 225.58 251.76V249C225.58 248.1 225.03 247.69 224.36 248.07L139.83 296.87C139.462 297.141 139.16 297.493 138.949 297.899C138.738 298.304 138.622 298.753 138.61 299.21V302C138.61 302.87 139.16 303.28 139.83 302.89Z" fill="#E9EAF2"/>
<path d="M30.7903 295.43L83.6003 264.94C83.9729 264.675 84.2776 264.326 84.4896 263.921C84.7016 263.516 84.815 263.067 84.8203 262.61V259.82C84.8203 258.92 84.2803 258.51 83.6003 258.9L30.7903 289.39C30.4195 289.656 30.116 290.006 29.9042 290.41C29.6924 290.815 29.578 291.263 29.5703 291.72V294.51C29.5703 295.41 30.1203 295.82 30.7903 295.43Z" fill="#E9EAF2"/>
<path d="M30.7903 306L83.6003 275.5C83.9729 275.235 84.2776 274.886 84.4896 274.481C84.7016 274.076 84.815 273.627 84.8203 273.17V270.39C84.8203 269.49 84.2803 269.07 83.6003 269.46L30.7903 300C30.4183 300.265 30.114 300.615 29.9021 301.019C29.6901 301.424 29.5765 301.873 29.5703 302.33V305.11C29.5703 306 30.1203 306.38 30.7903 306Z" fill="#E9EAF2"/>
<path d="M44.6198 308.57L83.6198 286.06C83.9924 285.795 84.2972 285.446 84.5092 285.041C84.7212 284.636 84.8345 284.187 84.8398 283.73V281C84.8398 280.1 84.2998 279.69 83.6198 280.08L44.6198 302.58C44.2484 302.846 43.9446 303.195 43.7327 303.6C43.5208 304.005 43.4068 304.453 43.3998 304.91V307.7C43.3998 308.55 43.9698 309 44.6198 308.57Z" fill="#E9EAF2"/>
<path d="M31.9713 363.31L82.3412 334.23C83.0835 333.698 83.6909 332.999 84.1146 332.19C84.5383 331.38 84.7666 330.483 84.7812 329.57V297.06C84.7812 295.27 83.6912 294.44 82.3412 295.22L31.9713 324.3C31.2309 324.841 30.628 325.548 30.2112 326.364C29.7943 327.18 29.5751 328.083 29.5713 329V361.51C29.5713 363.26 30.6613 364.09 31.9713 363.31Z" fill="#E9EAF2"/>
<path d="M30.7903 376.83L83.6003 346.34C83.9729 346.075 84.2776 345.726 84.4896 345.321C84.7016 344.916 84.815 344.467 84.8203 344.01V341.23C84.8203 340.33 84.2803 339.91 83.6003 340.3L30.7903 370.79C30.422 371.061 30.1206 371.413 29.9092 371.819C29.6977 372.224 29.5818 372.673 29.5703 373.13V375.91C29.5703 376.81 30.1203 377.22 30.7903 376.83Z" fill="#E9EAF2"/>
<path d="M224.389 115.736C222.557 114.678 222.558 111.246 224.392 108.07C226.226 104.895 229.197 103.177 231.029 104.235C232.861 105.293 232.859 108.725 231.026 111.9C229.192 115.076 226.221 116.794 224.389 115.736Z" fill="#DADCE5"/>
<path d="M116.289 176.35L134.829 165.65C135.015 165.516 135.167 165.34 135.273 165.137C135.379 164.934 135.436 164.709 135.439 164.48V162C135.439 161.55 135.169 161.34 134.829 161.54L116.289 172.24C116.103 172.371 115.95 172.544 115.844 172.746C115.738 172.948 115.681 173.172 115.679 173.4V175.86C115.679 176.34 115.969 176.55 116.289 176.35Z" fill="#DADCE5"/>
<path d="M86.2895 193.68L104.829 183C105.014 182.868 105.166 182.694 105.272 182.492C105.378 182.291 105.435 182.068 105.439 181.84V179.38C105.439 178.93 105.159 178.72 104.829 178.92L86.2895 189.62C86.1036 189.754 85.9517 189.93 85.8458 190.133C85.7399 190.336 85.6829 190.561 85.6794 190.79V193.25C85.6794 193.66 85.9695 193.87 86.2895 193.68Z" fill="#DADCE5"/>
<path d="M56.7699 210.72L75.3099 200C75.4967 199.869 75.6495 199.696 75.7556 199.494C75.8617 199.292 75.9181 199.068 75.9199 198.84V196.38C75.9199 195.93 75.6499 195.73 75.3099 195.92L56.7699 206.62C56.5841 206.754 56.4322 206.93 56.3263 207.133C56.2204 207.336 56.1634 207.561 56.1599 207.79V210.25C56.1599 210.71 56.4299 210.91 56.7699 210.72Z" fill="#DADCE5"/>
<path d="M26.7701 228L45.3001 217.3C45.486 217.166 45.6379 216.99 45.7438 216.787C45.8497 216.584 45.9067 216.359 45.9102 216.13V213.67C45.9102 213.22 45.6401 213.02 45.3001 213.21L26.7701 224C26.5834 224.131 26.4305 224.304 26.3244 224.506C26.2183 224.708 26.162 224.932 26.1602 225.16V227.62C26.1602 228 26.4301 228.24 26.7701 228Z" fill="#DADCE5"/>
<path d="M67.6902 246.91L71.2302 237.8L77.6602 246.96L70.6002 251.04L64.7902 254.39L51.8401 261.87L61.2202 237.7L67.6902 246.91Z" fill="#DADCE5"/>
<path d="M36.9582 253.516C35.3005 252.563 35.2931 249.466 36.9417 246.597C38.5903 243.729 41.2705 242.175 42.9282 243.128C44.5859 244.081 44.5933 247.179 42.9447 250.047C41.2961 252.916 38.6159 254.469 36.9582 253.516Z" fill="#DADCE5"/>
<path d="M67.3308 329.51L70.8608 320.4L77.3008 329.56L70.2308 333.64L64.4208 336.99L51.4708 344.47L60.8508 320.3L67.3308 329.51Z" fill="#DADCE5"/>
<path d="M38.2434 335.118C36.5933 334.165 36.592 331.078 38.2406 328.223C39.8892 325.367 42.5633 323.825 44.2134 324.778C45.8635 325.73 45.8647 328.817 44.2162 331.673C42.5676 334.528 39.8935 336.071 38.2434 335.118Z" fill="#DADCE5"/>
<path d="M186.291 205.33L190.971 224.07V208.03L186.291 205.33Z" fill="#232733"/>
<path d="M240.8 173.56L245.48 192.31V176.27L240.8 173.56Z" fill="#232733"/>
<path d="M163.832 289.83L275.252 225.5C275.917 225.023 276.461 224.396 276.839 223.67C277.218 222.944 277.421 222.139 277.432 221.32V164.32C277.432 162.71 276.432 161.97 275.252 162.67L163.832 227C163.165 227.474 162.619 228.099 162.239 228.823C161.858 229.548 161.654 230.352 161.642 231.17V288.22C161.642 289.79 162.622 290.53 163.832 289.83Z" fill="#E9EAF2"/>
<path d="M244.241 223L250.281 207.43L261.281 223.08L249.201 230.06L239.281 235.79L217.131 248.58L233.171 207.25L244.241 223Z" fill="#C90921"/>
<path d="M182.017 239.788C179.2 238.162 179.202 232.885 182.021 228.001C184.841 223.118 189.41 220.478 192.227 222.104C195.044 223.731 195.043 229.008 192.223 233.891C189.404 238.775 184.834 241.415 182.017 239.788Z" fill="#C90921"/>
<path d="M193.02 201.44L193.03 180.06L199.09 175.51V201.44L205.83 205.33L196.06 210.97L186.29 205.33L193.02 201.44Z" fill="#353C4C"/>
<path d="M196.061 210.97L190.971 224.07V208.94V208.03L196.061 210.97Z" fill="#232733"/>
<path d="M205.83 205.33L201.5 217.91L190.97 224.07L196.06 210.97L205.83 205.33Z" fill="#2B303F"/>
<path d="M247.54 169.68V143.74H253.6V169.67L260.34 173.56L250.57 179.21L240.8 173.56L247.54 169.68Z" fill="#353C4C"/>
<path d="M250.57 179.21L245.48 192.31V177.18V176.27L250.57 179.21Z" fill="#232733"/>
<path d="M260.34 173.56L256.01 186.14L245.48 192.31L250.57 179.21L260.34 173.56Z" fill="#2B303F"/>
<path opacity="0.4" d="M314.201 290.74L374.561 255.72L447.291 297.71L382.221 335.45L309.481 293.46V288.02L314.201 290.74Z" fill="#D6D8E5"/>
<path d="M306.541 286.02L374.561 246.75L442.581 286.02L447.291 283.3V288.74L374.561 330.74L301.831 288.74V283.3L306.541 286.02Z" fill="#B1B4C4"/>
<path d="M374.561 325.29L447.291 283.3L374.561 241.31L301.831 283.3L374.561 325.29Z" fill="#E7E9F2"/>
<path d="M374.791 267.75L370.041 265.01V62.2L374.791 64.94V267.75Z" fill="#B1B4C4"/>
<path d="M374.41 147.69L341.2 200.25L336.45 198.31L370.04 145.23L374.41 147.69Z" fill="#B1B4C4"/>
<path d="M374.611 157.04L341.381 209.86V199.98L374.611 147.35V157.04Z" fill="#D6D8E5"/>
<path d="M379.361 265.01L374.611 267.75V64.94L379.361 62.2V265.01Z" fill="#D6D8E5"/>
<path d="M341.381 286.94L336.631 289.68V86.87L341.381 84.13V286.94Z" fill="#D6D8E5"/>
<path d="M336.811 289.68L332.061 286.94V84.13L336.811 86.87V289.68Z" fill="#B1B4C4"/>
<path d="M374.611 253.13L341.381 213.34V203.8L374.611 243.65V253.13Z" fill="#D6D8E5"/>
<path d="M374.611 253.13L370.041 250.63L341.381 216.08V212.6L374.611 253.13Z" fill="#B1B4C4"/>
<path d="M374.611 147.69L341.381 107.9V98.36L374.611 138.21V147.69Z" fill="#D6D8E5"/>
<path d="M374.611 147.69L370.041 145.18L341.381 110.64V107.16L374.611 147.69Z" fill="#B1B4C4"/>
<path d="M412.49 289.65L407.74 286.91V84.1L412.49 86.84V289.65Z" fill="#B1B4C4"/>
<path d="M412.111 169.59L378.901 222.14L374.151 220.21L407.741 167.13L412.111 169.59Z" fill="#B1B4C4"/>
<path d="M412.311 178.94L379.081 231.75V221.88L412.311 169.24V178.94Z" fill="#D6D8E5"/>
<path d="M417.051 286.91L412.311 289.65V86.84L417.051 84.1V286.91Z" fill="#D6D8E5"/>
<path d="M379.08 308.83L374.33 311.57V108.77L379.08 106.02V308.83Z" fill="#D6D8E5"/>
<path d="M374.51 311.57L369.76 308.83V106.02L374.51 108.77V311.57Z" fill="#B1B4C4"/>
<path d="M412.311 275.03L379.081 235.24V225.69L412.311 265.55V275.03Z" fill="#D6D8E5"/>
<path d="M412.311 275.03L407.741 272.52L379.081 237.98V234.49L412.311 275.03Z" fill="#B1B4C4"/>
<path d="M412.311 169.59L379.081 129.8V120.25L412.311 160.1V169.59Z" fill="#D6D8E5"/>
<path d="M412.311 169.59L407.741 167.08L379.081 132.53V129.05L412.311 169.59Z" fill="#B1B4C4"/>
<path d="M374.331 119.04L423.361 90.73L374.331 62.43L325.301 90.73L374.331 119.04Z" fill="#F7DC6B"/>
<path d="M377.98 37.91L436.11 71.47L452.75 61.86L394.62 28.3L377.98 37.91Z" fill="#353C4C"/>
<path d="M452.75 75.32V61.86L436.11 71.47V84.93L452.75 75.32Z" fill="#2B303F"/>
<path d="M436.111 84.93L377.981 51.37V37.91L436.111 71.47V83.62" fill="#232733"/>
<path d="M377.98 22.81L436.11 56.37L452.75 46.76L394.62 13.2L377.98 22.81Z" fill="#353C4C"/>
<path d="M452.75 60.23V46.76L436.11 56.37V69.84L452.75 60.23Z" fill="#2B303F"/>
<path d="M436.111 69.84L377.981 36.28V22.81L436.111 56.37V68.53" fill="#232733"/>
<path d="M421.921 64.55L457.971 43.87V36.33L421.921 56.88V64.55Z" fill="#D6D8E5"/>
<path d="M369.761 86.82L457.971 36.33L451.441 32.56L363.231 83.05L369.761 86.82Z" fill="#E7E9F2"/>
<path d="M382.261 52.63L427.551 26.43V18.88L382.261 43.15V52.63Z" fill="#D6D8E5"/>
<path d="M347.911 64.09L427.551 18.89L421.021 15.12L341.381 60.32L347.911 64.09Z" fill="#E7E9F2"/>
<path d="M403.42 32.8V40.34L400.32 62.05L395.72 64.91L403.42 32.8Z" fill="#D6D8E5"/>
<path d="M389.79 68.13L395.75 37.23L403.42 32.8L398.77 63.25L389.79 68.13Z" fill="#E7E9F2"/>
<path d="M403.422 40.34L427.212 46.61L439.432 39.55L404.462 32.18L403.422 32.8V40.34Z" fill="#B1B4C4"/>
<path d="M403.42 32.8L436.55 41.22L443.67 37.11L410.28 28.58L403.42 32.8Z" fill="#E7E9F2"/>
<path d="M374.331 56.62L423.361 28.31L374.331 0L325.301 28.31L374.331 56.62Z" fill="#E7E9F2"/>
<path d="M423.361 115.73V28.31L374.331 56.62V144.04L423.361 115.73Z" fill="#D6D8E5"/>
<path d="M325.3 28.31V115.73L374.33 144.04V56.61L325.3 28.31Z" fill="#B1B4C4"/>
<path d="M374.331 87.07L402.481 70.82L411.531 42.02L374.331 63.5V87.07Z" fill="#2A2C2E"/>
<path d="M325.3 35.19V58.76L374.33 87.08V63.51L325.3 35.19Z" fill="#151718"/>
<path d="M155.702 219.27L367.852 96.78V89.24L155.702 211.73V219.27Z" fill="#D6D8E5"/>
<path d="M155.702 211.73L367.852 89.25L361.322 85.48L149.172 207.96L155.702 211.73Z" fill="#E7E9F2"/>
<path d="M125.282 201.83L337.432 79.34V71.8L125.282 194.29V201.83Z" fill="#D6D8E5"/>
<path d="M125.282 194.29L337.432 71.8L330.902 68.03L118.752 190.52L125.282 194.29Z" fill="#E7E9F2"/>
<path d="M118.751 198.08L155.701 219.27V211.72L118.751 190.54V198.08Z" fill="#B1B4C4"/>
<path d="M118.751 190.54L155.681 211.73L161.211 208.54L124.281 187.35L118.751 190.54Z" fill="#E7E9F2"/>
<path d="M151.871 186.46L175.671 192.73L187.891 185.67L152.921 178.3L151.871 178.92V186.46Z" fill="#B1B4C4"/>
<path d="M151.871 178.92L185.001 187.34L192.121 183.22L158.741 174.7L151.871 178.92Z" fill="#E7E9F2"/>
<path d="M205.561 147.96V155.5L202.461 177.21L197.861 180.06L205.561 147.96Z" fill="#D6D8E5"/>
<path d="M191.931 183.29L197.891 152.39L205.561 147.96L200.901 178.41L191.931 183.29Z" fill="#E7E9F2"/>
<path d="M205.56 155.5L229.35 161.77L241.57 154.71L206.6 147.34L205.56 147.96V155.5Z" fill="#B1B4C4"/>
<path d="M205.561 147.96L238.681 156.38L245.801 152.27L212.421 143.74L205.561 147.96Z" fill="#E7E9F2"/>
<path d="M259.432 116.83V124.37L256.342 146.08L251.732 148.94L259.432 116.83Z" fill="#D6D8E5"/>
<path d="M245.802 152.16L251.762 121.26L259.432 116.83L254.782 147.28L245.802 152.16Z" fill="#E7E9F2"/>
<path d="M259.431 124.37L283.221 130.64L295.441 123.58L260.471 116.21L259.431 116.83V124.37Z" fill="#B1B4C4"/>
<path d="M259.432 116.83L292.562 125.25L299.682 121.14L266.292 112.61L259.432 116.83Z" fill="#E7E9F2"/>
<path d="M313.301 85.72V93.26L310.211 114.97L305.601 117.82L313.301 85.72Z" fill="#D6D8E5"/>
<path d="M299.681 121.05L305.631 90.15L313.301 85.72L308.651 116.17L299.681 121.05Z" fill="#E7E9F2"/>
<path d="M313.301 93.26L337.091 99.53L349.311 92.47L314.341 85.1L313.301 85.72V93.26Z" fill="#B1B4C4"/>
<path d="M313.301 85.72L346.431 94.14L353.551 90.03L320.171 81.5L313.301 85.72Z" fill="#E7E9F2"/>
<path opacity="0.4" d="M363.801 500L391.621 484.08L349.981 460.25L322.161 476.16L363.801 500Z" fill="#D6D8E5"/>
<path d="M363.22 467.91L386.26 454.6L363.22 441.3L340.18 454.61L363.22 467.91Z" fill="#D6D8E5"/>
<path d="M363.22 494.52L386.26 481.21V454.6L363.22 467.91V494.52Z" fill="#B1B6C4"/>
<path d="M340.181 481.21L363.221 494.52V467.91L340.181 454.6V481.21Z" fill="#C4C7D6"/>
<path d="M332.251 472.84C330.257 473.393 328.125 473.134 326.321 472.12C324.891 472.12 317.131 468.84 316.071 471.63C315.151 474.08 318.511 476.34 320.311 476.77C324.231 477.77 327.131 479.68 328.701 480.01C329.871 480.26 331.391 480.42 332.331 479.5C333.451 478.39 333.351 474.3 332.251 472.84Z" fill="#38226D"/>
<path d="M328.7 479.33C327.13 479 324.23 477.05 320.31 476.1C318.8 475.73 316.21 474.1 315.95 472.1C315.6 474.35 318.63 476.35 320.31 476.75C324.23 477.75 327.13 479.66 328.7 479.99C329.87 480.24 331.39 480.4 332.33 479.48C332.567 479.208 332.741 478.887 332.84 478.54C332.259 478.986 331.582 479.289 330.864 479.426C330.145 479.563 329.404 479.53 328.7 479.33Z" fill="#B80000"/>
<path d="M346.251 465.39C344.253 465.944 342.118 465.685 340.311 464.67C338.881 464.67 331.121 461.39 330.071 464.18C329.141 466.63 332.501 468.89 334.301 469.32C338.221 470.27 341.121 472.23 342.701 472.56C343.871 472.81 345.391 472.97 346.321 472.05C347.441 470.94 347.351 466.85 346.251 465.39Z" fill="#38226D"/>
<path d="M342.7 471.88C341.12 471.55 338.22 469.6 334.3 468.65C332.8 468.28 330.2 466.65 329.94 464.65C329.59 466.9 332.63 468.9 334.3 469.3C338.22 470.25 341.12 472.21 342.7 472.54C343.87 472.79 345.39 472.95 346.32 472.03C346.564 471.761 346.742 471.439 346.84 471.09C346.259 471.535 345.582 471.838 344.863 471.975C344.145 472.112 343.404 472.08 342.7 471.88Z" fill="#B80000"/>
<path d="M368.04 455.73C362.04 458.39 356.28 458.81 351.61 456.3L346.79 453.52C346.5 459.74 346.23 465.72 346.23 465.72C346.23 465.72 342.53 468.52 339.65 466.02C339.65 466.02 339.05 457.29 338.44 448.7L333.38 445.78C333.502 446.237 333.569 446.707 333.58 447.18C333.58 448.82 332.41 473.08 332.41 473.08C332.41 473.08 328.68 475.3 325.8 472.8C325.8 472.8 323.86 444.68 323.42 440.19C322.92 435.14 328.53 432.65 332.07 433.95C332.9 434.24 334.93 435 337.5 435.95C337.39 434.54 337.3 433.45 337.24 432.83C336.73 427.77 342.34 425.28 345.89 426.58C349.13 427.76 370.97 436 370.97 436C370.834 438.096 370.577 440.183 370.2 442.25L378.82 441.53C379.34 449.6 374.08 453.07 368.04 455.73ZM352.97 441.73L347.2 438.4C347.302 438.806 347.365 439.222 347.39 439.64L352.97 441.73Z" fill="#C90921"/>
<path d="M383.551 416.87C383.551 416.87 382.841 427.6 381.431 429.15C380.021 430.7 375.261 431.75 375.261 431.75L371.601 437.75C371.601 437.75 374.971 418.6 375.671 418.14C376.371 417.68 383.551 416.87 383.551 416.87Z" fill="#FFCEA9"/>
<path d="M376.5 405C377.391 404.586 378.404 404.513 379.344 404.797C380.285 405.081 381.088 405.702 381.6 406.54C382.95 408.78 384.35 416.44 384.48 417.75C384.48 417.75 382.59 420.37 379.75 419.93L376.5 405Z" fill="#EDEDED"/>
<path d="M375.21 405.09C373.35 405.18 371.97 405.66 371.74 405.09C371.541 404.136 371.401 403.171 371.32 402.2C371.53 401.66 371.72 401.08 371.72 401.08C374.04 399.65 374.78 397.08 375.09 394.2C375.61 389.2 372.9 384.8 367.89 384.28C363.18 383.79 359.72 387.1 358.79 391.64C358.3 393.89 357.3 398.13 358.64 401.82C359.39 403.88 360.36 405.52 361.32 405.82C362.255 405.793 363.186 405.709 364.11 405.57C364.11 405.57 364.36 406.96 364.53 407.85C364.7 408.74 364.63 409.22 362.86 410.31C361.09 411.4 365.55 413.66 368.46 413.44C371.37 413.22 374.66 411.44 375.57 409.57C376.57 407.51 376.48 405 375.21 405.09Z" fill="#FFCEA9"/>
<path d="M328.231 437.91C328.229 438.175 328.298 438.436 328.43 438.666C328.561 438.896 328.752 439.087 328.981 439.22L343.111 447.38C343.341 447.513 343.601 447.582 343.866 447.582C344.131 447.582 344.392 447.513 344.621 447.38L364.441 435.94C364.67 435.808 364.859 435.619 364.991 435.391C365.122 435.162 365.192 434.903 365.191 434.64V434.52L328.231 437.91Z" fill="#E5E5E5"/>
<path d="M328.971 439.22L343.101 447.38C343.332 447.513 343.595 447.583 343.861 447.58V437.91H328.221C328.219 438.175 328.288 438.436 328.42 438.666C328.551 438.896 328.742 439.087 328.971 439.22Z" fill="#E5E5E5"/>
<path d="M343.341 446.64C343.502 446.733 343.685 446.782 343.871 446.782C344.057 446.782 344.24 446.733 344.401 446.64L364.971 434.75C365.241 434.6 365.241 434.35 364.971 434.2L349.811 425.44L328.211 437.91L343.341 446.64Z" fill="#F4F4F4"/>
<path d="M356.531 437.91L356.431 437.97L349.831 441.78L346.211 439.69L346.101 439.63L352.811 435.76L356.531 437.91Z" fill="#BFBFBF"/>
<path d="M356.432 437.97L349.832 441.78L346.212 439.69L352.812 435.88L356.432 437.97Z" fill="#E5E5E5"/>
<path d="M333.832 438.53L332.832 439.08C332.785 439.102 332.734 439.114 332.682 439.114C332.63 439.114 332.579 439.102 332.532 439.08L331.622 438.55C331.532 438.5 331.522 438.42 331.622 438.38L332.622 437.83C332.668 437.805 332.72 437.793 332.772 437.793C332.824 437.793 332.876 437.805 332.922 437.83L333.832 438.35C333.892 438.41 333.902 438.48 333.832 438.53Z" fill="#3A2C6D"/>
<path d="M335.172 437.75L334.172 438.3C334.126 438.325 334.075 438.337 334.022 438.337C333.97 438.337 333.918 438.325 333.872 438.3L332.962 437.77C332.872 437.72 332.862 437.64 332.962 437.6L333.962 437.05C334.008 437.025 334.06 437.013 334.112 437.013C334.165 437.013 334.216 437.025 334.262 437.05L335.172 437.58C335.242 437.63 335.252 437.71 335.172 437.75Z" fill="#3A2C6D"/>
<path d="M336.521 437L335.521 437.55C335.474 437.575 335.423 437.587 335.371 437.587C335.318 437.587 335.267 437.575 335.221 437.55L334.311 437.03C334.221 436.97 334.211 436.9 334.311 436.85L335.261 436.3C335.307 436.278 335.359 436.266 335.411 436.266C335.462 436.266 335.514 436.278 335.561 436.3L336.471 436.83C336.591 436.85 336.601 436.93 336.521 437Z" fill="#3A2C6D"/>
<path d="M337.872 436.2L336.872 436.75C336.823 436.772 336.771 436.783 336.717 436.783C336.664 436.783 336.611 436.772 336.562 436.75L335.652 436.23C335.562 436.23 335.552 436.1 335.652 436.05L336.652 435.5C336.7 435.475 336.753 435.463 336.807 435.463C336.861 435.463 336.914 435.475 336.962 435.5L337.872 436.02C337.972 436.07 337.972 436.15 337.872 436.2Z" fill="#3A2C6D"/>
<path d="M339.221 435.42L338.221 435.97C338.175 435.995 338.123 436.007 338.071 436.007C338.018 436.007 337.967 435.995 337.921 435.97L337.011 435.45C336.921 435.4 336.911 435.32 337.011 435.28L338.011 434.73C338.059 434.705 338.112 434.693 338.166 434.693C338.22 434.693 338.273 434.705 338.321 434.73L339.221 435.25C339.281 435.29 339.291 435.37 339.221 435.42Z" fill="#3A2C6D"/>
<path d="M340.561 434.64L339.561 435.19C339.514 435.212 339.463 435.224 339.411 435.224C339.359 435.224 339.308 435.212 339.261 435.19L338.351 434.66C338.261 434.66 338.251 434.53 338.351 434.49L339.351 433.94C339.397 433.915 339.449 433.903 339.501 433.903C339.553 433.903 339.605 433.915 339.651 433.94L340.561 434.46C340.631 434.52 340.641 434.59 340.561 434.64Z" fill="#3A2C6D"/>
<path d="M341.911 433.86L340.911 434.41C340.865 434.435 340.813 434.447 340.761 434.447C340.709 434.447 340.657 434.435 340.611 434.41L339.701 433.88C339.611 433.83 339.601 433.75 339.701 433.71L340.651 433.16C340.697 433.135 340.749 433.123 340.801 433.123C340.853 433.123 340.905 433.135 340.951 433.16L341.861 433.69C341.971 433.74 341.971 433.82 341.911 433.86Z" fill="#3A2C6D"/>
<path d="M343.262 433.08L342.262 433.63C342.214 433.655 342.161 433.667 342.107 433.667C342.053 433.667 342 433.655 341.952 433.63L341.042 433.11C340.952 433.05 340.952 432.98 341.042 432.93L342.042 432.38C342.091 432.358 342.144 432.346 342.197 432.346C342.251 432.346 342.303 432.358 342.352 432.38L343.262 432.91C343.332 433 343.342 433 343.262 433.08Z" fill="#3A2C6D"/>
<path d="M344.611 432.31L343.611 432.86C343.564 432.882 343.513 432.893 343.461 432.893C343.41 432.893 343.358 432.882 343.311 432.86L342.401 432.34C342.311 432.29 342.301 432.21 342.401 432.16L343.401 431.61C343.449 431.585 343.502 431.573 343.556 431.573C343.61 431.573 343.663 431.585 343.711 431.61L344.611 432.13C344.671 432.18 344.681 432.26 344.611 432.31Z" fill="#3A2C6D"/>
<path d="M345.971 431.53L344.971 432.08C344.925 432.105 344.874 432.117 344.821 432.117C344.769 432.117 344.718 432.105 344.671 432.08L343.761 431.56C343.671 431.51 343.661 431.43 343.761 431.39L344.761 430.84C344.808 430.815 344.859 430.803 344.911 430.803C344.964 430.803 345.015 430.815 345.061 430.84L345.971 431.36C345.971 431.4 346.031 431.48 345.971 431.53Z" fill="#3A2C6D"/>
<path d="M347.302 430.75L346.302 431.3C346.255 431.322 346.204 431.334 346.152 431.334C346.1 431.334 346.049 431.322 346.002 431.3L345.092 430.77C345.002 430.72 344.992 430.64 345.092 430.6L346.042 430.05C346.088 430.025 346.14 430.013 346.192 430.013C346.244 430.013 346.296 430.025 346.342 430.05L347.252 430.57C347.372 430.63 347.382 430.7 347.302 430.75Z" fill="#3A2C6D"/>
<path d="M348.651 430L347.651 430.55C347.603 430.575 347.55 430.587 347.496 430.587C347.442 430.587 347.389 430.575 347.341 430.55L346.431 430.02C346.341 429.97 346.341 429.89 346.431 429.85L347.431 429.3C347.479 429.275 347.532 429.263 347.586 429.263C347.64 429.263 347.693 429.275 347.741 429.3L348.651 429.83C348.721 429.85 348.731 429.93 348.651 430Z" fill="#3A2C6D"/>
<path d="M349.972 429.19L348.972 429.74C348.925 429.765 348.874 429.777 348.822 429.777C348.769 429.777 348.718 429.765 348.672 429.74L347.762 429.22C347.672 429.16 347.662 429.09 347.762 429.04L348.762 428.49C348.81 428.468 348.863 428.456 348.917 428.456C348.97 428.456 349.023 428.468 349.072 428.49L349.972 429.02C350.062 429.07 350.072 429.15 349.972 429.19Z" fill="#3A2C6D"/>
<path d="M351.972 428L350.372 428.93C350.325 428.952 350.274 428.964 350.222 428.964C350.17 428.964 350.119 428.952 350.072 428.93L349.162 428.41C349.072 428.36 349.062 428.28 349.162 428.23L350.762 427.31C350.808 427.285 350.859 427.273 350.912 427.273C350.964 427.273 351.015 427.285 351.062 427.31L351.972 427.84C352.062 427.92 352.072 428 351.972 428Z" fill="#3A2C6D"/>
<path d="M337.131 438.13L336.131 438.68C336.084 438.702 336.033 438.714 335.981 438.714C335.929 438.714 335.878 438.702 335.831 438.68L334.921 438.15C334.831 438.1 334.821 438.02 334.921 437.98L335.921 437.43C335.967 437.405 336.019 437.393 336.071 437.393C336.123 437.393 336.175 437.405 336.221 437.43L337.131 437.95C337.201 438 337.211 438.08 337.131 438.13Z" fill="#3A2C6D"/>
<path d="M338.481 437.35L337.481 437.9C337.432 437.922 337.379 437.934 337.326 437.934C337.272 437.934 337.219 437.922 337.171 437.9L336.271 437.37C336.181 437.32 336.171 437.24 336.271 437.2L337.271 436.65C337.317 436.625 337.368 436.613 337.421 436.613C337.473 436.613 337.525 436.625 337.571 436.65L338.481 437.18C338.551 437.23 338.561 437.31 338.481 437.35Z" fill="#3A2C6D"/>
<path d="M339.832 436.57L338.832 437.12C338.784 437.145 338.731 437.157 338.677 437.157C338.623 437.157 338.57 437.145 338.522 437.12L337.622 436.59C337.532 436.54 337.522 436.46 337.622 436.42L338.622 435.87C338.669 435.845 338.72 435.833 338.772 435.833C338.825 435.833 338.876 435.845 338.922 435.87L339.832 436.4C339.902 436.45 339.912 436.53 339.832 436.57Z" fill="#3A2C6D"/>
<path d="M341.182 435.79L340.232 436.34C340.184 436.365 340.131 436.377 340.077 436.377C340.023 436.377 339.97 436.365 339.922 436.34L339.022 435.81C338.932 435.76 338.922 435.68 339.022 435.64L340.022 435.09C340.068 435.065 340.12 435.053 340.172 435.053C340.224 435.053 340.276 435.065 340.322 435.09L341.232 435.62C341.252 435.67 341.262 435.75 341.182 435.79Z" fill="#3A2C6D"/>
<path d="M342.522 435L341.522 435.55C341.473 435.572 341.42 435.584 341.367 435.584C341.313 435.584 341.26 435.572 341.212 435.55L340.312 435.02C340.222 435.02 340.212 434.89 340.312 434.85L341.312 434.3C341.358 434.275 341.41 434.263 341.462 434.263C341.514 434.263 341.566 434.275 341.612 434.3L342.522 434.82C342.592 434.9 342.602 435 342.522 435Z" fill="#3A2C6D"/>
<path d="M343.872 434.24L342.872 434.79C342.824 434.812 342.771 434.824 342.717 434.824C342.664 434.824 342.611 434.812 342.562 434.79L341.662 434.26C341.572 434.21 341.562 434.13 341.662 434.09L342.662 433.54C342.708 433.515 342.76 433.503 342.812 433.503C342.865 433.503 342.916 433.515 342.962 433.54L343.872 434.06C343.972 434.12 343.972 434.19 343.872 434.24Z" fill="#3A2C6D"/>
<path d="M345.221 433.46L344.221 434.01C344.172 434.032 344.12 434.044 344.066 434.044C344.013 434.044 343.96 434.032 343.911 434.01L343.011 433.48C342.921 433.43 342.911 433.35 343.011 433.31L344.011 432.76C344.057 432.735 344.109 432.723 344.161 432.723C344.213 432.723 344.265 432.735 344.311 432.76L345.221 433.28C345.291 433.34 345.301 433.41 345.221 433.46Z" fill="#3A2C6D"/>
<path d="M346.571 432.68L345.621 433.23C345.572 433.252 345.519 433.264 345.466 433.264C345.412 433.264 345.359 433.252 345.311 433.23L344.401 432.7C344.321 432.65 344.311 432.57 344.401 432.53L345.401 431.98C345.447 431.955 345.498 431.943 345.551 431.943C345.603 431.943 345.655 431.955 345.701 431.98L346.611 432.51C346.641 432.56 346.651 432.64 346.571 432.68Z" fill="#3A2C6D"/>
<path d="M347.922 431.9L346.922 432.45C346.874 432.475 346.821 432.487 346.767 432.487C346.713 432.487 346.66 432.475 346.612 432.45L345.702 431.92C345.622 431.87 345.612 431.79 345.702 431.75L346.652 431.2C346.7 431.175 346.753 431.163 346.807 431.163C346.861 431.163 346.914 431.175 346.962 431.2L347.872 431.73C347.972 431.78 347.972 431.86 347.922 431.9Z" fill="#3A2C6D"/>
<path d="M349.272 431.12L348.272 431.67C348.224 431.695 348.171 431.707 348.117 431.707C348.063 431.707 348.01 431.695 347.962 431.67L347.052 431.14C346.962 431.09 346.962 431.01 347.052 430.97L348.052 430.42C348.1 430.398 348.153 430.386 348.207 430.386C348.26 430.386 348.313 430.398 348.362 430.42L349.272 430.95C349.342 431 349.352 431.08 349.272 431.12Z" fill="#3A2C6D"/>
<path d="M350.621 430.34L349.621 430.89C349.573 430.915 349.52 430.927 349.466 430.927C349.413 430.927 349.359 430.915 349.311 430.89L348.401 430.37C348.311 430.31 348.311 430.23 348.401 430.19L349.401 429.64C349.45 429.618 349.503 429.606 349.556 429.606C349.61 429.606 349.663 429.618 349.711 429.64L350.621 430.17C350.691 430.22 350.701 430.3 350.621 430.34Z" fill="#3A2C6D"/>
<path d="M351.971 429.56L350.971 430.11C350.923 430.135 350.87 430.147 350.816 430.147C350.762 430.147 350.709 430.135 350.661 430.11L349.751 429.59C349.661 429.53 349.651 429.46 349.751 429.41L350.751 428.86C350.8 428.838 350.853 428.826 350.906 428.826C350.96 428.826 351.012 428.838 351.061 428.86L351.971 429.39C352.041 429.44 352.051 429.52 351.971 429.56Z" fill="#3A2C6D"/>
<path d="M335.782 438.91L334.182 439.83C334.135 439.855 334.084 439.867 334.032 439.867C333.979 439.867 333.928 439.855 333.882 439.83L332.972 439.31C332.882 439.25 332.872 439.18 332.972 439.13L334.572 438.21C334.618 438.185 334.669 438.173 334.722 438.173C334.774 438.173 334.825 438.185 334.872 438.21L335.782 438.73C335.852 438.79 335.862 438.86 335.782 438.91Z" fill="#3A2C6D"/>
<path d="M352.082 428.08L351.082 428.63C351.061 428.63 351.041 428.638 351.026 428.653C351.011 428.668 351.002 428.689 351.002 428.71C351.002 428.731 351.011 428.752 351.026 428.767C351.041 428.782 351.061 428.79 351.082 428.79L352.082 429.35C352.126 429.37 352.174 429.38 352.222 429.38C352.271 429.38 352.318 429.37 352.362 429.35L352.442 429.3C352.483 429.28 352.527 429.27 352.572 429.27C352.617 429.27 352.662 429.28 352.702 429.3L353.702 429.89C353.746 429.91 353.794 429.92 353.842 429.92C353.891 429.92 353.938 429.91 353.982 429.89L354.592 429.54C354.672 429.49 354.672 429.42 354.592 429.38L353.592 428.83L353.392 428.72L353.252 428.63L353.112 428.55L352.292 428.08C352.225 428.053 352.15 428.053 352.082 428.08Z" fill="#3A2C6D"/>
<path d="M339.052 441.54L338.052 442.09C338.006 442.115 337.954 442.127 337.902 442.127C337.85 442.127 337.798 442.115 337.752 442.09L336.842 441.57C336.752 441.51 336.742 441.44 336.842 441.39L337.792 440.84C337.839 440.818 337.89 440.806 337.942 440.806C337.994 440.806 338.045 440.818 338.092 440.84L339.002 441.37C339.122 441.42 339.132 441.5 339.052 441.54Z" fill="#3A2C6D"/>
<path d="M340.401 440.77L339.401 441.32C339.353 441.345 339.3 441.357 339.246 441.357C339.192 441.357 339.139 441.345 339.091 441.32L338.191 440.8C338.101 440.8 338.091 440.67 338.191 440.62L339.191 440.08C339.237 440.055 339.288 440.043 339.341 440.043C339.393 440.043 339.445 440.055 339.491 440.08L340.401 440.6C340.471 440.64 340.481 440.72 340.401 440.77Z" fill="#3A2C6D"/>
<path d="M341.741 440L340.741 440.55C340.694 440.575 340.643 440.587 340.591 440.587C340.538 440.587 340.487 440.575 340.441 440.55L339.531 440.02C339.441 439.97 339.431 439.89 339.531 439.85L340.531 439.3C340.577 439.275 340.628 439.263 340.681 439.263C340.733 439.263 340.784 439.275 340.831 439.3L341.741 439.83C341.811 439.87 341.821 440 341.741 440Z" fill="#3A2C6D"/>
<path d="M353.191 433.38L352.191 433.93C352.145 433.955 352.094 433.967 352.041 433.967C351.989 433.967 351.938 433.955 351.891 433.93L350.981 433.41C350.891 433.41 350.881 433.28 350.981 433.23L351.981 432.68C352.029 432.655 352.083 432.643 352.136 432.643C352.19 432.643 352.243 432.655 352.291 432.68L353.191 433.2C353.251 433.26 353.261 433.34 353.191 433.38Z" fill="#3A2C6D"/>
<path d="M354.532 432.61L353.532 433.16C353.483 433.182 353.43 433.194 353.377 433.194C353.323 433.194 353.27 433.182 353.222 433.16L352.322 432.63C352.232 432.58 352.222 432.5 352.322 432.46L353.322 431.91C353.368 431.885 353.419 431.873 353.472 431.873C353.524 431.873 353.575 431.885 353.622 431.91L354.532 432.43C354.602 432.49 354.612 432.56 354.532 432.61Z" fill="#3A2C6D"/>
<path d="M355.872 431.83L354.872 432.38C354.826 432.405 354.775 432.417 354.722 432.417C354.67 432.417 354.618 432.405 354.572 432.38L353.662 431.86C353.572 431.8 353.562 431.73 353.662 431.68L354.662 431.13C354.709 431.108 354.76 431.096 354.812 431.096C354.864 431.096 354.915 431.108 354.962 431.13L355.872 431.66C355.972 431.71 355.972 431.79 355.872 431.83Z" fill="#3A2C6D"/>
<path d="M357.221 431.06L356.221 431.61C356.175 431.635 356.123 431.647 356.071 431.647C356.018 431.647 355.967 431.635 355.921 431.61L355.011 431.09C354.921 431.04 354.911 430.96 355.011 430.91L356.011 430.37C356.059 430.345 356.112 430.333 356.166 430.333C356.22 430.333 356.273 430.345 356.321 430.37L357.221 430.89C357.281 430.93 357.291 431 357.221 431.06Z" fill="#3A2C6D"/>
<path d="M343.432 439L342.132 439.74C342.086 439.765 342.034 439.777 341.982 439.777C341.93 439.777 341.878 439.765 341.832 439.74L340.922 439.22C340.832 439.17 340.822 439.09 340.922 439.04L342.222 438.29C342.268 438.265 342.32 438.253 342.372 438.253C342.424 438.253 342.476 438.265 342.522 438.29L343.432 438.81C343.502 438.89 343.512 439 343.432 439Z" fill="#3A2C6D"/>
<path d="M351.842 434.16L350.542 434.91C350.495 434.932 350.444 434.944 350.392 434.944C350.34 434.944 350.289 434.932 350.242 434.91L349.332 434.38C349.242 434.33 349.232 434.25 349.332 434.21L350.632 433.46C350.678 433.435 350.73 433.423 350.782 433.423C350.834 433.423 350.886 433.435 350.932 433.46L351.842 433.99C351.912 434 351.922 434.12 351.842 434.16Z" fill="#3A2C6D"/>
<path d="M350.151 435.14L343.821 438.79C343.774 438.812 343.723 438.824 343.671 438.824C343.619 438.824 343.568 438.812 343.521 438.79L342.611 438.26C342.521 438.21 342.511 438.13 342.611 438.09L348.941 434.43C348.987 434.405 349.038 434.393 349.091 434.393C349.143 434.393 349.195 434.405 349.241 434.43L350.151 434.95C350.221 435 350.231 435.09 350.151 435.14Z" fill="#3A2C6D"/>
<path d="M338.802 438.67L337.802 439.22C337.756 439.245 337.704 439.257 337.652 439.257C337.6 439.257 337.548 439.245 337.502 439.22L336.592 438.69C336.502 438.64 336.492 438.56 336.592 438.52L337.542 437.97C337.589 437.948 337.64 437.936 337.692 437.936C337.744 437.936 337.795 437.948 337.842 437.97L338.752 438.5C338.872 438.55 338.882 438.63 338.802 438.67Z" fill="#3A2C6D"/>
<path d="M340.151 437.89L339.151 438.44C339.103 438.465 339.05 438.477 338.996 438.477C338.942 438.477 338.889 438.465 338.841 438.44L337.941 437.92C337.851 437.87 337.841 437.79 337.941 437.74L338.941 437.19C338.987 437.165 339.038 437.153 339.091 437.153C339.143 437.153 339.195 437.165 339.241 437.19L340.151 437.71C340.221 437.77 340.231 437.85 340.151 437.89Z" fill="#3A2C6D"/>
<path d="M341.491 437.12L340.491 437.67C340.444 437.695 340.393 437.707 340.341 437.707C340.288 437.707 340.237 437.695 340.191 437.67L339.281 437.15C339.191 437.1 339.181 437.02 339.281 436.98L340.281 436.43C340.327 436.405 340.378 436.393 340.431 436.393C340.483 436.393 340.534 436.405 340.581 436.43L341.491 436.95C341.561 437 341.571 437.07 341.491 437.12Z" fill="#3A2C6D"/>
<path d="M342.842 436.34L341.842 436.89C341.796 436.915 341.744 436.927 341.692 436.927C341.64 436.927 341.588 436.915 341.542 436.89L340.632 436.36C340.542 436.31 340.532 436.23 340.632 436.19L341.632 435.64C341.678 435.615 341.73 435.603 341.782 435.603C341.834 435.603 341.886 435.615 341.932 435.64L342.842 436.17C342.912 436.22 342.922 436.3 342.842 436.34Z" fill="#3A2C6D"/>
<path d="M344.192 435.56L343.192 436.11C343.146 436.135 343.094 436.147 343.042 436.147C342.99 436.147 342.938 436.135 342.892 436.11L341.982 435.59C341.892 435.53 341.882 435.46 341.982 435.41L342.982 434.86C343.031 434.838 343.084 434.826 343.137 434.826C343.191 434.826 343.244 434.838 343.292 434.86L344.202 435.39C344.252 435.44 344.262 435.52 344.192 435.56Z" fill="#3A2C6D"/>
<path d="M345.532 434.79L344.532 435.34C344.485 435.365 344.434 435.377 344.382 435.377C344.329 435.377 344.278 435.365 344.232 435.34L343.322 434.82C343.232 434.77 343.222 434.69 343.322 434.64L344.322 434.09C344.368 434.068 344.42 434.056 344.472 434.056C344.523 434.056 344.575 434.068 344.622 434.09L345.532 434.61C345.602 434.66 345.612 434.74 345.532 434.79Z" fill="#3A2C6D"/>
<path d="M346.882 434L345.882 434.55C345.833 434.572 345.78 434.584 345.727 434.584C345.673 434.584 345.62 434.572 345.572 434.55L344.672 434.02C344.582 434.02 344.572 433.89 344.672 433.85L345.672 433.3C345.718 433.275 345.769 433.263 345.822 433.263C345.874 433.263 345.926 433.275 345.972 433.3L346.882 433.82C346.972 433.89 346.972 434 346.882 434Z" fill="#3A2C6D"/>
<path d="M348.221 433.23L347.221 433.78C347.175 433.805 347.123 433.817 347.071 433.817C347.019 433.817 346.967 433.805 346.921 433.78L346.011 433.25C345.921 433.2 345.911 433.12 346.011 433.08L347.011 432.53C347.058 432.508 347.109 432.496 347.161 432.496C347.213 432.496 347.264 432.508 347.311 432.53L348.221 433.06C348.291 433.11 348.301 433.19 348.221 433.23Z" fill="#3A2C6D"/>
<path d="M349.571 432.45L348.621 433C348.574 433.025 348.523 433.037 348.471 433.037C348.418 433.037 348.367 433.025 348.321 433L347.411 432.48C347.321 432.43 347.311 432.35 347.411 432.3L348.411 431.75C348.457 431.725 348.508 431.713 348.561 431.713C348.613 431.713 348.664 431.725 348.711 431.75L349.621 432.27C349.641 432.33 349.651 432.41 349.571 432.45Z" fill="#3A2C6D"/>
<path d="M350.922 431.68L349.922 432.23C349.874 432.255 349.821 432.267 349.767 432.267C349.713 432.267 349.66 432.255 349.612 432.23L348.702 431.71C348.612 431.66 348.602 431.58 348.702 431.54L349.652 430.99C349.7 430.965 349.753 430.953 349.807 430.953C349.861 430.953 349.914 430.965 349.962 430.99L350.872 431.51C350.972 431.55 350.972 431.63 350.922 431.68Z" fill="#3A2C6D"/>
<path d="M352.262 430.9L351.262 431.45C351.216 431.475 351.164 431.487 351.112 431.487C351.06 431.487 351.008 431.475 350.962 431.45L350.052 430.92C349.962 430.87 349.952 430.79 350.052 430.75L351.052 430.2C351.098 430.175 351.15 430.163 351.202 430.163C351.254 430.163 351.306 430.175 351.352 430.2L352.262 430.73C352.332 430.78 352.342 430.86 352.262 430.9Z" fill="#3A2C6D"/>
<path d="M353.612 430.12L352.612 430.67C352.564 430.695 352.511 430.707 352.457 430.707C352.403 430.707 352.35 430.695 352.302 430.67L351.402 430.15C351.312 430.09 351.302 430.02 351.402 429.97L352.402 429.42C352.449 429.398 352.5 429.386 352.552 429.386C352.604 429.386 352.655 429.398 352.702 429.42L353.612 429.95C353.682 430 353.692 430.08 353.612 430.12Z" fill="#3A2C6D"/>
<path d="M337.461 439.45L335.461 440.59C335.414 440.612 335.363 440.624 335.311 440.624C335.259 440.624 335.208 440.612 335.161 440.59L334.251 440.07C334.161 440.02 334.151 439.94 334.251 439.89L336.251 438.76C336.299 438.735 336.352 438.723 336.406 438.723C336.46 438.723 336.513 438.735 336.561 438.76L337.461 439.28C337.521 439.33 337.531 439.4 337.461 439.45Z" fill="#3A2C6D"/>
<path d="M339.44 439.81L338.44 440.36C338.394 440.385 338.343 440.397 338.29 440.397C338.238 440.397 338.187 440.385 338.14 440.36L337.23 439.83C337.14 439.78 337.13 439.7 337.23 439.66L338.18 439.11C338.227 439.088 338.279 439.076 338.33 439.076C338.382 439.076 338.434 439.088 338.48 439.11L339.39 439.64C339.51 439.69 339.52 439.77 339.44 439.81Z" fill="#3A2C6D"/>
<path d="M340.791 439L339.791 439.55C339.745 439.575 339.693 439.587 339.641 439.587C339.589 439.587 339.537 439.575 339.491 439.55L338.581 439.03C338.491 438.98 338.481 438.9 338.581 438.85L339.581 438.3C339.629 438.275 339.682 438.263 339.736 438.263C339.79 438.263 339.843 438.275 339.891 438.3L340.791 438.82C340.851 438.91 340.861 439 340.791 439Z" fill="#3A2C6D"/>
<path d="M342.131 438.26L341.131 438.81C341.085 438.835 341.033 438.847 340.981 438.847C340.929 438.847 340.877 438.835 340.831 438.81L339.921 438.29C339.831 438.29 339.821 438.16 339.921 438.12L340.921 437.57C340.967 437.545 341.019 437.533 341.071 437.533C341.123 437.533 341.175 437.545 341.221 437.57L342.131 438.09C342.201 438.13 342.211 438.21 342.131 438.26Z" fill="#3A2C6D"/>
<path d="M343.481 437.48L342.481 438.03C342.433 438.055 342.38 438.067 342.326 438.067C342.272 438.067 342.219 438.055 342.171 438.03L341.261 437.5C341.181 437.45 341.171 437.37 341.261 437.33L342.261 436.78C342.309 436.755 342.362 436.743 342.416 436.743C342.47 436.743 342.523 436.755 342.571 436.78L343.481 437.31C343.551 437.36 343.561 437.44 343.481 437.48Z" fill="#3A2C6D"/>
<path d="M344.821 436.7L343.871 437.25C343.824 437.275 343.773 437.287 343.721 437.287C343.668 437.287 343.617 437.275 343.571 437.25L342.661 436.73C342.571 436.67 342.561 436.6 342.661 436.55L343.661 436C343.708 435.978 343.759 435.966 343.811 435.966C343.863 435.966 343.914 435.978 343.961 436L344.871 436.53C344.891 436.58 344.901 436.66 344.821 436.7Z" fill="#3A2C6D"/>
<path d="M346.172 435.93L345.172 436.48C345.124 436.505 345.071 436.517 345.017 436.517C344.963 436.517 344.91 436.505 344.862 436.48L343.962 435.96C343.872 435.91 343.862 435.83 343.962 435.78L344.962 435.23C345.009 435.208 345.06 435.197 345.112 435.197C345.164 435.197 345.215 435.208 345.262 435.23L346.172 435.75C346.242 435.8 346.252 435.88 346.172 435.93Z" fill="#3A2C6D"/>
<path d="M347.521 435.15L346.521 435.7C346.475 435.722 346.423 435.734 346.371 435.734C346.32 435.734 346.268 435.722 346.221 435.7L345.311 435.17C345.221 435.12 345.211 435.04 345.311 435L346.311 434.45C346.359 434.425 346.413 434.413 346.466 434.413C346.52 434.413 346.574 434.425 346.621 434.45L347.521 434.97C347.581 435 347.591 435.1 347.521 435.15Z" fill="#3A2C6D"/>
<path d="M348.861 434.37L347.861 434.92C347.815 434.945 347.763 434.957 347.711 434.957C347.659 434.957 347.607 434.945 347.561 434.92L346.651 434.4C346.561 434.34 346.551 434.27 346.651 434.22L347.651 433.67C347.698 433.648 347.749 433.636 347.801 433.636C347.853 433.636 347.904 433.648 347.951 433.67L348.861 434.2C348.971 434.25 348.971 434.33 348.861 434.37Z" fill="#3A2C6D"/>
<path d="M350.211 433.6L349.261 434.15C349.212 434.172 349.159 434.183 349.106 434.183C349.052 434.183 348.999 434.172 348.951 434.15L348.041 433.63C347.951 433.58 347.941 433.5 348.041 433.45L349.041 432.9C349.088 432.875 349.142 432.863 349.196 432.863C349.249 432.863 349.303 432.875 349.351 432.9L350.261 433.42C350.271 433.47 350.281 433.55 350.211 433.6Z" fill="#3A2C6D"/>
<path d="M351.552 432.82L350.552 433.37C350.505 433.392 350.454 433.404 350.402 433.404C350.35 433.404 350.299 433.392 350.252 433.37L349.342 432.84C349.252 432.79 349.242 432.71 349.342 432.67L350.292 432.12C350.338 432.095 350.39 432.083 350.442 432.083C350.494 432.083 350.546 432.095 350.592 432.12L351.502 432.64C351.622 432.7 351.632 432.77 351.552 432.82Z" fill="#3A2C6D"/>
<path d="M352.901 432L351.901 432.55C351.853 432.575 351.8 432.587 351.746 432.587C351.692 432.587 351.639 432.575 351.591 432.55L350.691 432.02C350.601 431.97 350.591 431.89 350.691 431.85L351.691 431.3C351.738 431.278 351.789 431.266 351.841 431.266C351.893 431.266 351.944 431.278 351.991 431.3L352.901 431.83C352.971 431.92 352.971 432 352.901 432Z" fill="#3A2C6D"/>
<path d="M355.912 430.3L353.292 431.81C353.246 431.835 353.194 431.847 353.142 431.847C353.09 431.847 353.038 431.835 352.992 431.81L352.082 431.29C351.992 431.29 351.982 431.16 352.082 431.11L354.702 429.6C354.749 429.578 354.8 429.566 354.852 429.566C354.904 429.566 354.955 429.578 355.002 429.6L355.912 430.13C355.972 430.18 355.972 430.26 355.912 430.3Z" fill="#3A2C6D"/>
<path d="M338.091 440.59L336.801 441.34C336.752 441.362 336.699 441.374 336.646 441.374C336.592 441.374 336.54 441.362 336.491 441.34L335.591 440.81C335.501 440.76 335.491 440.68 335.591 440.64L336.891 439.89C336.937 439.865 336.989 439.853 337.041 439.853C337.093 439.853 337.145 439.865 337.191 439.89L338.101 440.41C338.161 440.47 338.171 440.54 338.091 440.59Z" fill="#3A2C6D"/>
<path d="M328.232 437.91L349.832 425.44V408.44L349.662 408.06L349.482 407.97C349.255 407.842 348.998 407.775 348.737 407.775C348.476 407.775 348.219 407.842 347.992 407.97L328.232 419.39C328.004 419.519 327.814 419.707 327.683 419.934C327.551 420.16 327.482 420.418 327.482 420.68V436.61C327.622 437.45 327.772 437.65 328.232 437.91Z" fill="#E5E5E5"/>
<path d="M330.212 421.45L349.832 409V408.43L349.662 408.05L349.482 407.96C349.255 407.832 348.998 407.765 348.737 407.765C348.476 407.765 348.219 407.832 347.992 407.96L328.232 419.38C327.99 419.515 327.792 419.716 327.662 419.96L330.212 421.45Z" fill="#E5E5E5"/>
<path d="M349.332 408.07L328.592 420.07C328.482 420.132 328.391 420.222 328.328 420.331C328.265 420.44 328.232 420.564 328.232 420.69V437.93L349.832 425.46V408.36C349.833 408.301 349.819 408.243 349.79 408.191C349.761 408.14 349.719 408.097 349.668 408.067C349.617 408.038 349.558 408.022 349.499 408.023C349.44 408.023 349.383 408.04 349.332 408.07Z" fill="#DCEEFF"/>
<path d="M349.332 408.07L328.592 420.07C328.482 420.132 328.391 420.222 328.328 420.331C328.265 420.44 328.232 420.564 328.232 420.69V437.93L349.832 425.46V408.36C349.833 408.301 349.819 408.243 349.79 408.191C349.761 408.14 349.719 408.097 349.668 408.067C349.617 408.038 349.558 408.022 349.499 408.023C349.44 408.023 349.383 408.04 349.332 408.07Z" fill="#F4F4F4"/>
<path d="M328.232 437.91V437.3L349.832 424.82V425.44L328.232 437.91Z" fill="#DBDBDB"/>
<path d="M349.271 424.54V408.96L349.001 409.11V424.4L349.271 424.54Z" fill="#1E3779"/>
<path d="M349.002 409.11V424.4L328.922 435.97V420.71L349.002 409.11Z" fill="#3A2C6D"/>
<path d="M349.271 424.54L328.921 436.28V435.97L349.001 424.4L349.271 424.54Z" fill="#031F60"/>
<path d="M372.531 405.37C373.041 406.65 371.731 408.21 368.251 409.31C364.771 410.41 364.451 409 364.451 409C362.132 410.035 359.872 411.197 357.681 412.48C355.591 413.95 354.681 418.17 354.391 425.31C354.061 433.57 354.031 445.83 354.311 447.94C354.311 447.94 358.211 451.84 363.211 451.43C368.211 451.02 376.621 446.59 378.661 443.18C378.661 435.93 377.761 434.75 378.931 430.58C381.621 421.03 383.031 417.12 381.731 410.77C380.651 405.54 379.141 404.89 377.081 404.94C375.558 405.002 374.039 405.145 372.531 405.37Z" fill="#F4F4F4"/>
<path d="M346.161 434.17C350.271 435.17 351.231 432.62 351.771 430.47C353.071 425.29 353.771 420.6 354.771 417.66C355.921 414.19 357.121 413.66 358.771 412.96C360.771 412.17 362.461 413.84 361.771 418.26C360.964 423.388 359.706 428.434 358.011 433.34C357.501 434.96 356.351 437.83 354.641 439.21C352.521 440.92 349.341 440.85 344.511 439.65C342.511 439.14 340.201 437.91 336.311 436.09C335.311 435.61 334.451 435.28 332.451 434.35C330.434 433.456 328.666 432.083 327.301 430.35C326.251 428.83 326.111 428.12 326.301 427.77C326.491 427.42 327.041 427.43 327.601 428.07C328.423 429.158 329.44 430.084 330.601 430.8C330.601 430.8 329.301 429.47 328.601 428.6C327.966 427.831 327.444 426.976 327.051 426.06C326.671 425.17 327.441 423.97 328.051 424.6C328.661 425.23 328.911 425.88 329.971 427.15C330.527 427.83 331.165 428.438 331.871 428.96C331.212 428.069 330.627 427.126 330.121 426.14C329.664 425.374 329.441 424.491 329.481 423.6C329.481 423.13 330.161 422.6 330.781 423.46C331.374 424.669 332.113 425.8 332.981 426.83C333.921 427.83 334.711 428.36 334.741 428.09C334.771 427.82 334.171 427.29 333.841 426.16C333.511 425.03 333.841 423.82 334.461 423.69C335.081 423.56 334.971 423.6 335.461 424.69C336.153 425.779 336.775 426.911 337.321 428.08C337.641 429.169 338.221 430.165 339.011 430.98C340.031 432 342.261 433.19 346.161 434.17Z" fill="#FFCEA9"/>
<path d="M360.301 412.25C357.561 411.85 355.631 413.08 354.421 417.25C353.211 421.42 352.361 424.81 352.361 424.81C353.456 426.355 355.097 427.427 356.951 427.81C360.231 428.6 361.411 427.04 361.411 427.04C361.411 427.04 362.321 422.68 362.881 419.72C363.441 416.76 363.691 412.75 360.301 412.25Z" fill="#EDEDED"/>
<path d="M358.97 391C358.97 391 354.64 384.42 363.97 383.08C370.74 382.08 375.08 386.46 375.59 391.17C376.07 395.68 373.29 400.36 371.29 402.22C369.319 402.712 367.236 402.459 365.44 401.51C365.328 400.283 365.284 399.051 365.31 397.82C365.31 397.82 368.64 390.88 358.97 391Z" fill="#3A2C6D"/>
<path d="M340.181 474.26V454.5L355.871 463.66L349.831 476.16L340.181 474.26Z" fill="#C4C7D6"/>
<path d="M350.461 455.64L344.441 452.14L340.181 454.61L346.421 458.15L350.461 455.64Z" fill="#D6D8E5"/>
<path opacity="0.4" d="M426.221 345.63L452.971 329.94C455.971 328.16 455.631 325.05 452.121 323L438.521 315C435.011 313 429.711 312.73 426.671 314.51L399.881 330.2C396.881 331.97 397.231 335.08 400.731 337.14L414.331 345.14C417.881 347.19 423.191 347.41 426.221 345.63Z" fill="#D6D8E5"/>
<path d="M392.971 330.16V292.23L450.191 285.7V323.87C450.18 324.523 449.987 325.16 449.634 325.71C449.281 326.259 448.781 326.699 448.191 326.98L421.371 342.67C418.371 344.45 413.021 344.23 409.521 342.17L395.921 334.17C393.921 333.01 392.921 331.52 393.021 330.17L392.971 330.16Z" fill="#D6D8E5"/>
<path d="M393.031 296.37V292.23H397.431L421.851 277.91C424.851 276.13 430.201 276.36 433.701 278.41L447.301 286.41C447.547 286.549 447.784 286.703 448.011 286.87L450.191 285.7C450.191 285.7 450.191 290.07 450.191 290.22C450.176 290.871 449.982 291.505 449.629 292.052C449.276 292.599 448.778 293.038 448.191 293.32L421.371 309C418.371 310.78 413.021 310.55 409.521 308.5L395.921 300.5C393.921 299.31 392.921 297.77 393.031 296.33V296.37Z" fill="#EDF0F9"/>
<path d="M421.371 304.5L448.151 288.81C451.151 287.03 450.811 283.92 447.301 281.87L433.701 273.87C430.201 271.87 424.891 271.59 421.851 273.37L395.061 289.06C392.061 290.84 392.411 293.95 395.921 296L409.521 304C412.971 306.05 418.331 306.28 421.371 304.5Z" fill="#E2E5F2"/>
<path d="M427.4 283.08V281.57H428.31L428.6 281.39C429.495 280.927 430.488 280.685 431.495 280.685C432.503 280.685 433.495 280.927 434.39 281.39C434.561 281.487 434.722 281.601 434.87 281.73L435.58 281.57V283.08C435.556 283.445 435.433 283.797 435.223 284.096C435.013 284.396 434.725 284.633 434.39 284.78C433.494 285.238 432.502 285.477 431.495 285.477C430.489 285.477 429.496 285.238 428.6 284.78C428.268 284.627 427.983 284.389 427.772 284.091C427.562 283.792 427.433 283.444 427.4 283.08Z" fill="#B80000"/>
<path d="M431.49 283.97C429.231 283.97 427.4 282.895 427.4 281.57C427.4 280.245 429.231 279.17 431.49 279.17C433.749 279.17 435.58 280.245 435.58 281.57C435.58 282.895 433.749 283.97 431.49 283.97Z" fill="#C90921"/>
<path d="M417.521 288.77V287.26H418.431L418.711 287.08C419.606 286.617 420.599 286.375 421.606 286.375C422.614 286.375 423.606 286.617 424.501 287.08C424.677 287.174 424.841 287.289 424.991 287.42L425.701 287.26V288.77C425.668 289.134 425.54 289.482 425.329 289.781C425.118 290.079 424.833 290.317 424.501 290.47C423.605 290.928 422.613 291.167 421.606 291.167C420.6 291.167 419.607 290.928 418.711 290.47C418.376 290.323 418.088 290.086 417.878 289.786C417.669 289.487 417.545 289.135 417.521 288.77Z" fill="#B80000"/>
<path d="M421.611 289.66C419.352 289.66 417.521 288.585 417.521 287.26C417.521 285.935 419.352 284.86 421.611 284.86C423.87 284.86 425.701 285.935 425.701 287.26C425.701 288.585 423.87 289.66 421.611 289.66Z" fill="#C90921"/>
<path d="M407.621 294.85V293.34H408.541L408.821 293.16C409.715 292.697 410.708 292.455 411.716 292.455C412.723 292.455 413.716 292.697 414.611 293.16C414.784 293.258 414.948 293.372 415.101 293.5L415.811 293.34V294.85C415.779 295.214 415.652 295.564 415.441 295.863C415.23 296.161 414.943 296.399 414.611 296.55C413.716 297.013 412.723 297.255 411.716 297.255C410.708 297.255 409.715 297.013 408.821 296.55C408.488 296.399 408.201 296.161 407.99 295.863C407.779 295.564 407.652 295.214 407.621 294.85Z" fill="#B80000"/>
<path d="M411.721 295.74C409.462 295.74 407.631 294.665 407.631 293.34C407.631 292.015 409.462 290.94 411.721 290.94C413.979 290.94 415.811 292.015 415.811 293.34C415.811 294.665 413.979 295.74 411.721 295.74Z" fill="#C90921"/>
</svg>
