<svg width="48" height="48" viewBox="0 0 48 48" fill="none" xmlns="http://www.w3.org/2000/svg">
<path d="M44.012 8.62207H26.5546C25.188 8.62207 24.0764 9.73367 24.0764 11.1002V13.1828H4.52448C2.76956 13.1828 1.3418 14.6105 1.3418 16.3659V31.0611C1.3418 32.8155 2.76956 34.2428 4.52448 34.2428H7.58137V40.4054C7.58137 40.6895 7.74878 40.9464 8.0085 41.0616C8.10177 41.1028 8.20031 41.1229 8.29836 41.1229C8.47342 41.1229 8.64657 41.0588 8.78098 40.9363L16.1484 34.2428H28.9691C30.7235 34.2428 32.1513 32.8155 32.1513 31.0611V24.073H35.63L40.8326 28.7992C40.9675 28.9216 41.1402 28.9857 41.3153 28.9857C41.4133 28.9857 41.5123 28.9656 41.6056 28.9245C41.8653 28.8097 42.0327 28.5524 42.0327 28.2682V24.073H44.0115C45.3771 24.073 46.4882 22.9609 46.4882 21.5944V11.1002C46.4887 9.73367 45.378 8.62207 44.012 8.62207ZM30.7168 31.0606C30.7168 32.0239 29.9329 32.8074 28.9696 32.8074H15.8715C15.6931 32.8074 15.5213 32.8739 15.3889 32.994L9.01583 38.7839V33.5249C9.01583 33.1284 8.69488 32.8074 8.29836 32.8074H4.524C3.56021 32.8074 2.77625 32.0239 2.77625 31.0606V16.3655C2.77625 15.4017 3.56021 14.6172 4.524 14.6172H24.7867C24.7891 14.6172 24.7915 14.6177 24.7939 14.6177C24.7963 14.6177 24.7987 14.6172 24.8011 14.6172H28.9696C29.9334 14.6172 30.7168 15.4017 30.7168 16.3655V31.0606ZM45.0537 21.5944C45.0537 22.1698 44.5864 22.638 44.012 22.638H41.3157C40.9197 22.638 40.5983 22.959 40.5983 23.3555V26.6472L36.3901 22.8246C36.2581 22.705 36.0859 22.638 35.9075 22.638H32.1513V16.3659C32.1513 14.611 30.7235 13.1828 28.9691 13.1828H25.5114V11.1002C25.5114 10.5248 25.9796 10.057 26.5546 10.057H44.012C44.5864 10.057 45.0537 10.5248 45.0537 11.1002V21.5944Z" fill="#231F20"/>
</svg>
