<svg width="48" height="48" viewBox="0 0 48 48" fill="none" xmlns="http://www.w3.org/2000/svg">
<path d="M23.488 24.1246C17.6684 24.1246 12.9336 28.859 12.9336 34.6786C12.9336 35.0746 13.2545 35.396 13.6511 35.396H33.3245C33.7205 35.396 34.042 35.0746 34.042 34.6786C34.042 28.859 29.3072 24.1246 23.488 24.1246ZM14.3967 33.9611C14.7641 29.267 18.7016 25.5596 23.488 25.5596C28.2745 25.5596 32.2119 29.267 32.5788 33.9611H14.3967Z" fill="black"/>
<path d="M23.3152 23.177C26.7318 23.177 29.5112 20.3975 29.5112 16.981C29.5112 13.5644 26.7313 10.7849 23.3152 10.7849C19.8986 10.7849 17.1191 13.5644 17.1191 16.981C17.1191 20.3975 19.8986 23.177 23.3152 23.177ZM23.3152 12.2198C25.9402 12.2198 28.0763 14.3555 28.0763 16.981C28.0763 19.6059 25.9402 21.7421 23.3152 21.7421C20.6897 21.7421 18.5541 19.6064 18.5541 16.981C18.5541 14.3555 20.6897 12.2198 23.3152 12.2198Z" fill="black"/>
<path d="M9.46154 28.0835C10.6387 28.0835 11.7947 28.3973 12.8049 28.9913C13.1464 29.1932 13.5865 29.0779 13.7869 28.7369C13.9878 28.3954 13.874 27.9553 13.532 27.7544C12.3018 27.0307 10.8941 26.6486 9.46154 26.6486C5.03381 26.6486 1.43164 30.2507 1.43164 34.6784C1.43164 35.0745 1.75259 35.3959 2.14911 35.3959H11.2428C11.6393 35.3959 11.9602 35.0745 11.9602 34.6784C11.9602 34.2824 11.6393 33.961 11.2428 33.961H2.90532C3.26405 30.6606 6.06744 28.0835 9.46154 28.0835Z" fill="black"/>
<path d="M9.33473 25.5031C11.9755 25.5031 14.1245 23.3545 14.1245 20.7133C14.1245 18.072 11.976 15.9235 9.33473 15.9235C6.6935 15.9235 4.54492 18.072 4.54492 20.7133C4.54492 23.354 6.6935 25.5031 9.33473 25.5031ZM9.33473 17.3584C11.1844 17.3584 12.6896 18.8632 12.6896 20.7133C12.6896 22.5629 11.1848 24.0682 9.33473 24.0682C7.48462 24.0682 5.97986 22.5634 5.97986 20.7133C5.97986 18.8632 7.48462 17.3584 9.33473 17.3584Z" fill="black"/>
<path d="M37.573 26.6486C36.1409 26.6486 34.7333 27.0312 33.5026 27.7544C33.1606 27.9553 33.0467 28.3949 33.2476 28.7364C33.4485 29.0789 33.8895 29.1922 34.2296 28.9913C35.2403 28.3973 36.3964 28.0835 37.573 28.0835C40.9671 28.0835 43.7705 30.6606 44.1292 33.961H35.7932C35.3972 33.961 35.0757 34.2824 35.0757 34.6784C35.0757 35.0745 35.3972 35.3959 35.7932 35.3959H44.8854C45.2815 35.3959 45.6029 35.0745 45.6029 34.6784C45.6029 30.2507 42.0007 26.6486 37.573 26.6486Z" fill="black"/>
<path d="M37.7004 25.5031C40.3412 25.5031 42.4903 23.3545 42.4903 20.7133C42.4903 18.072 40.3417 15.9235 37.7004 15.9235C35.0592 15.9235 32.9102 18.072 32.9102 20.7133C32.9106 23.354 35.0592 25.5031 37.7004 25.5031ZM37.7004 17.3584C39.5501 17.3584 41.0553 18.8632 41.0553 20.7133C41.0553 22.5629 39.5506 24.0682 37.7004 24.0682C35.8503 24.0682 34.3451 22.5634 34.3451 20.7133C34.3456 18.8632 35.8503 17.3584 37.7004 17.3584Z" fill="black"/>
</svg>
