<svg width="48" height="48" viewBox="0 0 48 48" fill="none" xmlns="http://www.w3.org/2000/svg">
<path d="M36.9028 23.9615C36.848 23.8309 36.756 23.7194 36.6382 23.6408C36.5204 23.5623 36.382 23.5202 36.2404 23.5199H27.9508L32.7508 4.02232C32.7845 3.86994 32.7678 3.71073 32.7032 3.56867C32.6386 3.4266 32.5296 3.30938 32.3926 3.23464C32.2556 3.15991 32.098 3.13172 31.9436 3.15431C31.7891 3.17691 31.6462 3.24907 31.5364 3.35992L11.2516 23.7311C11.151 23.8318 11.0825 23.96 11.0548 24.0996C11.0271 24.2392 11.0413 24.3839 11.0958 24.5154C11.1502 24.6469 11.2424 24.7593 11.3607 24.8384C11.479 24.9175 11.6181 24.9598 11.7604 24.9599H20.05L15.25 44.4575C15.2163 44.6099 15.233 44.7691 15.2976 44.9112C15.3622 45.0532 15.4712 45.1705 15.6082 45.2452C15.7452 45.3199 15.9028 45.3481 16.0572 45.3255C16.2116 45.3029 16.3545 45.2308 16.4644 45.1199L36.7492 24.7487C36.85 24.6475 36.9184 24.5187 36.9457 24.3785C36.9731 24.2383 36.9581 24.0932 36.9028 23.9615ZM17.2804 42.2831L21.6772 24.4127C21.7035 24.3061 21.7052 24.1949 21.6819 24.0875C21.6587 23.9802 21.6112 23.8796 21.5431 23.7934C21.475 23.7073 21.3881 23.6378 21.2891 23.5904C21.19 23.543 21.0814 23.5189 20.9716 23.5199H13.4932L30.7204 6.19672L26.3332 24.0671C26.307 24.1729 26.3052 24.2833 26.3279 24.3899C26.3507 24.4966 26.3973 24.5966 26.4643 24.6826C26.5313 24.7686 26.617 24.8382 26.7148 24.8862C26.8127 24.9343 26.9202 24.9595 27.0292 24.9599H34.5076L17.2804 42.2831Z" fill="black"/>
<path d="M34.1093 33.0912C33.9728 32.964 33.7923 32.8948 33.6057 32.8981C33.4192 32.9014 33.2412 32.9769 33.1093 33.1088C32.9774 33.2407 32.9018 33.4187 32.8985 33.6052C32.8953 33.7918 32.9645 33.9723 33.0917 34.1088L38.8517 39.8688C38.9882 39.996 39.1687 40.0652 39.3552 40.0619C39.5418 40.0586 39.7197 39.9831 39.8516 39.8511C39.9836 39.7192 40.0591 39.5413 40.0624 39.3547C40.0657 39.1682 39.9965 38.9877 39.8693 38.8512L34.1093 33.0912Z" fill="black"/>
<path d="M13.4406 14.64C13.5829 14.6399 13.7219 14.5976 13.8402 14.5185C13.9585 14.4394 14.0507 14.327 14.1051 14.1955C14.1596 14.064 14.1738 13.9193 14.1461 13.7798C14.1184 13.6402 14.0499 13.5119 13.9494 13.4112L8.18936 7.65125C8.05287 7.52407 7.87234 7.45483 7.68581 7.45812C7.49929 7.46141 7.32132 7.53697 7.1894 7.66889C7.05748 7.80081 6.98192 7.97878 6.97863 8.16531C6.97534 8.35184 7.04457 8.53236 7.17176 8.66885L12.9318 14.4288C13.0667 14.5639 13.2497 14.6399 13.4406 14.64Z" fill="black"/>
<path d="M32.8512 14.1889C32.9862 14.3237 33.1692 14.3994 33.36 14.3994C33.5508 14.3994 33.7338 14.3237 33.8688 14.1889L39.6288 8.42886C39.756 8.29237 39.8252 8.11185 39.8219 7.92532C39.8186 7.73879 39.7431 7.56082 39.6111 7.4289C39.4792 7.29698 39.3013 7.22142 39.1147 7.21813C38.9282 7.21484 38.7477 7.28408 38.6112 7.41126L32.8512 13.1713C32.7164 13.3063 32.6406 13.4893 32.6406 13.6801C32.6406 13.8709 32.7164 14.0539 32.8512 14.1889Z" fill="black"/>
<path d="M13.1708 33.3312L7.4108 39.0912C7.34006 39.1571 7.28332 39.2366 7.24397 39.3249C7.20462 39.4132 7.18346 39.5086 7.18175 39.6052C7.18005 39.7019 7.19783 39.7979 7.23404 39.8876C7.27025 39.9772 7.32415 40.0587 7.39252 40.1271C7.46089 40.1954 7.54233 40.2493 7.63199 40.2855C7.72164 40.3217 7.81767 40.3395 7.91434 40.3378C8.01102 40.3361 8.10636 40.315 8.19468 40.2756C8.283 40.2363 8.36248 40.1795 8.4284 40.1088L14.1884 34.3488C14.3156 34.2123 14.3848 34.0318 14.3815 33.8452C14.3782 33.6587 14.3027 33.4807 14.1708 33.3488C14.0388 33.2169 13.8609 33.1413 13.6743 33.1381C13.4878 33.1348 13.3073 33.204 13.1708 33.3312Z" fill="black"/>
<path d="M8.87969 31.2001C9.54243 31.2001 10.0797 30.6628 10.0797 30C10.0797 29.3373 9.54243 28.8 8.87969 28.8C8.21695 28.8 7.67969 29.3373 7.67969 30C7.67969 30.6628 8.21695 31.2001 8.87969 31.2001Z" fill="black"/>
<path d="M4.55937 27.8399C5.22212 27.8399 5.75937 27.3027 5.75937 26.6399C5.75937 25.9772 5.22212 25.4399 4.55937 25.4399C3.89663 25.4399 3.35938 25.9772 3.35938 26.6399C3.35938 27.3027 3.89663 27.8399 4.55937 27.8399Z" fill="black"/>
<path d="M42.9598 21.5999C43.6225 21.5999 44.1598 21.0627 44.1598 20.4C44.1598 19.7372 43.6225 19.2 42.9598 19.2C42.297 19.2 41.7598 19.7372 41.7598 20.4C41.7598 21.0627 42.297 21.5999 42.9598 21.5999Z" fill="black"/>
<path d="M15.1199 9.59995C15.7827 9.59995 16.3199 9.06269 16.3199 8.39995C16.3199 7.73721 15.7827 7.19995 15.1199 7.19995C14.4572 7.19995 13.9199 7.73721 13.9199 8.39995C13.9199 9.06269 14.4572 9.59995 15.1199 9.59995Z" fill="black"/>
</svg>
