<svg width="482" height="500" viewBox="0 0 482 500" fill="none" xmlns="http://www.w3.org/2000/svg">
<path opacity="0.4" d="M297.001 395.44L237.001 360.79C232.671 358.29 233.221 353.93 238.211 351.04L277.101 328.59L352.791 372.29L313.901 394.74C308.901 397.63 301.341 397.94 297.001 395.44Z" fill="#D6D8E5"/>
<path d="M301.4 392.87L241.4 358.21C237.08 355.71 237.62 351.35 242.62 348.46L281.47 326L357.16 369.7L318.28 392.16C313.28 395.05 305.72 395.36 301.4 392.87Z" fill="#B1B4C4"/>
<path d="M357.17 369.71V367.42L353.67 369.44L357.17 369.71Z" fill="#B1B4C4"/>
<path d="M238.451 354.08V351.75L242.041 353.24L238.451 354.08Z" fill="#B1B4C4"/>
<path d="M301.4 390.57L241.4 355.92C237.08 353.42 237.62 349.06 242.62 346.17L281.5 323.72L357.19 367.42L318.31 389.87C313.28 392.76 305.72 393.07 301.4 390.57Z" fill="#D6D8E5"/>
<path d="M281.671 323.82L272.311 292.74L348.831 336.63L357.171 367.42L281.671 323.82Z" fill="#9EA1AF"/>
<path d="M355 368.7L357.21 367.42L353.92 364.79L355 368.7Z" fill="#9EA1AF"/>
<path d="M279.261 324.99L269.891 293.91L346.421 337.8L354.951 368.7L279.261 324.99Z" fill="#B1B4C4"/>
<path d="M473.511 421.08L177.311 250.08C173.161 247.68 169.791 241.24 169.791 235.7V6.58995C169.791 1.04995 173.161 -1.50005 177.311 0.89995L473.511 171.9C477.661 174.3 481.031 180.73 481.031 186.27V415.4C481.001 420.94 477.661 423.48 473.511 421.08Z" fill="#C4C7D6"/>
<path d="M475.031 423.45L478.311 421.55L476.891 411.82L475.031 423.45Z" fill="#C4C7D6"/>
<path d="M169.262 2.30995L172.492 0.449951L177.132 3.09995C177.132 3.09995 172.192 3.84995 172.072 3.81995C171.952 3.78995 169.262 2.30995 169.262 2.30995Z" fill="#B1B4C4"/>
<path d="M470.79 422.65L174.6 251.65C170.44 249.26 167.08 242.82 167.08 237.28V8.1599C167.08 2.6199 170.44 0.0698962 174.6 2.4699L470.79 173.47C474.95 175.87 478.31 182.3 478.31 187.84V417C478.31 422.5 475 425.05 470.79 422.65Z" fill="#E4E7F2"/>
<path d="M470.271 423L174.081 252C169.921 249.6 166.551 243.17 166.551 237.63V8.45995C166.551 2.91995 169.921 0.369945 174.081 2.76995L470.271 173.77C474.421 176.16 477.791 182.6 477.791 188.14V417.26C477.791 422.8 474.421 425.35 470.271 423Z" fill="#D6D8E5"/>
<path d="M473.72 409L170.32 233.85L170.47 9.36995C170.47 7.07995 172.09 6.13995 174.08 7.28995L470.27 178.29C471.316 178.976 472.187 179.898 472.812 180.982C473.438 182.066 473.8 183.281 473.87 184.53L473.72 409Z" fill="white"/>
<path opacity="0.4" d="M381.101 494.7C393.963 494.7 404.391 488.683 404.391 481.26C404.391 473.837 393.963 467.82 381.101 467.82C368.238 467.82 357.811 473.837 357.811 481.26C357.811 488.683 368.238 494.7 381.101 494.7Z" fill="#D6D8E5"/>
<path opacity="0.4" d="M104.02 500C116.883 500 127.31 493.983 127.31 486.56C127.31 479.137 116.883 473.12 104.02 473.12C91.1578 473.12 80.7305 479.137 80.7305 486.56C80.7305 493.983 91.1578 500 104.02 500Z" fill="#D6D8E5"/>
<path opacity="0.4" d="M23.29 378.03C36.1527 378.03 46.58 372.013 46.58 364.59C46.58 357.167 36.1527 351.15 23.29 351.15C10.4273 351.15 0 357.167 0 364.59C0 372.013 10.4273 378.03 23.29 378.03Z" fill="#D6D8E5"/>
<path d="M87.6992 396.64C87.6992 396.64 88.3592 406.52 89.6992 407.93C91.0392 409.34 95.3692 410.33 95.3692 410.33L98.7492 415.88C98.7492 415.88 95.6192 398.22 94.9992 397.8C94.3792 397.38 87.6992 396.64 87.6992 396.64Z" fill="#FFCEA9"/>
<path d="M94.1898 385.67C93.3687 385.289 92.436 385.223 91.5694 385.485C90.7028 385.747 89.9627 386.318 89.4898 387.09C88.2498 389.15 86.9598 396.2 86.8398 397.41C86.8398 397.41 88.5798 399.82 91.1998 399.41L94.1898 385.67Z" fill="#EDEDED"/>
<path d="M104.19 484.24C106.026 484.742 107.986 484.505 109.65 483.58C110.97 483.58 118.11 480.58 119.08 483.13C119.93 485.38 116.84 487.46 115.19 487.86C111.58 488.73 108.91 490.53 107.46 490.86C106.38 491.08 104.98 491.23 104.12 490.38C103.09 489.35 103.18 485.58 104.19 484.24Z" fill="#38226D"/>
<path d="M107.46 490.21C108.91 489.91 111.58 488.11 115.19 487.21C116.57 486.88 118.96 485.36 119.19 483.56C119.51 485.63 116.72 487.46 115.19 487.84C111.58 488.71 108.91 490.51 107.46 490.84C106.38 491.06 104.98 491.21 104.12 490.36C103.897 490.115 103.736 489.82 103.65 489.5C104.186 489.907 104.81 490.183 105.471 490.306C106.133 490.429 106.814 490.396 107.46 490.21Z" fill="#B80000"/>
<path d="M93.0708 480.77C94.9067 481.278 96.8688 481.041 98.5308 480.11C99.8408 480.11 106.991 477.11 107.961 479.66C108.811 481.91 105.721 483.99 104.061 484.39C100.461 485.26 97.7908 487.06 96.3408 487.39C95.2608 487.62 93.8608 487.76 93.0008 486.92C92.0008 485.88 92.0608 482.11 93.0708 480.77Z" fill="#38226D"/>
<path d="M96.3393 486.74C97.7893 486.44 100.459 484.64 104.059 483.74C105.449 483.4 107.829 481.88 108.059 480.08C108.379 482.15 105.589 483.99 104.059 484.36C100.459 485.23 97.7893 487.03 96.3393 487.36C95.2593 487.59 93.8593 487.73 92.9993 486.89C92.774 486.643 92.6126 486.344 92.5293 486.02C93.0632 486.431 93.6864 486.71 94.3483 486.835C95.0102 486.96 95.6923 486.928 96.3393 486.74Z" fill="#B80000"/>
<path d="M92.2801 460.68C92.5881 458.029 93.137 455.411 93.9201 452.86C93.9201 452.86 93.4301 446.11 93.1901 439.71C92.9101 432.44 90.3901 426.05 92.3801 420.25L114.5 425.17C114.5 425.17 113.43 454.17 113.13 457.7C112.969 460.428 112.635 463.144 112.13 465.83C111.1 471.46 110 484 110 484C107.63 485.37 104.16 484.24 104.16 484.24C104.16 484.24 104.16 468.49 104.29 464.44C104.48 459.44 104.63 459.87 104.63 459.87L103.89 447.55L103.41 441.42C103.41 441.42 102.78 445.92 102.41 449.94C102.06 453.44 101.21 456.61 100.27 463.13C99.4501 468.79 98.6001 480.32 98.6001 480.32C96.2301 481.7 93.0401 480.75 93.0401 480.75C93.0401 480.75 91.6301 465.59 92.2801 460.68Z" fill="#C90921"/>
<path d="M95.3803 385.79C97.0803 385.88 98.3803 386.32 98.5703 385.79C98.7561 384.912 98.8864 384.024 98.9603 383.13C98.7603 382.63 98.5903 382.13 98.5903 382.13C96.4503 380.81 95.7703 378.49 95.4903 375.79C95.0103 371.18 97.4903 367.15 102.11 366.67C106.44 366.21 109.63 369.26 110.49 373.44C110.94 375.51 111.86 379.44 110.62 382.81C109.93 384.71 109.04 386.22 108.16 386.51C107.3 386.485 106.442 386.409 105.59 386.28L105.21 388.38C105.05 389.2 105.11 389.64 106.75 390.64C108.39 391.64 104.27 393.72 101.58 393.52C98.8903 393.32 95.8803 391.7 95.0503 389.96C94.1203 388 94.2103 385.74 95.3803 385.79Z" fill="#FFCEA9"/>
<path d="M97.8501 386.05C97.3701 387.23 98.5701 388.67 101.78 389.68C104.99 390.69 105.28 389.39 105.28 389.39C107.414 390.345 109.494 391.417 111.51 392.6C113.43 393.94 114.28 397.83 114.51 404.41C114.81 412.01 114.84 423.29 114.59 425.24C114.59 425.24 110.99 428.82 106.39 428.44C101.79 428.06 94.0801 424 92.2001 420.85C92.2001 414.18 93.0301 413.1 91.9501 409.25C89.4801 400.46 88.1801 396.86 89.3801 391.02C90.3801 386.2 91.7502 385.6 93.6602 385.65C95.0629 385.71 96.4615 385.843 97.8501 386.05Z" fill="#F4F4F4"/>
<path d="M110.57 431.09L108.23 404.61L113.17 401.99L115.09 403.61L114.5 427.39V428.04V428.88C114.5 428.88 114.61 430.88 110.84 433.27C110.84 433.27 110.78 432.64 110.72 432.06L110.63 431.06L110.57 431.09Z" fill="#FFCEA9"/>
<path d="M109.999 391C112.549 391 114.169 392.3 114.799 396.23C115.429 400.16 115.799 403.37 115.799 403.37C114.63 404.673 113.005 405.479 111.259 405.62C108.169 405.97 107.259 404.4 107.259 404.4C107.259 404.4 106.929 400.32 106.759 397.55C106.589 394.78 106.829 391 109.999 391Z" fill="#EDEDED"/>
<path d="M110.339 372.82C110.339 372.82 114.339 366.77 105.689 365.53C99.4593 364.64 95.4593 368.64 94.9993 372.98C94.5593 377.13 97.1093 381.44 98.9993 383.15C100.811 383.607 102.729 383.376 104.379 382.5C104.479 381.37 104.519 380.235 104.499 379.1C104.499 379.1 101.419 372.71 110.339 372.82Z" fill="#3A2C6D"/>
<path opacity="0.4" d="M445 367.55L205.66 229.37C200.73 226.53 196.73 218.89 196.73 212.31V36.0899C196.73 29.5099 200.73 26.4899 205.66 29.3399L445 167.51C449.93 170.36 453.93 178 453.93 184.57V360.8C453.92 367.37 449.92 370.4 445 367.55Z" fill="#D6D8E5"/>
<path d="M431.58 342.8L192.26 204.63C187.32 201.78 183.33 194.14 183.33 187.56V11.3399C183.33 4.75995 187.33 1.73995 192.26 4.58995L431.58 142.76C436.51 145.61 440.51 153.25 440.51 159.83V336.05C440.51 342.63 436.51 345.65 431.58 342.8Z" fill="white"/>
<path d="M440.51 173.7L183.33 25.2099V11.3399C183.33 4.75995 187.33 1.73995 192.26 4.58995L431.58 142.76C436.51 145.61 440.51 153.25 440.51 159.83V173.7Z" fill="#C90921"/>
<path d="M201.165 26.2144C202.385 25.5102 202.384 23.2256 201.164 21.1116C199.943 18.9975 197.965 17.8546 196.745 18.5587C195.526 19.2629 195.527 21.5475 196.747 23.6616C197.968 25.7756 199.946 26.9186 201.165 26.2144Z" fill="white"/>
<path d="M226.172 40.2913C227.397 39.5871 227.401 37.2946 226.18 35.1709C224.96 33.0471 222.977 31.8963 221.752 32.6005C220.526 33.3046 220.523 35.5971 221.743 37.7209C222.964 39.8446 224.946 40.9955 226.172 40.2913Z" fill="white"/>
<path d="M213.22 33.1719C214.44 32.4678 214.439 30.1832 213.219 28.0691C211.998 25.955 210.02 24.8121 208.8 25.5163C207.581 26.2204 207.581 28.505 208.802 30.6191C210.022 32.7331 212.001 33.8761 213.22 33.1719Z" fill="white"/>
<path d="M219.939 193.8L207.439 186.58V135.03L219.939 142.24V193.8Z" fill="#2A2C2E"/>
<path d="M266.379 220.61L253.869 213.39V125.75L266.379 132.97V220.61Z" fill="#2A2C2E"/>
<path d="M243.16 207.21L230.66 199.99V130.9L243.16 138.12V207.21Z" fill="#C90921"/>
<path d="M289.59 234.01L277.09 226.8V105.13L289.59 112.34V234.01Z" fill="#C90921"/>
<path d="M418.191 201.02L319.061 143.79V129.36L418.191 186.59V201.02Z" fill="#E9EAF2"/>
<path d="M418.191 219.58L319.061 162.35V155.13L418.191 212.36V219.58Z" fill="#E9EAF2"/>
<path d="M418.191 233.33L319.061 176.1V168.88L418.191 226.11V233.33Z" fill="#E9EAF2"/>
<path d="M404.791 239.34L319.061 189.85V182.63L404.791 232.13V239.34Z" fill="#E9EAF2"/>
<path d="M392.291 245.88L319.061 203.6V196.38L392.291 238.66V245.88Z" fill="#E9EAF2"/>
<path d="M361.04 257.73L330.67 240.2V232.99L361.04 250.51V257.73Z" fill="#E9EAF2"/>
<path d="M327.991 238.66L319.061 233.5V226.28L327.991 231.44V238.66Z" fill="#2A2C2E"/>
<path d="M361.04 275.26L330.67 257.73V250.51L361.04 268.04V275.26Z" fill="#E9EAF2"/>
<path d="M327.991 256.19L319.061 251.03V243.81L327.991 248.97V256.19Z" fill="#C90921"/>
<path d="M415.51 289.18L385.15 271.65V264.44L415.51 281.96V289.18Z" fill="#E9EAF2"/>
<path d="M382.469 270.11L373.539 264.95V257.73L382.469 262.89V270.11Z" fill="#C90921"/>
<path d="M415.51 306.71L385.15 289.18V281.96L415.51 299.49V306.71Z" fill="#E9EAF2"/>
<path d="M382.469 287.63L373.539 282.48V275.26L382.469 280.42V287.63Z" fill="#2A2C2E"/>
<path opacity="0.4" d="M162.43 352.59L76.0195 302.33L84.4895 296.52L170.89 346.78L162.43 352.59Z" fill="#D6D8E5"/>
<path d="M167.119 345.12L94.7894 303.36C89.8494 300.51 85.8594 292.87 85.8594 286.3V169.88C85.8594 163.3 89.8594 160.28 94.7894 163.13L167.119 204.89C172.049 207.74 176.049 215.38 176.049 221.95V338.37C176.049 345 172.049 348 167.119 345.12Z" fill="#C4C7D6"/>
<path d="M167.611 348.79L173.181 345.45L167.561 336.62L167.611 348.79Z" fill="#C4C7D6"/>
<path d="M84.3008 165.5L89.3708 162.44L89.1908 170.6L84.3008 165.5Z" fill="#C4C7D6"/>
<path d="M161.999 348.22L89.6292 306.45C84.6992 303.61 80.6992 296 80.6992 289.39V173C80.6992 166.43 84.6992 163.4 89.6292 166.25L161.999 208C166.929 210.85 170.929 218.49 170.929 225.07V341.46C170.889 348 166.889 351.06 161.999 348.22Z" fill="#D6D8E5"/>
<path d="M157.5 238.4L94.0898 201.79V183.24L157.5 219.84V238.4Z" fill="#C90921"/>
<path d="M111.95 249.23L94.9902 239.43V220.87L111.95 230.67V249.23Z" fill="#C90921"/>
<path d="M134.281 262.12L117.311 252.32V233.76L134.281 243.56V262.12Z" fill="#C90921"/>
<path d="M156.601 275L139.641 265.21V246.65L156.601 256.44V275Z" fill="#C90921"/>
<path d="M111.95 277.07L94.9902 267.27V248.71L111.95 258.51V277.07Z" fill="#C90921"/>
<path d="M134.281 289.96L117.311 280.16V261.6L134.281 271.4V289.96Z" fill="#C90921"/>
<path d="M156.601 302.85L139.641 293.05V274.49L156.601 284.29V302.85Z" fill="#C90921"/>
<path d="M111.95 304.91L94.9902 295.11V276.55L111.95 286.35V304.91Z" fill="#C90921"/>
<path d="M134.281 317.8L117.311 308V289.44L134.281 299.24V317.8Z" fill="#C90921"/>
<path d="M156.601 330.69L139.641 320.89V302.33L156.601 312.13V330.69Z" fill="#C90921"/>
<path d="M395.31 380.29C397.31 380.86 398.41 383.05 400.14 387.72C401.586 391.954 402.29 396.406 402.22 400.88C401.67 405.28 399.85 408.7 395.44 412.27L393.34 408.42C393.34 408.42 397.65 404.61 398.09 400.21C398.34 397.74 395.44 389.41 395.44 389.21C395.44 389.01 395.31 380.29 395.31 380.29Z" fill="#FFCEA9"/>
<path d="M378.059 481.72C377.393 481.925 376.69 481.983 376 481.89C375.309 481.797 374.647 481.554 374.059 481.18C372.979 481.18 366.659 478.71 365.859 480.81C365.169 482.65 367.699 484.35 369.049 484.68C371.999 485.4 374.189 486.87 375.379 487.12C375.832 487.278 376.317 487.325 376.792 487.257C377.267 487.189 377.719 487.009 378.109 486.73C378.999 485.9 378.889 482.82 378.059 481.72Z" fill="#38226D"/>
<path d="M375.39 486.61C374.2 486.36 372.01 484.89 369.06 484.17C367.93 483.9 365.97 482.66 365.78 481.17C365.51 482.86 367.78 484.37 369.06 484.67C372.01 485.39 374.2 486.86 375.39 487.11C375.843 487.268 376.327 487.315 376.802 487.247C377.277 487.179 377.729 486.999 378.12 486.72C378.301 486.519 378.435 486.28 378.51 486.02C378.072 486.354 377.561 486.582 377.02 486.684C376.478 486.787 375.92 486.761 375.39 486.61Z" fill="#B80000"/>
<path d="M394.12 473.37C393.542 473.569 392.925 473.626 392.321 473.536C391.717 473.445 391.144 473.21 390.65 472.85C389.65 472.85 383.15 470.47 382.38 472.5C381.71 474.27 384.15 475.91 385.45 476.22C388.29 476.91 390.4 478.33 391.54 478.57C391.976 478.724 392.442 478.771 392.9 478.706C393.358 478.642 393.793 478.468 394.17 478.2C395 477.4 394.91 474.43 394.12 473.37Z" fill="#38226D"/>
<path d="M391.539 478.08C390.399 477.84 388.289 476.42 385.449 475.73C384.359 475.47 382.449 474.27 382.289 472.85C382.039 474.48 384.239 475.93 385.449 476.22C388.289 476.91 390.399 478.33 391.539 478.57C391.975 478.724 392.442 478.771 392.899 478.706C393.357 478.642 393.793 478.468 394.169 478.2C394.345 478.006 394.472 477.773 394.539 477.52C394.117 477.841 393.626 478.058 393.105 478.155C392.585 478.253 392.048 478.227 391.539 478.08Z" fill="#B80000"/>
<path d="M396.239 457.33C396.242 454.903 395.822 452.493 394.999 450.21C394.999 450.21 395.829 440.46 396.449 434.06C397.359 424.62 398.809 423.69 398.399 417.96C398.019 412.64 394.999 409.19 394.209 405.59L378.799 406.81C378.799 406.81 377.459 411.17 375.729 419.87C373.999 428.57 373.889 438.92 374.049 452.63C374.099 456.16 373.449 459.23 373.659 468.03C373.799 473.95 374.129 481.19 374.129 481.19C376.389 483.13 377.949 481.7 377.949 481.7C377.949 481.7 381.899 464.18 382.479 460.15C382.899 457.925 382.712 455.628 381.939 453.5C381.939 453.5 383.099 447.99 383.939 443.66C384.989 438.38 387.569 426.97 387.569 426.97C387.569 426.97 387.129 444.5 387.899 447.97C388.669 451.44 388.799 454.43 389.449 459.13C390.239 464.82 390.599 473.13 390.599 473.13C392.949 474.62 393.989 473.47 393.989 473.47C393.989 473.47 396.239 462.3 396.239 457.33Z" fill="#FFCEA9"/>
<path d="M394.209 405.59C395.819 407.24 398.489 412.27 398.489 419.88C398.489 428.44 397.239 426.7 396.649 436.14L396.049 445.57C396.049 445.57 383.179 451.71 373.999 446.01C373.179 444.23 374.309 424.4 375.909 417.35C377.509 410.3 378.639 406.84 378.639 406.84C378.639 406.84 390.479 410 394.209 405.59Z" fill="#2A2C2E"/>
<path d="M394.388 380.2C391.108 380.01 390.798 380.55 390.528 379.39C390.438 378.97 390.258 376.08 390.258 376.08C390.56 375.697 390.834 375.292 391.078 374.87C392.577 373.952 393.75 372.588 394.433 370.969C395.115 369.349 395.273 367.557 394.883 365.843C394.493 364.13 393.576 362.582 392.26 361.417C390.944 360.252 389.296 359.529 387.548 359.35C383.188 358.89 379.988 361.95 379.138 366.15C378.678 368.22 378.198 372.46 379.488 375.85C380.218 377.77 380.888 379.12 382.628 379.05C383.206 378.998 383.778 378.897 384.338 378.75C384.432 379.546 384.465 380.349 384.438 381.15C384.388 381.99 384.538 382.42 382.888 383.43C381.238 384.44 385.378 386.52 388.068 386.32C390.758 386.12 393.798 384.48 394.638 382.74C395.558 380.79 395.938 380.3 394.388 380.2Z" fill="#FFCEA9"/>
<path d="M396.808 394.75C396.808 394.75 400.518 393.91 402.218 392.26C402.218 392.26 400.008 385.31 398.598 383.56C397.188 381.81 395.818 393.04 395.818 393.04L396.808 394.75Z" fill="#EDEDED"/>
<path d="M391.138 380.13C391.738 380.89 391.808 381.84 389.468 382.43C387.767 382.916 385.947 382.778 384.338 382.04C382.492 382.818 380.718 383.758 379.038 384.85C377.038 391.42 378.658 392.26 377.818 396.97C378.138 399.34 378.538 405.45 378.638 406.84C383.098 409.96 392.168 408.9 394.208 405.59C394.24 404.484 394.343 403.382 394.518 402.29C396.648 394.39 398.318 392.29 397.718 386.29C397.378 382.88 397.118 381.17 395.308 380.29C393.931 380.055 392.529 380.001 391.138 380.13Z" fill="#F4F4F4"/>
<path d="M350.089 405.84C351.106 406.064 352.108 406.351 353.089 406.7C354.001 407.183 354.983 407.521 355.999 407.7C357.099 407.88 358.809 407.31 361.769 405.91C365.006 404.25 367.935 402.048 370.429 399.4C373.261 396.026 375.794 392.413 377.999 388.6C379.279 386.26 380.909 385.67 382.319 386.13C384.009 386.69 384.219 388.36 382.319 391.52C379.895 395.632 376.988 399.439 373.659 402.86C371.045 405.482 368.001 407.636 364.659 409.23C362.266 410.47 359.706 411.359 357.059 411.87C356.129 412.07 355.499 412.45 353.789 413.05C352.089 413.672 350.264 413.875 348.469 413.64C346.979 413.35 346.469 413.01 346.409 412.64C346.349 412.27 346.659 412.02 347.349 412.07C348.445 412.24 349.563 412.213 350.649 411.99C350.649 411.99 349.129 411.94 348.209 411.83C347.399 411.737 346.605 411.535 345.849 411.23C345.119 410.92 344.849 409.78 345.579 409.82C346.309 409.86 346.819 410.07 348.169 410.21C348.887 410.297 349.612 410.297 350.329 410.21C349.434 410.063 348.551 409.846 347.689 409.56C346.979 409.37 346.34 408.977 345.849 408.43C345.599 408.14 345.669 407.43 346.529 407.6C347.573 407.97 348.657 408.211 349.759 408.32C350.869 408.32 351.649 408.23 351.509 408.05C351.369 407.87 350.719 407.91 349.869 407.43C349.019 406.95 348.549 406.06 348.869 405.63C349.189 405.2 349.189 405.51 350.089 405.84Z" fill="#FFCEA9"/>
<path d="M380.529 395.31C377.944 394.932 375.553 393.721 373.719 391.86L377.839 386.14C377.839 386.14 380.159 383.21 383.219 384.87C383.219 384.87 385.539 385.12 383.219 389.95C382.429 391.788 381.53 393.578 380.529 395.31Z" fill="#EDEDED"/>
<path d="M378.339 363.67C378.506 362.688 379.051 361.81 379.856 361.223C380.661 360.637 381.663 360.388 382.649 360.53C384.087 359.559 385.827 359.14 387.549 359.35C391.459 359.75 394.019 362.29 395.209 366.21C395.785 368.168 396.17 370.178 396.359 372.21C397.539 380.92 400.699 387.84 397.739 390.42C394.779 393 386.679 394.65 383.299 393C379.919 391.35 386.089 376.36 379.379 368C377.809 366.05 377.659 364.66 378.339 363.67Z" fill="#3A2C6D"/>
<path d="M11.0003 360.45C12.5303 361.69 14.7803 360.56 14.8903 360.67C16.6816 362.333 18.561 363.899 20.5203 365.36C21.5203 366.11 22.9503 367.11 22.6803 368.54C22.2003 371.11 18.0903 370.32 16.5403 369.54C14.9903 368.76 13.7203 367.45 12.2503 366.54C11.2503 365.89 10.1703 365.54 10.0103 364.23C9.86033 363.42 10.6803 360.42 11.0003 360.45Z" fill="#38226D"/>
<path d="M9.9989 363.69C10.1989 364.96 11.2189 365.31 12.2589 365.95C13.7489 366.88 15.0589 368.22 16.6089 369C18.1589 369.78 21.6089 370.45 22.6089 368.61C22.0689 371.09 18.0189 370.31 16.4889 369.54C14.9589 368.77 13.6689 367.45 12.1989 366.54C11.1989 365.89 10.1189 365.54 9.9589 364.23C9.94769 364.049 9.96115 363.867 9.9989 363.69Z" fill="#B80000"/>
<path d="M24.1889 355.53C25.7089 356.77 28.3789 355.41 28.4989 355.53C30.079 357.136 31.7483 358.652 33.4989 360.07C34.4489 360.82 35.9389 361.82 35.6689 363.25C35.1889 365.82 31.0689 365.03 29.5189 364.25C27.9689 363.47 26.6989 362.16 25.2289 361.25C24.2289 360.6 23.1489 360.25 22.9889 358.94C22.9089 358.14 23.9189 355.5 24.1889 355.53Z" fill="#38226D"/>
<path d="M23.0591 358.58C23.2591 359.85 24.2791 360.2 25.3191 360.85C26.8091 361.77 28.1191 363.11 29.6691 363.85C31.2191 364.59 34.6691 365.29 35.6691 363.46C35.1291 365.94 31.0791 365.16 29.5491 364.38C28.0191 363.6 26.7291 362.29 25.2591 361.38C24.2091 360.73 23.1791 360.38 23.0191 359.07C23.0128 358.906 23.0262 358.741 23.0591 358.58Z" fill="#B80000"/>
<path d="M10.8604 304.15C10.9404 306.46 11.6604 316.47 11.9804 321.77C12.3004 327.07 12.3704 333.57 12.3704 333.57C12.3704 333.57 11.4604 337.44 10.8604 341.98C10.2604 346.52 10.8604 360.85 10.8604 360.85C11.4446 361.222 12.1228 361.419 12.8154 361.419C13.508 361.419 14.1862 361.222 14.7704 360.85C14.7704 360.85 17.2104 349.38 18.3404 344.21C19.4704 339.04 19.6704 336.07 20.2504 332.86C20.9604 328.99 22.4904 310.91 22.4904 310.91H23.1104L24.7404 331.32C24.2468 332.828 23.9116 334.383 23.7404 335.96C23.3004 339.28 24.2104 356.01 24.2104 356.01C24.8617 356.371 25.5999 356.547 26.3443 356.517C27.0886 356.487 27.8103 356.253 28.4304 355.84C28.4304 355.84 32.5104 333.68 32.5104 330.31C32.5104 328.08 32.1204 298.68 32.1204 298.68L10.8604 304.15Z" fill="#C90921"/>
<path d="M16.3902 259.57C16.3902 259.57 16.6502 264.57 16.5402 265.04C16.4302 265.51 14.2302 266.96 13.5902 267.49C12.9502 268.02 17.0702 272.08 19.0702 273C21.0702 273.92 27.4102 271.5 27.5302 268.38C27.6502 265.26 26.4402 262.65 25.4702 262.51C24.5002 262.37 16.3902 259.57 16.3902 259.57Z" fill="#FFCEA9"/>
<path d="M30.1687 268.9C30.4587 266.68 28.9987 264.58 30.4187 262.81C35.4187 267.68 34.7487 280.55 35.8787 288.81C39.5587 292.67 46.9687 296.46 49.0487 297.4C49.4287 297.58 49.7587 297.76 49.6887 298.17C49.413 299.531 48.8355 300.812 47.9987 301.92C43.0987 299.8 39.5687 298.59 33.4387 292.77C32.8612 292.153 32.3423 291.483 31.8887 290.77C30.0987 285.48 29.6587 272.73 30.1687 268.9Z" fill="#FFCEA9"/>
<path d="M15.8292 265.91C15.8292 265.91 19.4792 271.35 24.5692 271.86C26.1792 270.28 26.3192 264.65 24.0992 262.86C24.0992 262.86 26.0992 261.21 27.5392 261.53C29.0376 262.437 30.1539 263.859 30.6792 265.53C31.9724 269.271 32.5821 273.213 32.4792 277.17C32.3892 282.51 32.4792 298.81 32.4792 298.81C32.4792 298.81 31.7592 302.26 27.1592 304.81C22.5592 307.36 19.1592 307.63 16.0092 306.9C13.4292 306.3 11.2992 305.39 10.4092 303.52C10.6392 299.78 12.3092 290.02 11.6892 285.32C11.0692 280.62 10.0692 277.11 9.80921 273.32C9.54921 269.53 10.3092 269.6 12.2192 268.24C13.3672 267.381 14.5734 266.602 15.8292 265.91Z" fill="#F4F4F4"/>
<path d="M27.7698 252.07C27.1698 248.17 24.3598 245.21 20.3398 245.43C18.7185 245.511 17.1638 246.101 15.8958 247.114C14.6277 248.128 13.7104 249.514 13.2737 251.078C12.8369 252.641 12.9028 254.302 13.462 255.826C14.0212 257.35 15.0454 258.66 16.3898 259.57C16.5317 260.163 16.7432 260.737 17.0198 261.28C18.4398 262.94 22.7498 263.97 24.0198 263.79C24.7556 263.725 25.4549 263.44 26.0272 262.973C26.5995 262.506 27.0185 261.878 27.2298 261.17C28.5198 258.1 28.0998 254 27.7698 252.07Z" fill="#FFCEA9"/>
<path d="M16.3894 259.57L16.7594 256.16C16.7594 256.16 13.9994 249 20.5494 250.34C24.8894 251.26 25.9794 251.65 27.2994 248.74C28.6194 245.83 23.9694 243.21 18.4394 243.94C16.5339 244.138 14.7722 245.044 13.5034 246.479C12.2347 247.915 11.5516 249.775 11.5894 251.69C11.7394 253.83 12.3094 258.17 16.3894 259.57Z" fill="#3A2C6D"/>
<path d="M8.68929 271.07C10.5993 270.53 9.14929 270.98 10.5993 270.53C15.5993 275.39 14.9393 283.74 16.0693 291.98C18.8093 296.51 28.9993 302.65 28.9993 302.65C29.1293 303.52 28.8193 303.78 27.7193 305.56C22.0571 303.384 16.906 300.061 12.5893 295.8C12.3493 295.57 11.9993 295.51 11.8993 295.2C10.1293 289.94 8.18929 274.9 8.68929 271.07Z" fill="#FFCEA9"/>
<path d="M53.9498 281.23L46.5498 306.5L30.3398 312.98L36.2498 288.36L53.9498 281.23Z" fill="#F4F4F4"/>
<path d="M26.4194 302.83C26.6594 301.97 27.2894 302.18 27.9894 302.4C28.7518 302.703 29.5861 302.776 30.3894 302.61C31.0152 302.303 31.5943 301.909 32.1094 301.44C32.4366 301.246 32.8092 301.143 33.1894 301.14C33.1894 301.35 32.8194 302.64 32.8194 302.64C32.8194 302.64 36.3694 302.64 36.7394 302.64C36.8647 302.613 36.9952 302.627 37.1119 302.68C37.2286 302.733 37.3253 302.822 37.3878 302.934C37.4504 303.045 37.4756 303.174 37.4597 303.301C37.4438 303.428 37.3876 303.547 37.2994 303.64H37.5394C38.2694 303.47 38.5394 304.59 37.8494 304.76L37.2494 304.85C37.7294 305.03 37.8494 305.85 37.2494 305.93H37.0594C36.9739 305.949 36.885 305.949 36.7994 305.93H36.6894C36.7067 306.015 36.7065 306.102 36.6889 306.187C36.6714 306.272 36.6368 306.352 36.5872 306.423C36.5377 306.495 36.4742 306.555 36.4007 306.601C36.3271 306.646 36.2451 306.677 36.1594 306.69C34.4194 306.91 31.8694 307.6 30.2994 306.17C29.2091 306.066 28.1442 305.778 27.1494 305.32C26.1594 304.83 26.1294 303.86 26.4194 302.83Z" fill="#FFCEA9"/>
<path d="M44.1699 300.76H44.4099C44.3063 300.687 44.2286 300.583 44.1879 300.462C44.1472 300.342 44.1456 300.212 44.1834 300.091C44.2211 299.97 44.2963 299.864 44.3981 299.788C44.4999 299.713 44.6231 299.671 44.7499 299.67C45.1199 299.67 48.7499 298.91 48.7499 298.91L49.1899 297.41C49.1899 297.32 49.8199 297.71 49.8399 297.72C50.1574 297.917 50.4266 298.183 50.6274 298.498C50.8282 298.813 50.9555 299.169 50.9999 299.54C51.0466 300.577 50.688 301.592 49.9999 302.37C49.3399 303.03 48.4528 303.413 47.5199 303.44L46.2599 303.52C46.1739 303.527 46.0874 303.516 46.0058 303.488C45.9242 303.46 45.8492 303.416 45.7854 303.357C45.7217 303.299 45.6705 303.229 45.6352 303.15C45.5998 303.071 45.581 302.986 45.5799 302.9H45.3999C45.3143 302.919 45.2256 302.919 45.1399 302.9H44.9999C44.3799 302.9 44.3299 302.12 44.7499 301.84C44.5499 301.84 44.3499 301.84 44.1499 301.84C43.3599 301.92 43.4199 300.76 44.1699 300.76Z" fill="#FFCEA9"/>
<path d="M32.2291 272.2C33.2334 272.154 34.1817 271.724 34.8791 271C34.7391 269.13 32.3491 262 27.5391 261.51C28.8472 262.428 29.8836 263.682 30.5391 265.14C31.2825 267.446 31.8475 269.807 32.2291 272.2Z" fill="#EDEDED"/>
<path d="M7.82953 281.57C7.82953 281.57 12.6095 283.22 15.9795 280.45C16.3495 279.81 13.9795 271.67 13.9795 271.67C13.9795 271.67 11.9795 267.5 8.82953 269.16C5.67953 270.82 7.82953 281.57 7.82953 281.57Z" fill="#EDEDED"/>
</svg>
