<svg width="490" height="500" viewBox="0 0 490 500" fill="none" xmlns="http://www.w3.org/2000/svg">
<path opacity="0.15" d="M71.93 363.55C111.656 363.55 143.86 344.956 143.86 322.02C143.86 299.084 111.656 280.49 71.93 280.49C32.2042 280.49 0 299.084 0 322.02C0 344.956 32.2042 363.55 71.93 363.55Z" fill="#D6D8E5"/>
<path opacity="0.5" d="M71.1005 340.74C93.2581 340.74 111.22 330.371 111.22 317.58C111.22 304.789 93.2581 294.42 71.1005 294.42C48.9428 294.42 30.9805 304.789 30.9805 317.58C30.9805 330.371 48.9428 340.74 71.1005 340.74Z" fill="#EDEFF9"/>
<path d="M70.7193 315.97C77.0374 315.97 82.1593 313.011 82.1593 309.36C82.1593 305.709 77.0374 302.75 70.7193 302.75C64.4012 302.75 59.2793 305.709 59.2793 309.36C59.2793 313.011 64.4012 315.97 70.7193 315.97Z" fill="#EDEFF9"/>
<path d="M82.0996 221.73H60.0996V308.19H82.0996V221.73Z" fill="#EDEFF9"/>
<path d="M59.0508 220.75C59.0508 220.75 59.6508 238.53 72.3008 270.42C72.3008 270.42 84.0808 244.74 85.3008 220.21C86.5208 195.68 59.0508 220.75 59.0508 220.75Z" fill="#FFBC00"/>
<path d="M43.5996 153.81L14.3296 182.29L10.8496 219.48L46.2496 201.73L52.6896 156.37L43.5996 153.81Z" fill="#C90921"/>
<path d="M101 153.81L130.26 182.29L133.75 219.48L98.2202 200.5L91.9102 156.37L101 153.81Z" fill="#C90921"/>
<path d="M71.9309 225.24C79.9666 225.24 86.4809 221.479 86.4809 216.84C86.4809 212.201 79.9666 208.44 71.9309 208.44C63.8951 208.44 57.3809 212.201 57.3809 216.84C57.3809 221.479 63.8951 225.24 71.9309 225.24Z" fill="#424956"/>
<path d="M49.8691 208.44V200.88H93.9391V208.72L49.8691 208.44Z" fill="#494949"/>
<path d="M71.9291 221.17C84.1125 221.17 93.9891 215.466 93.9891 208.43C93.9891 201.394 84.1125 195.69 71.9291 195.69C59.7457 195.69 49.8691 201.394 49.8691 208.43C49.8691 215.466 59.7457 221.17 71.9291 221.17Z" fill="#2B303F"/>
<path d="M71.8595 212.5C86.727 212.5 98.7795 205.543 98.7795 196.96C98.7795 188.378 86.727 181.42 71.8595 181.42C56.992 181.42 44.9395 188.378 44.9395 196.96C44.9395 205.543 56.992 212.5 71.8595 212.5Z" fill="#EDEFF9"/>
<path d="M100.931 169.28C100.931 170.53 100.931 171.76 100.931 172.95C100.931 173.95 100.931 174.95 100.931 175.95C100.931 177.3 100.861 178.59 100.811 179.85C100.811 181.42 100.701 182.91 100.621 184.34C100.541 185.77 100.471 187.17 100.371 188.46C99.9606 194.11 99.9706 198.27 99.2706 199.9C95.4606 208.81 82.5706 203.9 76.2106 200.7C73.8606 199.52 72.3106 198.55 72.3106 198.55H71.7306C71.7306 198.55 69.8906 199.55 67.1706 200.63C60.5006 203.33 48.6106 208.12 45.3106 199.87C44.7206 198.39 44.1306 193.5 43.7706 188.38C43.6806 187.1 43.6006 185.73 43.5206 184.27C43.4406 182.81 43.4006 181.36 43.3406 179.79C43.3406 178.54 43.2706 177.25 43.2406 175.91C43.2406 174.91 43.2406 173.91 43.2406 172.91V169.24C43.0606 134.35 46.7606 78.5601 58.9806 54.7501C62.5106 47.8601 66.7506 43.6501 71.8206 43.4001H72.4006C77.4006 43.6601 81.6906 47.8501 85.2306 54.7101C97.2806 78.4301 101.151 134 100.931 169.28Z" fill="#EDEFF9"/>
<path d="M72.0001 136.38C77.6168 136.38 82.1701 131.827 82.1701 126.21C82.1701 120.593 77.6168 116.04 72.0001 116.04C66.3833 116.04 61.8301 120.593 61.8301 126.21C61.8301 131.827 66.3833 136.38 72.0001 136.38Z" fill="#2B303F"/>
<path d="M71.9998 137.87C69.6937 137.87 67.4394 137.186 65.5219 135.905C63.6044 134.624 62.1099 132.803 61.2274 130.672C60.3449 128.542 60.114 126.197 60.5639 123.935C61.0138 121.673 62.1243 119.596 63.755 117.965C65.3857 116.335 67.4633 115.224 69.7251 114.774C71.9869 114.324 74.3314 114.555 76.4619 115.438C78.5925 116.32 80.4136 117.815 81.6948 119.732C82.976 121.65 83.6599 123.904 83.6599 126.21C83.6572 129.302 82.4279 132.266 80.2418 134.452C78.0557 136.638 75.0915 137.867 71.9998 137.87ZM71.9998 117.53C70.2827 117.528 68.6035 118.035 67.1748 118.988C65.746 119.941 64.6319 121.296 63.9734 122.881C63.3149 124.467 63.1416 126.213 63.4754 127.897C63.8092 129.582 64.6351 131.129 65.8486 132.344C67.0621 133.559 68.6088 134.387 70.2928 134.723C71.9768 135.058 73.7226 134.887 75.3092 134.23C76.8959 133.574 78.2521 132.461 79.2063 131.033C80.1605 129.606 80.6698 127.927 80.6698 126.21C80.6672 123.911 79.7532 121.706 78.1282 120.079C76.5031 118.452 74.2994 117.535 71.9998 117.53Z" fill="#424956"/>
<path d="M72.0001 106.48C77.6168 106.48 82.1701 101.927 82.1701 96.3101C82.1701 90.6934 77.6168 86.1401 72.0001 86.1401C66.3833 86.1401 61.8301 90.6934 61.8301 96.3101C61.8301 101.927 66.3833 106.48 72.0001 106.48Z" fill="#2B303F"/>
<path d="M72.0003 108C69.6926 108.002 67.4362 107.32 65.5162 106.04C63.5962 104.759 62.0988 102.939 61.2134 100.808C60.328 98.6765 60.0943 96.3308 60.5419 94.0669C60.9894 91.8031 62.0981 89.7227 63.7278 88.0888C65.3575 86.455 67.435 85.3409 69.6977 84.8876C71.9604 84.4342 74.3067 84.6619 76.4401 85.5418C78.5734 86.4217 80.398 87.9144 81.6831 89.8311C82.9683 91.7478 83.6563 94.0025 83.6603 96.3102C83.663 99.4062 82.4363 102.377 80.2499 104.569C78.0635 106.761 75.0963 107.995 72.0003 108ZM72.0003 87.6602C70.2827 87.6582 68.6031 88.1658 67.1742 89.1188C65.7452 90.0718 64.6312 91.4274 63.9729 93.0138C63.3147 94.6003 63.142 96.3464 63.4766 98.0311C63.8112 99.7158 64.6381 101.263 65.8526 102.478C67.0671 103.692 68.6147 104.519 70.2994 104.854C71.9841 105.188 73.7301 105.016 75.3166 104.358C76.9031 103.699 78.2586 102.585 79.2116 101.156C80.1646 99.7273 80.6723 98.0478 80.6703 96.3302C80.6716 95.1903 80.4484 94.0613 80.0134 93.0077C79.5784 91.9541 78.9401 90.9965 78.1351 90.1895C77.33 89.3826 76.3738 88.7421 75.3212 88.3047C74.2686 87.8673 73.1402 87.6415 72.0003 87.6402V87.6602Z" fill="#424956"/>
<path d="M100.931 189.39C100.931 190.64 100.931 191.87 100.931 193.07C99.9306 196.37 97.2106 199.53 92.7906 202.07C81.3306 208.68 62.7906 208.68 51.2806 202.07C46.8606 199.51 44.1506 196.34 43.1406 193.07V189.4C44.1406 192.76 46.8406 195.96 51.3206 198.55C62.7906 205.16 81.3706 205.16 92.8306 198.55C97.2206 195.93 100.001 192.74 100.931 189.39Z" fill="#C90921"/>
<path d="M100.839 195.21C100.839 196.55 100.769 197.85 100.719 199.1C99.5994 202.22 96.9394 205.19 92.7194 207.61C81.2594 214.23 62.7194 214.23 51.2094 207.61C46.9994 205.17 44.3394 202.18 43.2094 199.04C43.2094 197.79 43.1394 196.5 43.1094 195.17C44.1094 198.43 46.8394 201.53 51.1994 204.05C62.6694 210.67 81.2494 210.67 92.7094 204.05C97.0894 201.54 99.7894 198.45 100.839 195.21Z" fill="#C90921"/>
<path d="M100.53 184.88C99.3197 187.81 96.7197 190.6 92.7497 192.88C81.2897 199.49 62.7497 199.49 51.2397 192.88C47.2397 190.56 44.6397 187.76 43.4297 184.8C43.5097 186.26 43.5897 187.63 43.6797 188.91C44.9697 191.67 47.4897 194.27 51.2397 196.44C56.1309 199.105 61.5274 200.713 67.0797 201.16C70.0716 201.451 73.0836 201.474 76.0797 201.23C81.9054 200.862 87.5806 199.227 92.7097 196.44C96.4297 194.29 98.9397 191.72 100.24 188.99L100.53 184.88Z" fill="#C90921"/>
<path d="M85.0508 54.7301C76.4977 57.3554 67.3539 57.3554 58.8008 54.7301C62.3308 47.8401 66.5708 43.6301 71.6408 43.3801H72.2208C77.2708 43.6801 81.5108 47.8701 85.0508 54.7301Z" fill="#C90921"/>
<path d="M74.7908 153.89H69.8008V219.4H74.7908V153.89Z" fill="#C90921"/>
<path opacity="0.4" d="M311.4 382.18L253.4 348.69C249.21 346.27 249.74 342.05 254.57 339.26L292.15 317.57L365.3 359.8L327.72 381.5C322.88 384.29 315.58 384.59 311.4 382.18Z" fill="#D6D8E5"/>
<path d="M315.63 379.69L257.63 346.19C253.45 343.78 253.97 339.56 258.8 336.77L296.39 315.08L369.54 357.31L332 379C327.12 381.8 319.81 382.1 315.63 379.69Z" fill="#B1B4C4"/>
<path d="M369.53 357.31V355.1L366.15 357.05L369.53 357.31Z" fill="#B1B4C4"/>
<path d="M254.801 342.2V339.95L258.271 341.39L254.801 342.2Z" fill="#B1B4C4"/>
<path d="M315.63 377.47L257.63 343.98C253.45 341.56 253.97 337.35 258.8 334.56L296.39 312.86L369.54 355.1L332 376.79C327.12 379.58 319.81 379.89 315.63 377.47Z" fill="#D6D8E5"/>
<path d="M296.572 312.96L287.521 282.92L361.471 325.34L369.531 355.1L296.572 312.96Z" fill="#9EA1AF"/>
<path d="M367.39 356.33L369.53 355.1L366.34 352.55L367.39 356.33Z" fill="#9EA1AF"/>
<path d="M294.241 314.09L285.191 284.05L359.141 326.47L367.381 356.33L294.241 314.09Z" fill="#B1B4C4"/>
<path d="M482.001 407L195.711 241.69C191.711 239.37 188.441 233.15 188.441 227.8V6.3701C188.441 1.0101 191.701 -1.4499 195.711 0.8701L482.001 166.14C486.001 168.46 489.271 174.68 489.271 180.03V401.46C489.241 406.81 486.001 409.27 482.001 407Z" fill="#C4C7D6"/>
<path d="M483.441 409.24L486.611 407.41L485.241 398.01L483.441 409.24Z" fill="#C4C7D6"/>
<path d="M187.93 2.24018L191.05 0.430176L195.54 3.00018C195.54 3.00018 190.76 3.73018 190.64 3.70018C190.52 3.67018 187.93 2.24018 187.93 2.24018Z" fill="#B1B4C4"/>
<path d="M479.34 408.47L193.09 243.2C189.09 240.88 185.82 234.67 185.82 229.31V7.88004C185.82 2.53004 189.07 0.0700423 193.09 2.39004L479.34 167.66C483.34 169.98 486.61 176.2 486.61 181.55V403C486.61 408.33 483.36 410.79 479.34 408.47Z" fill="#E4E7F2"/>
<path d="M478.841 408.76L192.581 243.49C188.581 241.17 185.311 234.95 185.311 229.6V8.17008C185.311 2.82008 188.571 0.360081 192.581 2.68008L478.841 168C482.841 170.31 486.111 176.53 486.111 181.89V403.26C486.111 408.62 482.851 411.08 478.841 408.76Z" fill="#D6D8E5"/>
<path d="M482.17 395.29L189 226L189.1 9.06022C189.1 6.84022 190.66 5.94022 192.58 7.06022L478.84 172.32C479.849 172.978 480.689 173.864 481.294 174.906C481.898 175.948 482.25 177.118 482.32 178.32L482.17 395.29Z" fill="white"/>
<path d="M304.721 102.08L210.801 47.8602C210.367 47.5477 210.013 47.138 209.766 46.6639C209.52 46.1898 209.388 45.6645 209.381 45.1302V38.5802C209.381 37.5802 210.011 37.0502 210.801 37.5002L304.721 91.7202C305.153 92.0343 305.506 92.4443 305.752 92.9181C305.998 93.3918 306.132 93.9163 306.141 94.4502V101C306.141 102.05 305.501 102.54 304.721 102.08Z" fill="#E9EAF2"/>
<path d="M280.601 103.65L211.231 63.6C210.796 63.2907 210.439 62.8833 210.191 62.4108C209.943 61.9382 209.809 61.4138 209.801 60.88V57.62C209.801 56.62 210.441 56.08 211.231 56.54L280.601 96.59C281.03 96.903 281.38 97.312 281.623 97.7842C281.866 98.2564 281.995 98.7789 282.001 99.31V102.57C282.001 103.62 281.381 104.11 280.601 103.65Z" fill="#E9EAF2"/>
<path d="M280.601 116L211.231 76.0001C210.796 75.6909 210.439 75.2834 210.191 74.8109C209.943 74.3384 209.809 73.8139 209.801 73.2801V70.0001C209.801 69.0001 210.441 68.4601 211.231 68.9201L280.601 109C281.034 109.311 281.387 109.719 281.634 110.191C281.881 110.664 282.013 111.187 282.021 111.72V114.98C282.001 116 281.381 116.47 280.601 116Z" fill="#E9EAF2"/>
<path d="M267.511 120.82L211.231 88.3202C210.796 88.0109 210.439 87.6035 210.191 87.131C209.943 86.6584 209.809 86.134 209.801 85.6002V82.3402C209.801 81.3402 210.441 80.8002 211.231 81.2602L267.511 113.75C267.946 114.062 268.301 114.472 268.55 114.946C268.798 115.42 268.932 115.945 268.941 116.48V119.74C268.941 120.79 268.301 121.27 267.511 120.82Z" fill="#C90921"/>
<path d="M304.721 231.84L210.801 177.62C210.367 177.308 210.013 176.898 209.766 176.424C209.52 175.95 209.388 175.424 209.381 174.89V168.34C209.381 167.29 210.011 166.81 210.801 167.26L304.721 221.48C305.153 221.794 305.506 222.204 305.752 222.678C305.998 223.152 306.132 223.676 306.141 224.21V230.76C306.141 231.81 305.501 232.29 304.721 231.84Z" fill="#E9EAF2"/>
<path d="M280.601 233.41L211.231 193.41C210.796 193.098 210.44 192.689 210.192 192.215C209.944 191.741 209.81 191.215 209.801 190.68V187.42C209.801 186.37 210.441 185.89 211.231 186.35L280.601 226.35C281.033 226.664 281.386 227.074 281.632 227.548C281.878 228.022 282.011 228.546 282.021 229.08V232.34C282.001 233.38 281.381 233.86 280.601 233.41Z" fill="#E9EAF2"/>
<path d="M280.601 245.77L211.231 205.72C210.797 205.41 210.441 205.002 210.193 204.53C209.945 204.058 209.81 203.534 209.801 203V199.74C209.801 198.74 210.441 198.21 211.231 198.67L280.601 238.67C281.033 238.984 281.386 239.394 281.632 239.868C281.878 240.342 282.011 240.866 282.021 241.4V244.66C282.001 245.74 281.381 246.22 280.601 245.77Z" fill="#E9EAF2"/>
<path d="M267.511 250.57L211.231 218.08C210.795 217.769 210.439 217.36 210.191 216.885C209.942 216.411 209.809 215.885 209.801 215.35V212.09C209.801 211.04 210.441 210.56 211.231 211.02L267.511 243.51C267.946 243.822 268.301 244.231 268.55 244.705C268.798 245.18 268.932 245.705 268.941 246.24V249.5C268.941 250.55 268.301 251 267.511 250.57Z" fill="#C90921"/>
<path d="M329.85 247.94C329.85 247.94 340.21 256.64 355.17 244.76C365.85 236 375.4 241 380.72 244C386.04 247 393.72 248.84 408.35 275.26C408.35 275.26 413.11 283.54 420.97 288.08C428.83 292.62 432.61 290.4 438.79 281.08C444.97 271.76 449.02 261.44 460.38 268.18V361.87L328.83 286V247.33L329.85 247.94Z" fill="#F5F6FF"/>
<path d="M301.26 208.22L211.26 156.22C210.825 155.908 210.47 155.499 210.221 155.025C209.973 154.551 209.839 154.025 209.83 153.49V101.56C209.83 100.56 210.47 100.03 211.26 100.48L301.26 152.48C301.695 152.792 302.051 153.201 302.299 153.675C302.547 154.15 302.681 154.675 302.69 155.21V207.16C302.69 208.19 302.05 208.67 301.26 208.22Z" fill="#E9EAF2"/>
<path d="M328.83 245.76V285.98L460.38 361.92V268.23" stroke="#E9EAF2" stroke-width="0.31" stroke-miterlimit="10"/>
<path d="M380.531 244.47V315.73" stroke="#E9EAF2" stroke-width="0.31" stroke-miterlimit="10"/>
<path d="M420.781 289.54V338.96" stroke="#E9EAF2" stroke-width="0.31" stroke-miterlimit="10"/>
<path d="M328.83 247.33C352.17 261.8 355.47 229.09 380.9 243.77C406.33 258.45 402.82 277.58 421.59 288.42C440.36 299.26 440.8 256.92 460.38 268.23" stroke="#E9EAF2" stroke-width="1.53" stroke-miterlimit="10"/>
<path d="M382.72 248.284C383.93 247.586 383.928 245.317 382.716 243.217C381.503 241.118 379.54 239.982 378.33 240.681C377.12 241.379 377.121 243.648 378.334 245.747C379.546 247.847 381.51 248.983 382.72 248.284Z" fill="#C90921"/>
<path d="M464.411 273.129C465.627 272.431 465.63 270.155 464.418 268.045C463.205 265.936 461.237 264.792 460.021 265.491C458.806 266.19 458.803 268.466 460.015 270.575C461.228 272.685 463.196 273.828 464.411 273.129Z" fill="#C90921"/>
<path d="M424.644 293.644C425.859 292.945 425.862 290.669 424.65 288.559C423.438 286.45 421.469 285.306 420.254 286.005C419.038 286.704 419.035 288.98 420.248 291.089C421.46 293.199 423.428 294.342 424.644 293.644Z" fill="#C90921"/>
<path d="M331.026 251.141C332.236 250.442 332.235 248.174 331.022 246.074C329.81 243.974 327.846 242.839 326.636 243.537C325.426 244.236 325.428 246.504 326.64 248.604C327.853 250.704 329.816 251.84 331.026 251.141Z" fill="#C90921"/>
<path d="M332.541 178.23L327.151 175.12C326.716 174.808 326.36 174.399 326.112 173.925C325.864 173.451 325.73 172.925 325.721 172.39V146.39C325.721 145.34 326.361 144.86 327.151 145.31L332.541 148.43C332.975 148.731 333.333 149.129 333.586 149.593C333.84 150.056 333.981 150.572 334.001 151.1V177.15C334.001 178.2 333.331 178.68 332.541 178.23Z" fill="#E9EAF2"/>
<path d="M345 185.4L339.61 182.28C339.175 181.971 338.818 181.564 338.57 181.091C338.321 180.618 338.188 180.094 338.18 179.56V126.56C338.18 125.56 338.82 125.02 339.61 125.48L345 128.6C345.434 128.912 345.79 129.321 346.039 129.796C346.287 130.27 346.421 130.795 346.43 131.33V184.33C346.39 185.37 345.75 185.85 345 185.4Z" fill="#2A2C2E"/>
<path d="M369.791 199.73L364.401 196.62C363.964 196.31 363.607 195.901 363.359 195.426C363.11 194.952 362.977 194.426 362.971 193.89V146.05C362.971 145 363.611 144.52 364.401 144.97L369.791 148.08C370.226 148.392 370.581 148.801 370.83 149.275C371.078 149.749 371.212 150.275 371.221 150.81V198.66C371.221 199.71 370.581 200.19 369.791 199.73Z" fill="#E9EAF2"/>
<path d="M382.211 206.9L376.821 203.79C376.386 203.478 376.03 203.069 375.782 202.595C375.533 202.121 375.4 201.595 375.391 201.06V161.42C375.391 160.42 376.031 159.89 376.821 160.34L382.211 163.46C382.646 163.769 383.002 164.177 383.25 164.649C383.499 165.122 383.633 165.646 383.641 166.18V205.82C383.641 206.88 383.001 207.36 382.211 206.9Z" fill="#2A2C2E"/>
<path d="M406.941 221.18L401.541 218.07C401.108 217.758 400.753 217.348 400.507 216.874C400.26 216.4 400.128 215.874 400.121 215.34V195.75C400.121 194.69 400.751 194.21 401.541 194.67L406.941 197.78C407.373 198.094 407.726 198.504 407.972 198.978C408.219 199.452 408.352 199.976 408.361 200.51V220.1C408.361 221.15 407.721 221.63 406.941 221.18Z" fill="#E9EAF2"/>
<path d="M419.35 228.35L414 225.23C413.565 224.921 413.209 224.513 412.96 224.041C412.712 223.568 412.578 223.044 412.57 222.51V155.88C412.57 154.82 413.21 154.34 414 154.8L419.39 157.91C419.826 158.221 420.182 158.631 420.43 159.105C420.679 159.579 420.812 160.105 420.82 160.64V227.27C420.78 228.32 420.14 228.8 419.35 228.35Z" fill="#2A2C2E"/>
<path d="M449.64 245.84L444.25 242.72C443.815 242.411 443.459 242.003 443.21 241.531C442.962 241.058 442.828 240.534 442.82 240V220.4C442.82 219.35 443.46 218.87 444.25 219.32L449.64 222.44C450.077 222.75 450.434 223.159 450.682 223.634C450.931 224.108 451.064 224.635 451.07 225.17V244.76C451.07 245.81 450.43 246.29 449.64 245.84Z" fill="#E9EAF2"/>
<path d="M462.06 253L456.67 249.88C456.234 249.57 455.877 249.161 455.628 248.686C455.38 248.212 455.247 247.686 455.24 247.15V221.15C455.24 220.1 455.88 219.62 456.67 220.07L462.06 223.18C462.495 223.492 462.851 223.901 463.099 224.376C463.347 224.85 463.481 225.375 463.49 225.91V251.96C463.49 253 462.85 253.46 462.06 253Z" fill="#2A2C2E"/>
<path opacity="0.4" d="M104.911 498L60.2708 472.26C55.2108 469.33 55.8408 464.26 61.6908 460.86L84.3508 447.77C90.1908 444.4 99.0008 444 104.091 447L148.731 472.78C153.791 475.7 153.161 480.78 147.311 484.17L124.651 497.26C118.811 500.58 110.001 501 104.911 498Z" fill="#D6D8E5"/>
<path d="M172 465.87V403.56L76.6801 392.83V455.53C76.6201 457.45 77.6801 459.28 80.0801 460.64L124.72 486.42C129.78 489.34 138.62 488.97 144.46 485.6L167.12 472.51C170.41 470.61 172.05 468.16 171.95 465.87H172Z" fill="#D6D8E5"/>
<path d="M171.94 410.36V403.56H164.61L123.9 380.05C118.84 377.12 110 377.49 104.16 380.86L81.5001 394C81.0971 394.229 80.7066 394.479 80.3301 394.75L76.6801 392.88C76.6801 392.88 76.6801 400.07 76.6801 400.31C76.6201 402.21 77.6801 404.04 80.0801 405.4L124.72 431.17C129.78 434.09 138.62 433.72 144.46 430.35L167.12 417.27C170.51 415.27 172.12 412.77 171.93 410.41L171.94 410.36Z" fill="#EDF0F9"/>
<path d="M124.719 423.71L80.0794 397.94C75.0194 395.02 75.6494 389.94 81.4994 386.54L104.159 373.46C109.999 370.08 118.839 369.72 123.899 372.64L168.539 398.41C173.599 401.33 172.969 406.41 167.119 409.81L144.459 422.89C138.619 426.27 129.779 426.63 124.719 423.71Z" fill="#E2E5F2"/>
<path d="M114.66 388.53V386.05H113.14L112.67 385.75C111.174 384.991 109.521 384.596 107.845 384.596C106.168 384.596 104.515 384.991 103.02 385.75C102.734 385.917 102.463 386.107 102.21 386.32L101.02 386.05V388.53C101.075 389.131 101.29 389.706 101.642 390.196C101.993 390.686 102.469 391.074 103.02 391.32C104.515 392.079 106.168 392.475 107.845 392.475C109.521 392.475 111.174 392.079 112.67 391.32C113.22 391.076 113.696 390.688 114.046 390.197C114.396 389.706 114.608 389.131 114.66 388.53Z" fill="#B80000"/>
<path d="M107.84 389.99C111.606 389.99 114.66 388.226 114.66 386.05C114.66 383.874 111.606 382.11 107.84 382.11C104.073 382.11 101.02 383.874 101.02 386.05C101.02 388.226 104.073 389.99 107.84 389.99Z" fill="#C90921"/>
<path d="M131.579 399C131.207 399.833 130.561 400.514 129.749 400.93C128.254 401.684 126.603 402.077 124.929 402.077C123.255 402.077 121.604 401.684 120.109 400.93C119.297 400.514 118.651 399.833 118.279 399C117.779 397.72 118.399 396.35 120.109 395.35C121.604 394.596 123.255 394.203 124.929 394.203C126.603 394.203 128.254 394.596 129.749 395.35C131.469 396.3 132.079 397.67 131.579 399Z" fill="#B80000"/>
<path d="M131.579 399C131.207 399.833 130.562 400.514 129.749 400.93C128.255 401.684 126.604 402.077 124.929 402.077C123.255 402.077 121.604 401.684 120.109 400.93C119.62 400.895 119.163 400.676 118.828 400.317C118.494 399.958 118.309 399.486 118.309 398.995C118.309 398.505 118.494 398.033 118.828 397.674C119.163 397.315 119.62 397.095 120.109 397.06C121.604 396.306 123.255 395.913 124.929 395.913C126.604 395.913 128.255 396.306 129.749 397.06C130.563 397.478 131.209 398.163 131.579 399Z" fill="#C90921"/>
<path d="M147.611 407.87V405.39H146.091L145.621 405.09C144.126 404.331 142.472 403.936 140.796 403.936C139.119 403.936 137.466 404.331 135.971 405.09C135.687 405.257 135.417 405.444 135.161 405.65L133.971 405.39V407.87C134.027 408.471 134.241 409.046 134.593 409.536C134.944 410.026 135.42 410.414 135.971 410.66C137.466 411.419 139.119 411.815 140.796 411.815C142.472 411.815 144.126 411.419 145.621 410.66C146.172 410.415 146.647 410.028 146.997 409.537C147.347 409.046 147.559 408.471 147.611 407.87Z" fill="#B80000"/>
<path d="M140.791 409.33C144.557 409.33 147.611 407.566 147.611 405.39C147.611 403.214 144.557 401.45 140.791 401.45C137.024 401.45 133.971 403.214 133.971 405.39C133.971 407.566 137.024 409.33 140.791 409.33Z" fill="#C90921"/>
<path d="M65.3001 378.51C65.0301 380.84 62.3 390.9 62.84 394.35C63.38 397.8 72.9401 403.56 72.9401 403.56L74.2601 397.66L69 392.5L70.42 382.73L65.3001 378.51Z" fill="#FFCEA9"/>
<path d="M72.6494 368.6C71.7262 368.17 70.6769 368.094 69.7014 368.387C68.7259 368.68 67.8923 369.322 67.3594 370.19C65.9594 372.51 64.5094 380.45 64.3594 381.81C64.3594 381.81 66.3594 384.52 69.2694 384.07L72.6494 368.6Z" fill="#EDEDED"/>
<path d="M83.5001 480.76C85.5689 481.329 87.7787 481.06 89.6501 480.01C91.1301 480.06 99.1801 476.61 100.27 479.5C101.27 482.04 97.7401 484.38 95.8801 484.83C91.8201 485.83 88.8201 487.83 87.1801 488.19C85.9701 488.44 84.3901 488.61 83.4301 487.65C82.2601 486.51 82.3601 482.27 83.5001 480.76Z" fill="#38226D"/>
<path d="M87.1806 487.48C88.8206 487.14 91.8206 485.11 95.8806 484.13C97.4406 483.75 100.131 482.05 100.401 480.01C100.761 482.34 97.6206 484.41 95.8806 484.83C91.8206 485.83 88.8206 487.83 87.1806 488.19C85.9706 488.44 84.3906 488.61 83.4306 487.65C83.1677 487.369 82.9817 487.024 82.8906 486.65C83.4905 487.115 84.1914 487.432 84.9366 487.577C85.6819 487.721 86.4506 487.688 87.1806 487.48Z" fill="#B80000"/>
<path d="M70.4605 474.9C72.528 475.472 74.7377 475.206 76.6105 474.16C78.0905 474.16 86.1305 470.76 87.2305 473.65C88.2305 476.18 84.7005 478.52 82.8405 478.98C78.7805 479.98 75.7705 481.98 74.1405 482.33C72.9205 482.58 71.3505 482.75 70.3805 481.8C69.2205 480.65 69.3205 476.41 70.4605 474.9Z" fill="#38226D"/>
<path d="M74.1396 481.63C75.7696 481.28 78.7796 479.26 82.8396 478.27C84.3996 477.9 87.0896 476.19 87.3596 474.16C87.7196 476.49 84.5796 478.55 82.8396 478.98C78.7796 479.98 75.7696 481.98 74.1396 482.33C72.9196 482.58 71.3496 482.75 70.3796 481.8C70.1261 481.513 69.9444 481.171 69.8496 480.8C70.4514 481.261 71.1522 481.577 71.8968 481.721C72.6413 481.865 73.4091 481.834 74.1396 481.63Z" fill="#B80000"/>
<path d="M70.3005 453.05C70.647 450.063 71.2662 447.114 72.1505 444.24C72.1505 444.24 71.6005 436.64 71.3205 429.43C71.0105 421.25 68.1705 414.05 70.4105 407.53L95.6405 413.14C95.6405 413.14 94.1205 445.75 93.7805 449.69C93.5974 452.764 93.22 455.824 92.6505 458.85C91.5005 465.18 89.6505 480.24 89.6505 480.24C86.9905 481.79 83.4805 480.93 83.4805 480.93C83.4805 480.93 83.6805 461.93 83.8505 457.33C84.0605 451.76 84.2305 452.18 84.2305 452.18L83.3905 438.31L82.8505 431.41C82.8505 431.41 82.1505 436.47 81.6905 441C81.3005 444.94 80.3505 448.51 79.2805 455.85C78.3605 462.22 76.8605 475.02 76.8605 475.02C74.1905 476.57 70.5705 475.28 70.5705 475.28C70.5705 475.28 69.5805 458.57 70.3005 453.05Z" fill="#C90921"/>
<path d="M73.9998 368.73C75.9298 368.83 77.3598 369.32 77.5998 368.73C77.8002 367.739 77.9437 366.737 78.0298 365.73C77.8098 365.17 77.6198 364.57 77.6198 364.57C75.2098 363.09 74.4498 360.48 74.1298 357.44C73.5898 352.25 76.3898 347.71 81.5798 347.17C86.4598 346.66 90.0598 350.09 91.0098 354.8C91.5298 357.12 92.5598 361.52 91.1698 365.34C90.3898 367.48 89.3898 369.18 88.3898 369.51C87.4223 369.478 86.4574 369.392 85.4998 369.25C85.4998 369.25 85.2398 370.69 85.0598 371.61C84.8798 372.53 84.9498 373.03 86.7898 374.16C88.6298 375.29 83.9998 377.66 80.9998 377.43C77.9998 377.2 74.5798 375.38 73.6398 373.43C72.5698 371.24 72.6598 368.67 73.9998 368.73Z" fill="#FFCEA9"/>
<path d="M76.7601 369C76.2301 370.33 77.5801 372 81.1901 373.08C84.8001 374.16 85.1301 372.76 85.1301 372.76C87.5281 373.834 89.865 375.039 92.1301 376.37C94.3001 377.89 95.2601 382.27 95.5501 389.67C95.8901 398.23 95.9201 410.93 95.6301 413.12C95.6301 413.12 91.6301 417.12 86.4001 416.73C81.1701 416.34 72.5101 411.73 70.4001 408.18C70.4601 400.67 71.3401 399.45 70.1201 395.13C67.3401 385.23 65.8801 381.13 67.2301 374.6C68.3401 369.17 69.9001 368.5 72.0501 368.55C73.6271 368.614 75.1995 368.764 76.7601 369Z" fill="#F4F4F4"/>
<path d="M103.711 396.77C99.4509 397.84 98.4609 395.16 97.9009 392.94C96.5409 387.56 95.8209 382.71 94.8109 379.66C93.6209 376.06 92.3709 375.49 90.6309 374.79C88.6309 373.96 86.8109 375.7 87.4909 380.28C88.33 385.594 89.635 390.824 91.3909 395.91C91.9209 397.58 93.1009 400.55 94.8809 401.99C97.0709 403.76 100.381 403.69 105.381 402.45C107.511 401.91 109.851 400.64 113.881 398.76C114.961 398.26 115.801 397.92 117.881 396.95C119.969 396.018 121.799 394.59 123.211 392.79C124.301 391.21 124.441 390.47 124.211 390.11C123.981 389.75 123.441 389.76 122.861 390.43C122.019 391.549 120.983 392.508 119.801 393.26C119.801 393.26 121.141 391.87 121.871 390.97C122.523 390.17 123.065 389.285 123.481 388.34C123.861 387.42 123.071 386.17 122.481 386.83C121.891 387.49 121.591 388.15 120.481 389.47C119.892 390.175 119.221 390.806 118.481 391.35C119.164 390.428 119.769 389.452 120.291 388.43C120.762 387.632 120.994 386.716 120.961 385.79C120.961 385.31 120.251 384.74 119.611 385.65C118.993 386.9 118.228 388.072 117.331 389.14C116.331 390.14 115.531 390.72 115.511 390.44C115.491 390.16 116.091 389.61 116.441 388.44C116.791 387.27 116.441 386.02 115.791 385.89C115.141 385.76 115.271 385.79 114.791 386.89C114.074 388.018 113.43 389.191 112.861 390.4C112.526 391.526 111.926 392.555 111.111 393.4C110.061 394.52 107.751 395.75 103.711 396.77Z" fill="#FFCEA9"/>
<path d="M89.0494 374.05C91.8894 373.63 93.8994 374.91 95.1494 379.21C96.3994 383.51 97.2794 387 97.2794 387C96.1577 388.621 94.4582 389.752 92.5294 390.16C89.1294 390.99 87.9094 389.36 87.9094 389.36C87.9094 389.36 86.9694 384.86 86.3794 381.79C85.7894 378.72 85.5394 374.57 89.0494 374.05Z" fill="#EDEDED"/>
<path d="M90.8305 354.13C90.8305 354.13 95.3105 347.31 85.5905 345.92C78.5905 344.92 74.0805 349.42 73.5905 354.31C73.0905 358.98 75.9705 363.83 78.0405 365.75C80.081 366.269 82.2417 366.009 84.1005 365.02C84.2196 363.75 84.2663 362.475 84.2405 361.2C84.2405 361.2 80.7905 354 90.8305 354.13Z" fill="#3A2C6D"/>
<path opacity="0.4" d="M382.579 484.8C396.182 484.8 407.209 478.434 407.209 470.58C407.209 462.727 396.182 456.36 382.579 456.36C368.976 456.36 357.949 462.727 357.949 470.58C357.949 478.434 368.976 484.8 382.579 484.8Z" fill="#D6D8E5"/>
<path d="M382.37 333.37C383.37 331.74 391.17 330.66 393.73 337.25C394.73 339.75 394.55 346.14 395.36 350.15C396.17 354.16 398.08 356.44 398.77 359.69C399.46 362.94 398.34 368.4 390.49 369.37C382.64 370.34 376.61 367.58 374.76 365.08C372.91 362.58 372.87 357.26 374.76 354.4C376.65 351.54 378.15 349.23 378.1 345.51L382.37 333.37Z" fill="#3A2C6D"/>
<path d="M387.509 332.24C387.509 332.24 381.649 330.55 378.099 333.71C376.93 334.791 376.078 336.171 375.638 337.701C375.197 339.231 375.183 340.853 375.599 342.39C376.069 344.24 377.019 346.76 378.489 346.9C379.959 347.04 387.509 332.24 387.509 332.24Z" fill="#3A2C6D"/>
<path d="M389.75 348.21C389.75 348.21 389.36 354.73 389.48 355.21C389.6 355.69 392.04 356.21 392.73 356.73C393.42 357.25 389.18 363.92 387.03 364.9C384.88 365.88 378.21 363.37 377.74 360.06C377.32 357 379.65 354.63 380.55 353.8C381.161 353.742 381.776 353.725 382.39 353.75L382.59 350.59C385.51 349.66 389.75 348.21 389.75 348.21Z" fill="#FFCEA9"/>
<path d="M374 360.54C374 360.35 373 360.88 373 360.89C373 360.9 372.53 377.64 371.71 379.16C369.62 382.71 364.09 388.73 363.95 389.4C363.54 391.4 364.72 389.61 366.62 389.4C367.69 389.27 373.98 382.91 375.39 381.46L375.48 381.51V381.35L375.66 381.16C375.696 380.707 375.696 380.253 375.66 379.8C378.31 361.61 375.09 360.4 374 360.54Z" fill="#FFCEA9"/>
<path d="M390.639 355.85C392.479 356.13 394.569 357.11 394.859 358.11C395.617 361.728 395.438 365.48 394.339 369.01C392.749 373.21 391.679 375.88 390.759 377.69C390.759 377.69 382.829 381.09 376.429 377.12C376.429 377.12 375.989 372.62 375.959 370.21C370.059 365.06 375.109 358.71 380.109 353.78C380.708 353.725 381.311 353.725 381.909 353.78C381.909 353.78 377.449 359.06 380.549 362.06C387.199 360 388.519 357 390.639 355.85Z" fill="#F4F4F4"/>
<path d="M377.56 340.12C378.21 335.93 381.24 332.76 385.56 333.01C387.301 333.104 388.968 333.743 390.326 334.837C391.683 335.93 392.663 337.423 393.125 339.104C393.587 340.785 393.509 342.569 392.902 344.203C392.294 345.837 391.188 347.239 389.74 348.21C389.591 348.845 389.366 349.459 389.07 350.04C387.54 351.82 383.47 352.95 382.13 352.97C380.97 352.97 379.97 351.9 378.88 350.1C376.62 346.35 377.2 342.19 377.56 340.12Z" fill="#FFCEA9"/>
<path d="M386.909 333.09C389.909 333.68 392.429 334.54 393.259 337.51C393.819 339.57 394.559 343.51 393.859 345.12L393.419 346.31L389.749 348.21C389.749 348.21 388.029 346.78 388.569 342.59C388.548 342.025 388.368 341.477 388.049 341.01C387.82 340.613 387.648 340.186 387.539 339.74C387.103 338.608 386.252 337.685 385.159 337.16C382.429 335.63 378.429 336.95 377.869 337.51C378.642 335.85 379.962 334.505 381.607 333.701C383.252 332.896 385.124 332.681 386.909 333.09Z" fill="#3A2C6D"/>
<path d="M392.431 465.69C390.891 466.94 388.501 466.08 388.431 466.19C386.638 467.726 384.762 469.162 382.811 470.49C381.811 471.24 380.361 472.25 380.631 473.69C381.111 476.28 385.251 475.49 386.811 474.69C388.371 473.89 389.651 472.59 391.131 471.69C392.181 471.04 393.221 470.69 393.391 469.37C393.441 468.54 392.701 465.66 392.431 465.69Z" fill="#38226D"/>
<path d="M393.329 468.81C393.119 470.09 392.099 470.44 391.049 471.09C389.549 472.02 388.229 473.37 386.669 474.16C385.109 474.95 381.619 475.61 380.609 473.77C381.159 476.26 385.229 475.48 386.769 474.69C388.309 473.9 389.609 472.59 391.089 471.69C392.139 471.04 393.179 470.69 393.349 469.37C393.357 469.183 393.351 468.996 393.329 468.81Z" fill="#B80000"/>
<path d="M381.659 463.54C380.249 464.69 378.129 464.04 378.029 464.15C376.386 465.546 374.671 466.855 372.889 468.07C372.009 468.76 370.639 469.68 370.889 471C371.329 473.37 375.119 472.64 376.559 471.92C377.999 471.2 379.149 469.99 380.509 469.15C381.509 468.55 382.419 468.24 382.569 467.02C382.669 466.28 381.909 463.51 381.659 463.54Z" fill="#38226D"/>
<path d="M382.56 466.53C382.37 467.7 381.43 468.02 380.47 468.61C379.1 469.47 377.89 470.7 376.47 471.43C375.05 472.16 371.85 472.76 370.92 471.07C371.42 473.35 375.15 472.64 376.57 471.92C377.99 471.2 379.16 469.99 380.52 469.15C381.52 468.55 382.43 468.24 382.58 467.02C382.593 466.856 382.586 466.692 382.56 466.53Z" fill="#B80000"/>
<path d="M373.381 392.14C374.061 386.84 376.011 379.14 376.011 379.14C377.854 380.001 379.848 380.494 381.881 380.59C384.861 380.58 387.834 380.292 390.761 379.73C391.715 381.399 392.76 383.015 393.891 384.57C395.421 386.69 398.391 391.33 397.671 399.44C397.201 404.74 394.231 427.25 394.231 427.25C395.387 431.034 396.003 434.963 396.061 438.92C395.78 443.626 395.159 448.305 394.201 452.92L392.431 465.69C392.431 465.69 390.071 467.4 388.431 466.19L388.641 453.69C388.441 450.63 388.131 446.12 387.941 443.24C387.621 438.54 386.781 431.09 386.541 429.24C386.301 427.39 385.701 424.12 385.411 420.48C385.121 416.84 383.761 398.31 383.761 398.31L383.571 401.78C383.571 401.78 383.381 407.41 382.571 414.36C381.761 421.31 381.481 424.36 381.481 424.36C382.248 425.762 382.785 427.278 383.071 428.85C383.211 430.35 384.921 442.23 383.901 448.27L381.791 463.64C381.267 464.003 380.665 464.236 380.034 464.32C379.402 464.403 378.76 464.335 378.161 464.12L376.921 448.63C376.091 442.74 374.331 430.25 374.061 428.63C373.461 425.358 373.106 422.045 373.001 418.72C372.561 412 372.701 397.43 373.381 392.14Z" fill="#FFCEA9"/>
<path d="M390.76 377.69L395.32 386.84C395.32 386.84 402.32 397.02 395.07 423.19L396.42 431.27C396.42 431.27 382.78 440.02 373.65 431.27C373.65 431.27 370.49 407.08 372.17 395.93C373.11 389.522 374.531 383.195 376.42 377C376.42 377 378.66 379.47 390.16 377.84" fill="#2A2C2E"/>
<path d="M380.111 353.78C380.111 353.78 376.491 352.67 372.641 360.7L374.081 361.56C374.081 361.56 377.871 355.84 380.111 353.78Z" fill="#EDEDED"/>
<path d="M351.84 397.29L367.42 388.24L378.6 394.69L363.02 403.75L351.84 397.29Z" fill="#F4F4F4"/>
<path d="M365.409 388.9C364.432 388.998 363.487 389.305 362.639 389.8C362.328 390.072 361.993 390.316 361.639 390.53C361.489 390.6 361.339 390.7 361.179 390.77C360.941 390.857 360.726 390.997 360.549 391.18C360.375 391.437 360.281 391.74 360.279 392.05C360.199 392.421 360.179 392.802 360.219 393.18C360.359 393.74 360.939 393.69 361.219 393.3C361.371 393.105 361.459 392.867 361.469 392.62C361.478 392.384 361.542 392.153 361.656 391.946C361.771 391.739 361.933 391.562 362.129 391.43L365.849 389.12C365.806 389.044 365.741 388.982 365.663 388.943C365.584 388.904 365.496 388.889 365.409 388.9Z" fill="#FFCEA9"/>
<path d="M395.051 361C394.541 358.88 392.881 359.56 391.451 358.32C388.141 363.01 390.341 375.69 390.791 377.04L378.071 385.15L377.211 385.68C375.763 386.631 374.163 387.328 372.481 387.74C371.211 387.89 370.551 389.68 369.191 389.84C369.087 389.844 368.986 389.878 368.902 389.938C368.817 389.999 368.752 390.082 368.715 390.179C368.678 390.276 368.67 390.382 368.692 390.484C368.714 390.585 368.766 390.678 368.841 390.75C369.381 391.27 370.841 390.84 371.841 389.68C371.836 389.706 371.836 389.734 371.841 389.76C371.849 389.946 371.904 390.126 372.003 390.283C372.101 390.441 372.238 390.571 372.401 390.66C372.474 390.704 372.556 390.732 372.641 390.74C372.64 390.825 372.665 390.909 372.711 390.98C372.783 391.127 372.89 391.254 373.022 391.35C373.155 391.446 373.309 391.508 373.471 391.53C373.542 391.735 373.678 391.912 373.858 392.032C374.039 392.153 374.254 392.212 374.471 392.2C374.762 392.185 375.038 392.06 375.241 391.85C376.325 391.436 377.283 390.747 378.021 389.85C378.672 389.173 379.36 388.532 380.081 387.93C383.531 386.44 393.881 382.02 394.341 381.39C395.061 380.44 395.791 364 395.051 361Z" fill="#FFCEA9"/>
<path d="M396.21 366.69C396.21 366.69 392.14 368.51 388.76 366.81L389.25 360.44C389.25 360.44 389.3 357.02 392.35 356.68C395.4 356.34 397 360.25 396.21 366.69Z" fill="#EDEDED"/>
</svg>
