<svg width="46" height="34" viewBox="0 0 46 34" fill="none" xmlns="http://www.w3.org/2000/svg">
<path d="M43.012 0.62207H25.5546C24.188 0.62207 23.0764 1.73367 23.0764 3.1002V5.18277H3.52448C1.76956 5.18277 0.341797 6.61053 0.341797 8.36594V23.0611C0.341797 24.8155 1.76956 26.2428 3.52448 26.2428H6.58137V32.4054C6.58137 32.6895 6.74878 32.9464 7.0085 33.0616C7.10177 33.1028 7.20031 33.1229 7.29836 33.1229C7.47342 33.1229 7.64657 33.0588 7.78098 32.9363L15.1484 26.2428H27.9691C29.7235 26.2428 31.1513 24.8155 31.1513 23.0611V16.073H34.63L39.8326 20.7992C39.9675 20.9216 40.1402 20.9857 40.3153 20.9857C40.4133 20.9857 40.5123 20.9656 40.6056 20.9245C40.8653 20.8097 41.0327 20.5524 41.0327 20.2682V16.073H43.0115C44.3771 16.073 45.4882 14.9609 45.4882 13.5944V3.1002C45.4887 1.73367 44.378 0.62207 43.012 0.62207ZM29.7168 23.0606C29.7168 24.0239 28.9329 24.8074 27.9696 24.8074H14.8715C14.6931 24.8074 14.5213 24.8739 14.3889 24.994L8.01583 30.7839V25.5249C8.01583 25.1284 7.69488 24.8074 7.29836 24.8074H3.524C2.56021 24.8074 1.77625 24.0239 1.77625 23.0606V8.36546C1.77625 7.40166 2.56021 6.61723 3.524 6.61723H23.7867C23.7891 6.61723 23.7915 6.61771 23.7939 6.61771C23.7963 6.61771 23.7987 6.61723 23.8011 6.61723H27.9696C28.9334 6.61723 29.7168 7.40166 29.7168 8.36546V23.0606ZM44.0537 13.5944C44.0537 14.1698 43.5864 14.638 43.012 14.638H40.3157C39.9197 14.638 39.5983 14.959 39.5983 15.3555V18.6472L35.3901 14.8246C35.2581 14.705 35.0859 14.638 34.9075 14.638H31.1513V8.36594C31.1513 6.61101 29.7235 5.18277 27.9691 5.18277H24.5114V3.1002C24.5114 2.52479 24.9796 2.05701 25.5546 2.05701H43.012C43.5864 2.05701 44.0537 2.52479 44.0537 3.1002V13.5944Z" fill="#231F20"/>
</svg>
