<svg width="44" height="44" viewBox="0 0 44 44" fill="none" xmlns="http://www.w3.org/2000/svg">
<path d="M38.1187 0.324951H5.7169C2.81355 0.324951 0.451172 2.68733 0.451172 5.59068V27.8905C0.451172 30.7934 2.81307 33.1553 5.7169 33.1553H17.2289V42.071H8.30601C7.90948 42.071 7.58854 42.392 7.58854 42.7885C7.58854 43.185 7.90948 43.506 8.30601 43.506H17.9464H25.8887H35.5291C35.9256 43.506 36.2466 43.185 36.2466 42.7885C36.2466 42.392 35.9256 42.071 35.5291 42.071H26.6062V33.1553H38.1182C41.0206 33.1553 43.382 30.7934 43.382 27.8905V5.59068C43.3825 2.68733 41.0211 0.324951 38.1187 0.324951ZM5.7169 1.75989H38.1187C40.23 1.75989 41.9476 3.47846 41.9476 5.59068V22.499H1.88658V5.59068C1.88658 3.47798 3.60468 1.75989 5.7169 1.75989ZM25.1717 42.071H18.6643V33.1553H25.1717V42.071ZM38.1187 31.7204H25.8892H17.9469H5.71738C3.60516 31.7204 1.88658 30.0023 1.88658 27.8905V23.9344H41.9476V27.8905C41.9476 30.0023 40.23 31.7204 38.1187 31.7204Z" fill="#231F20"/>
</svg>
