<svg width="43" height="43" viewBox="0 0 43 43" fill="none" xmlns="http://www.w3.org/2000/svg">
<path d="M42.4138 25.8764L38.8759 23.486V16.3147L42.4138 13.9721C42.605 13.8286 42.7484 13.6374 42.7484 13.3983C42.7484 13.1593 42.605 12.9203 42.4138 12.8246L24.1986 0.585597C23.9596 0.442171 23.6249 0.442171 23.3859 0.585597L0.915759 15.5976C0.820141 15.6454 0.772332 15.6932 0.724524 15.7888C0.724524 15.7888 0.724524 15.7888 0.724524 15.8366C0.628906 15.98 0.628906 16.0756 0.628906 16.2191V29.3665C0.628906 29.6055 0.772332 29.8446 0.963567 29.9402L19.1787 42.0836C19.3221 42.1792 19.4177 42.227 19.5612 42.227C19.7046 42.227 19.848 42.1792 19.9436 42.0836L42.4616 27.0717C42.6528 26.9282 42.7962 26.737 42.7962 26.4979C42.7484 26.2111 42.605 25.9721 42.4138 25.8764ZM23.8162 2.06767L40.7405 13.3505L37.9675 15.1673C37.8241 15.2151 37.6807 15.3107 37.5851 15.4063L19.5134 27.4541L5.93568 18.4183C5.88787 18.3705 5.84006 18.3705 5.84006 18.3226L2.58907 16.1713L23.8162 2.06767ZM6.17472 20.3306L19.0831 28.9362C19.3221 29.0796 19.6568 29.0796 19.8958 28.9362L37.4417 17.223V23.1035L19.609 34.8645L6.17472 26.2589V20.3306ZM19.5134 40.6015L2.01536 28.9362V17.5577L4.78827 19.3744V26.6414C4.78827 26.8804 4.93169 27.1195 5.12293 27.2629L19.2743 36.3466C19.3699 36.4422 19.5134 36.4422 19.6568 36.4422C19.8002 36.4422 19.9436 36.3944 20.0393 36.3466L37.9197 24.5856L40.7405 26.4979L19.5134 40.6015Z" fill="black"/>
</svg>
