<svg width="48" height="48" viewBox="0 0 48 48" fill="none" xmlns="http://www.w3.org/2000/svg">
<path d="M41.9297 13.4324H34.2106V13.1546C34.2106 9.47758 31.2192 6.48657 27.5421 6.48657H20.1003C16.4232 6.48657 13.4322 9.47758 13.4322 13.1546V13.4324H5.71269C5.31821 13.4324 4.99805 13.7526 4.99805 14.147V40.4415C4.99805 40.836 5.31821 41.1562 5.71269 41.1562H41.9302C42.3247 41.1562 42.6448 40.836 42.6448 40.4415V14.147C42.6443 13.7526 42.3242 13.4324 41.9297 13.4324ZM14.8615 13.1546C14.8615 10.2661 17.2117 7.91585 20.1003 7.91585H27.5421C30.4307 7.91585 32.7814 10.2661 32.7814 13.1546V13.4324H14.8615V13.1546ZM41.2151 14.8617V23.3549H27.0461C26.6516 23.3549 26.3315 23.6751 26.3315 24.0696V26.7986C26.3315 28.3193 25.0942 29.5566 23.5735 29.5566C22.0527 29.5566 20.8149 28.3193 20.8149 26.7986V24.0696C20.8149 23.6751 20.4948 23.3549 20.1003 23.3549H6.42733V14.8617H41.2151ZM6.42733 39.7273V24.7847H19.3857V26.799C19.3857 29.1083 21.2642 30.9863 23.5735 30.9863C25.8827 30.9863 27.7608 29.1083 27.7608 26.799V24.7847H41.2151V39.7273H6.42733Z" fill="black"/>
</svg>
