<svg width="48" height="48" viewBox="0 0 48 48" fill="none" xmlns="http://www.w3.org/2000/svg">
<path d="M8.68164 33.6844C8.68164 36.0818 10.6321 38.0328 13.03 38.0328C15.4278 38.0328 17.3783 36.0818 17.3783 33.6844C17.3783 31.287 15.4278 29.3361 13.03 29.3361C10.6321 29.3361 8.68164 31.2866 8.68164 33.6844ZM15.9491 33.6844C15.9491 35.2938 14.6394 36.6035 13.03 36.6035C11.4206 36.6035 10.1109 35.2938 10.1109 33.6844C10.1109 32.075 11.4206 30.7653 13.03 30.7653C14.6394 30.7653 15.9491 32.075 15.9491 33.6844Z" fill="black"/>
<path d="M42.9837 17.4458C42.6893 17.1833 42.2381 17.2086 41.9747 17.503L31.5947 29.1292L26.2511 23.7856C25.972 23.5064 25.5198 23.5064 25.2406 23.7856C24.9615 24.0648 24.9615 24.5169 25.2406 24.7961L31.1193 30.6743C31.2536 30.8086 31.4351 30.8834 31.6248 30.8834C31.6314 30.8834 31.6381 30.8834 31.6448 30.883C31.8411 30.8772 32.0269 30.7915 32.1579 30.6447L43.0414 18.4544C43.3039 18.1605 43.2782 17.7083 42.9837 17.4458Z" fill="black"/>
<path d="M31.8707 32.6705C31.4758 32.6705 31.1561 32.9907 31.1561 33.3852V40.4968H5.85116V7.14693H31.1561V22.1196C31.1561 22.5141 31.4758 22.8342 31.8707 22.8342C32.2657 22.8342 32.5854 22.5141 32.5854 22.1196V6.43229C32.5854 6.03781 32.2657 5.71765 31.8707 5.71765H5.13652C4.74156 5.71765 4.42188 6.03781 4.42188 6.43229V41.2114C4.42188 41.6059 4.74156 41.9261 5.13652 41.9261H31.8707C32.2657 41.9261 32.5854 41.6059 32.5854 41.2114V33.3852C32.5854 32.9907 32.2657 32.6705 31.8707 32.6705Z" fill="black"/>
<path d="M23.5175 15.3534C23.9125 15.3534 24.2322 15.0332 24.2322 14.6387C24.2322 14.2442 23.9125 13.9241 23.5175 13.9241H9.15995C8.76499 13.9241 8.44531 14.2442 8.44531 14.6387C8.44531 15.0332 8.76499 15.3534 9.15995 15.3534H23.5175Z" fill="black"/>
<path d="M24.4081 20.9961C24.4081 20.6017 24.0884 20.2815 23.6934 20.2815H9.33964C8.94468 20.2815 8.625 20.6017 8.625 20.9961C8.625 21.3906 8.94468 21.7108 9.33964 21.7108H23.6934C24.0884 21.7108 24.4081 21.3906 24.4081 20.9961Z" fill="black"/>
</svg>
