<svg width="150" height="43" viewBox="0 0 150 43" fill="none" xmlns="http://www.w3.org/2000/svg">
<g clip-path="url(#clip0)">
<path d="M91.1453 9.63426C84.9542 9.6641 79.9118 14.7527 79.9402 21.0871C79.97 27.4199 85.0616 32.4623 91.2527 32.4324C97.4438 32.4026 102.488 27.314 102.459 20.9811C102.428 14.6468 97.3379 9.60442 91.1453 9.63426ZM91.2304 27.7884C90.3613 27.7933 89.4999 27.6267 88.6953 27.2983C87.8908 26.9699 87.1589 26.486 86.5415 25.8743C85.9242 25.2627 85.4336 24.5353 85.0977 23.7338C84.7618 22.9323 84.5874 22.0724 84.5842 21.2034C84.5793 20.3345 84.7458 19.4732 85.0741 18.6687C85.4025 17.8643 85.8862 17.1324 86.4977 16.5151C87.1092 15.8978 87.8364 15.4071 88.6378 15.0712C89.4391 14.7353 90.2988 14.5606 91.1677 14.5573C92.0366 14.5524 92.8979 14.7189 93.7024 15.0472C94.5069 15.3756 95.2387 15.8593 95.856 16.4708C96.4733 17.0823 96.964 17.8095 97.2999 18.6108C97.6359 19.4122 97.8105 20.2719 97.8138 21.1408C97.8317 24.663 94.7511 27.772 91.2304 27.7884ZM116.223 15.0049C112.986 15.0198 110.465 17.7066 110.479 20.9438L110.53 31.7805L105.604 31.8044L105.504 10.2698L110.43 10.2459L110.447 13.6234C110.447 13.6234 112.541 10.237 116.763 10.2176L118.17 10.2101L118.194 14.9944L116.223 15.0049ZM67.0821 10.4503L70.8116 25.212L74.683 10.416L79.609 10.3936L73.5163 31.9551L68.732 31.9774L64.8622 16.9368L61.1326 32.0117L56.3468 32.0341L49.9141 10.5309L54.6984 10.5085L58.9889 25.2672L62.438 10.4727L67.0821 10.4503ZM132.572 19.995C135.939 18.0094 138.317 14.338 138.296 10.1161L133.37 10.14C133.388 13.7995 130.445 16.7682 126.927 16.7846L126.223 16.7876L126.145 -0.241669L121.219 -0.217799L121.37 31.7298L126.294 31.7074L126.248 21.5749L126.811 21.5719C127.374 21.5689 127.938 21.8479 128.082 22.2701L135.02 31.6656L140.791 31.6388L132.572 19.995Z" fill="#4B4B4B"/>
<path d="M38.5094 9.88037C33.1627 9.90573 29.0974 13.4429 27.5757 19.079C25.0232 15.151 23.0316 10.6561 21.8889 6.8624L16.2602 6.88925L16.3303 21.8076C16.337 23.226 15.78 24.589 14.7818 25.5968C13.7836 26.6045 12.4259 27.1744 11.0075 27.1811C9.58903 27.1879 8.22602 26.6309 7.21827 25.6326C6.21053 24.6344 5.64061 23.2767 5.63388 21.8583L5.56377 6.93997L-0.0664062 6.96682L0.00370986 21.8851C0.0335465 28.0762 4.98046 32.9814 11.0328 32.9516C17.0852 32.9217 21.9888 27.9733 21.9605 21.7822L21.9486 19.2491C23.0838 21.4943 24.5026 23.8797 26.0615 25.9847L22.6199 42.4665L28.3888 42.4396L30.8682 30.4647C33.1254 31.8625 35.663 32.6935 38.6168 32.68C44.8094 32.6502 49.8533 27.5616 49.8219 21.087C49.7936 14.8929 44.702 9.85203 38.5094 9.88037ZM38.5899 26.9096C36.3388 26.9201 34.0831 25.9459 32.2467 24.4048L32.7987 22.1522V22.0105C33.2104 19.6146 34.4561 15.5284 38.678 15.5091C40.1699 15.5063 41.6023 16.094 42.6622 17.1439C43.7222 18.1938 44.3236 19.6205 44.335 21.1124C44.2082 24.3497 41.5468 26.8962 38.5899 26.9096Z" fill="#6FDA44"/>
<path d="M141.394 10.8054L139.845 10.8129L139.844 10.249L143.645 10.2311L143.646 10.795L142.098 10.8024L142.119 15.1645L141.556 15.1675L141.535 10.8039L141.394 10.8054ZM144.63 10.2266L145.192 10.2251L146.894 12.8925L148.569 10.2102L149.132 10.2072L149.156 14.993L148.593 14.996L148.574 11.0545L146.897 13.5966L145.195 11.0695L145.214 15.0109L144.652 15.0124L144.63 10.2266Z" fill="#4B4B4B"/>
</g>
<defs>
<clipPath id="clip0">
<rect width="149.183" height="42.465" fill="white"/>
</clipPath>
</defs>
</svg>
