<svg xmlns="http://www.w3.org/2000/svg" xmlns:xlink="http://www.w3.org/1999/xlink" viewBox="0 0 245.44 69.11"><defs><style>.cls-1{fill:#dc3832;}.cls-2{fill:#fff;}.cls-3{isolation:isolate;}.cls-4{fill:#f2f2f2;}.cls-5{clip-path:url(#clip-path);}.cls-10,.cls-6{fill:#5d5d5d;mix-blend-mode:multiply;}.cls-6{opacity:0.27;}.cls-7{clip-path:url(#clip-path-2);}.cls-8{clip-path:url(#clip-path-3);}.cls-9{fill:url(#Degradado_sin_nombre_24);}.cls-10{opacity:0.11;}.cls-11{fill:none;}</style><clipPath id="clip-path"><path id="_Clipping_Path_" data-name="&lt;Clipping Path&gt;" class="cls-1" d="M24.21,30.17C24.44,30.83,65.81,9,65.81,9l-.92-.93S57.44,1,34.17,8.58C34.17,8.58,21.74,23.26,24.21,30.17Z"/></clipPath><clipPath id="clip-path-2"><path id="_Clipping_Path_2" data-name="&lt;Clipping Path&gt;" class="cls-2" d="M54.24,7.94A8.49,8.49,0,0,1,61,7.37s1.92-1.09,6.7.85c0,0,1.74-1.46,4.85,2.38a8.49,8.49,0,0,1,1.55,6.6A4.29,4.29,0,0,1,71.56,22a10.2,10.2,0,0,1-7.72,3.63s-4.7,2.61-8.94,1.78c0,0-3.65,2.25-6.91,2.16A6.62,6.62,0,0,1,43.39,34S42.31,38.32,39,39.34c0,0-4,5.32-8,4.68,0,0-4.42-1.82-4.45-5.64,0,0-1.8-5.86.62-8.43,0,0,0-4.74,3.87-6.8,0,0-.9-3.09,3.62-6.07,0,0,1-2.64,5.51-4.08a9,9,0,0,1,6.05-2.35S49.77,5.69,54.24,7.94Z"/></clipPath><clipPath id="clip-path-3"><path id="_Clipping_Path_3" data-name="&lt;Clipping Path&gt;" class="cls-1" d="M63.08,7c.47.15.18-3.62-7.63-4.23S36.6-4.12,28.89,4.57c-2.75,3.1-12.55,14-8.27,25.31,5,13.15,5.62,23.83-7.31,23.42,0,0-2.95-.7-3.33.71s.28,4,7.91,4.25,20.57-8.09,18.57-20.91S26.73,22.5,31,14.4,52.57,3.73,63.08,7Z"/></clipPath><linearGradient id="Degradado_sin_nombre_24" x1="961.49" y1="-298.75" x2="945.85" y2="-317.43" gradientTransform="matrix(-0.9, 0.44, 0.44, 0.9, 1011.78, -107.3)" gradientUnits="userSpaceOnUse"><stop offset="0.01" stop-color="#9b1f18"/><stop offset="0.15" stop-color="#aa251e"/><stop offset="0.49" stop-color="#c52f29"/><stop offset="0.78" stop-color="#d63630"/><stop offset="1" stop-color="#dc3832"/></linearGradient></defs><title>logo-itea-black-newyear</title><g class="cls-3"><g id="Layer_2" data-name="Layer 2"><g id="OBJECTS"><path class="cls-4" d="M.49,58.53A2.32,2.32,0,0,1,1,55.83,2.3,2.3,0,0,1,.24,55,2.32,2.32,0,0,1,1,52.07a2.1,2.1,0,0,0,.9,1.73,2.13,2.13,0,0,0,.86,3.6,2.14,2.14,0,0,0,2.51,2.85A2.14,2.14,0,0,0,9,61.95c0,.05,0,.11.06.16a2.14,2.14,0,0,0,4-.28,2.12,2.12,0,0,0,1.76-.06,2.16,2.16,0,0,0,1.17-1.63,2.09,2.09,0,0,0,1.31-.28,2,2,0,0,0,1.14-2.2h0a2,2,0,0,0,1-2.73,1.51,1.51,0,0,0-.35-.44,2.11,2.11,0,0,0,.34-2.36l0-.06A2.16,2.16,0,0,0,19.79,51a2.3,2.3,0,0,1,.15,3L20,54a2.32,2.32,0,0,1-.36,2.58,2.1,2.1,0,0,1,.42.54A2.2,2.2,0,0,1,19,60.23h0a2.29,2.29,0,0,1-1.3,2.27,2.32,2.32,0,0,1-1.46.21A2.34,2.34,0,0,1,15,64.47a2.31,2.31,0,0,1-1.91.06,2.32,2.32,0,0,1-4.29.3c0-.06,0-.12-.07-.18a2.32,2.32,0,0,1-4.06-1.84,2.31,2.31,0,0,1-2.72-3.08A2.31,2.31,0,0,1,.49,58.53Z"/><path class="cls-2" d="M1.41,56.29a2.14,2.14,0,0,1,.45-2.49A2.1,2.1,0,0,1,1,52.07a2.15,2.15,0,0,1,.63-1.52,2.31,2.31,0,0,1,2.7-2.15,2.34,2.34,0,0,1,.23-1.49,2.3,2.3,0,0,1,1-1A2.32,2.32,0,0,1,8,46.15,2.3,2.3,0,0,1,12,46a2.3,2.3,0,0,1,3.86,1.46,2.34,2.34,0,0,1,2.27,1.26v0a2.3,2.3,0,0,1,.17,1.53,2.33,2.33,0,0,1,1.43.73,2.18,2.18,0,0,1-.41,1.06l0,.07a2.14,2.14,0,0,1-.34,2.38,1.3,1.3,0,0,1,.33.4,2,2,0,0,1-1,2.73h0a2,2,0,0,1-1.14,2.2,2.09,2.09,0,0,1-1.32.24,2.18,2.18,0,0,1-1.16,1.65,2.12,2.12,0,0,1-1.75.07,2.14,2.14,0,0,1-4,.29c0-.05,0-.11-.06-.16a2.14,2.14,0,0,1-3.75-1.7A2.14,2.14,0,0,1,2.72,57.4,2.13,2.13,0,0,1,1.41,56.29Z"/><path id="_Clipping_Path_4" data-name="&lt;Clipping Path&gt;" class="cls-1" d="M24.21,30.17C24.44,30.83,65.81,9,65.81,9l-.92-.93S57.44,1,34.17,8.58C34.17,8.58,21.74,23.26,24.21,30.17Z"/><g class="cls-5"><path class="cls-6" d="M62.59,7.86s-4-2-7.79-1.11C54.3,6.87,49.13,6.24,46,9c0,0-4.51,1.63-6.27,3.36,0,0-4,1.17-5.42,3.91,0,0-2.88,1-3.32,2.5,0,0-1.34-7.07,10.3-11.71L30.43,6.52,24.2,14.69l-1.35,8.49,4.66,5L37.59,23.3l11.18-9.92L62,9.87Z"/></g><path id="_Clipping_Path_5" data-name="&lt;Clipping Path&gt;" class="cls-2" d="M54.24,7.94A8.49,8.49,0,0,1,61,7.37s1.92-1.09,6.7.85c0,0,1.74-1.46,4.85,2.38a8.49,8.49,0,0,1,1.55,6.6A4.29,4.29,0,0,1,71.56,22a10.2,10.2,0,0,1-7.72,3.63s-4.7,2.61-8.94,1.78c0,0-3.65,2.25-6.91,2.16A6.62,6.62,0,0,1,43.39,34S42.31,38.32,39,39.34c0,0-4,5.32-8,4.68,0,0-4.42-1.82-4.45-5.64,0,0-1.8-5.86.62-8.43,0,0,0-4.74,3.87-6.8,0,0-.9-3.09,3.62-6.07,0,0,1-2.64,5.51-4.08a9,9,0,0,1,6.05-2.35S49.77,5.69,54.24,7.94Z"/><g class="cls-7"><path class="cls-6" d="M30.4,22.43c.15.21,9.56,12.7,7.23,22.54s-4.23-1.74-4.23-1.74l-3-20.8"/><path class="cls-6" d="M74.58,14c.09.29-.47,5.16-3.48,6.1,0,0-3.3,3.21-6.78,3.61,0,0-6.66,3.07-10.18,1.8,0,0-3.91,3.75-7.28,3,0,0-1.71,5.48-5.2,5.06,0,0-4.58,5.43-7.65,2.93s-2.34,6.66-2.34,6.66l3.21,6.64L52.31,41.2l9.55-10.09,11.07-4.22,5.82-7.83Z"/></g><path id="_Clipping_Path_6" data-name="&lt;Clipping Path&gt;" class="cls-1" d="M63.08,7c.47.15.18-3.62-7.63-4.23S36.6-4.12,28.89,4.57c-2.75,3.1-12.55,14-8.27,25.31,5,13.15,5.62,23.83-7.31,23.42,0,0-2.95-.7-3.33.71s.28,4,7.91,4.25,20.57-8.09,18.57-20.91S26.73,22.5,31,14.4,52.57,3.73,63.08,7Z"/><g class="cls-8"><path class="cls-9" d="M20.85,50.83c.27,0,4.95-2.72,5.51-10.24s-4.7-14.32-4.13-17.3S21.29,13.7,17.32,16,20.85,50.83,20.85,50.83Z"/></g><path class="cls-10" d="M69.08,13.61a2.32,2.32,0,0,0-.23-.45,3.4,3.4,0,0,0-.31-.41l-.18-.18-.2-.17c-.07-.06-.14-.1-.22-.15a2,2,0,0,0-.23-.13L67.47,12l-.25-.09L67,11.86a2.21,2.21,0,0,0-.27,0,1.52,1.52,0,0,0-.27,0h-.27a1.9,1.9,0,0,0-.26,0l-.26,0,.22,0-.23-.15-.23-.12a3.86,3.86,0,0,0-.47-.2,4.61,4.61,0,0,0-.49-.14l-.25,0-.25,0h-.51a3.38,3.38,0,0,0-.5.09l-.24.07-.23.1a3.3,3.3,0,0,0-.43.25l.24-.06.23-.05.23,0,.23,0h.46l.23,0,.23,0,.22,0,.22.06.43.16c.14.06.28.12.41.2l.2.11.18.12.09.07.13,0,.23,0a1.52,1.52,0,0,1,.23,0l.23,0a1.58,1.58,0,0,1,.23,0,1.79,1.79,0,0,1,.23,0l.23,0,.22.06.22.07a1.68,1.68,0,0,1,.21.09l.21.1.2.12.2.14a4.06,4.06,0,0,1,.37.31A3.76,3.76,0,0,1,69.08,13.61Z"/><path class="cls-10" d="M59.15,10.66a2.32,2.32,0,0,0-.39-.33,3.56,3.56,0,0,0-.43-.3l-.23-.14-.25-.08c-.08,0-.19,0-.27,0a2.13,2.13,0,0,0-.27,0,1.61,1.61,0,0,0-.27,0l-.27,0-.27.05-.27.06A2.08,2.08,0,0,0,56,10l-.24.12c-.08,0-.14.11-.22.15l-.22.15.22,0-.26,0-.26,0a3.86,3.86,0,0,0-.51,0,4.6,4.6,0,0,0-.51.07l-.25.06-.24.08-.24.09-.23.11a3.38,3.38,0,0,0-.42.28l-.19.16-.17.18a3.31,3.31,0,0,0-.29.4l.19-.15a1.51,1.51,0,0,1,.19-.14l.2-.13.21-.11.21-.1.21-.09.22-.07.22-.06.22,0,.23,0,.45,0,.45,0,.22,0,.21,0,.11,0,.11-.07.19-.13a1.52,1.52,0,0,1,.19-.12l.2-.11a1.58,1.58,0,0,1,.21-.09,1.79,1.79,0,0,1,.21-.08l.22-.06.23,0,.23,0h.46l.23,0,.23,0a4.07,4.07,0,0,1,.46.14A3.77,3.77,0,0,1,59.15,10.66Z"/><path class="cls-10" d="M50.11,24.88a2.32,2.32,0,0,0,.43.26,3.4,3.4,0,0,0,.48.18l.25.06.26,0h.53l.26,0,.26-.06.25-.09a2.21,2.21,0,0,0,.24-.11,1.52,1.52,0,0,0,.23-.13l.22-.15a1.89,1.89,0,0,0,.2-.17l.2-.18-.21.08H54l.26,0a3.86,3.86,0,0,0,.51-.08,4.6,4.6,0,0,0,.49-.14l.24-.1.23-.11a2.39,2.39,0,0,0,.22-.13l.21-.14a3.38,3.38,0,0,0,.37-.34l.16-.19.14-.2a3.31,3.31,0,0,0,.23-.44l-.17.18a1.51,1.51,0,0,1-.17.17l-.18.16-.19.14-.19.13-.2.12-.21.1-.21.09-.21.08-.22.07-.44.1-.45.05h-.56l-.09.09-.17.16a1.52,1.52,0,0,1-.17.15l-.18.14a1.59,1.59,0,0,1-.19.12,1.79,1.79,0,0,1-.2.11l-.21.09-.22.07L52,25l-.23,0-.23,0h-.47a4.07,4.07,0,0,1-.48-.07A3.77,3.77,0,0,1,50.11,24.88Z"/><path class="cls-10" d="M43.29,17.54a2.32,2.32,0,0,0-.47-.2,3.4,3.4,0,0,0-.5-.11l-.26,0H41.8l-.26,0a2,2,0,0,0-.26.05l-.26.07-.25.1-.24.12a2.22,2.22,0,0,0-.23.15,1.53,1.53,0,0,0-.21.17l-.2.18a1.89,1.89,0,0,0-.18.2l-.17.2.2-.11-.27,0-.25.05a3.86,3.86,0,0,0-.49.15,4.6,4.6,0,0,0-.46.21l-.22.13-.21.15a2.4,2.4,0,0,0-.2.16l-.19.17a3.38,3.38,0,0,0-.32.39c0,.07-.1.14-.13.21l-.11.22a3.31,3.31,0,0,0-.17.46l.14-.2a1.5,1.5,0,0,1,.14-.19l.15-.18.17-.17a1.58,1.58,0,0,1,.17-.16l.18-.15.19-.13a2.08,2.08,0,0,1,.2-.12l.2-.11.21-.1.43-.16.44-.12c.07,0,.14-.23.21-.24s.14-.22.2-.22h.12l.09.1.15-.08a1.11,1.11,0,0,1,.15-.13l.16-.14a1.49,1.49,0,0,1,.17-.13,1.73,1.73,0,0,1,.18-.13l.19-.12.2-.1.21-.09.22-.07.23-.06.23,0,.24,0h.48A3.76,3.76,0,0,1,43.29,17.54Z"/></g><g id="DESIGNED_BY_FREEPIK" data-name="DESIGNED BY FREEPIK"><path d="M193.87,16.18H74.28l-.17,1.36H89.38V67.75H39.16V39.25l-1.33,1V69.11H245.44V16.18ZM140.94,67.75H90.73V17.54h50.21Zm51.57,0H142.3V17.54h50.21Zm51.57,0H193.87V17.54h50.21Z"/><path class="cls-11" d="M142.3,67.75h50.21V17.54H142.3ZM160.9,34.53h13v3.69h-8.7V40.6h8.7V44h-8.7v2.49h8.7V50.2h-13Z"/><path class="cls-11" d="M39.16,38.28V67.75H89.38V17.54H73.54l.36,9.67ZM66.45,50.2H62.09V34.53h4.37Z"/><polygon class="cls-11" points="218.94 39.68 217.17 44.14 220.68 44.14 218.94 39.68"/><path class="cls-11" d="M90.73,67.75h50.21V17.54H90.73Zm17.91-33.22h13.75v3.81h-4.7V50.2h-4.34V38.34h-4.7Z"/><path class="cls-11" d="M193.87,67.75h50.21V17.54H193.87Zm23-33.22h4.19l6.67,15.78h-4.66l-1.14-2.8h-6l-1.12,2.8h-4.57Z"/><rect x="62.09" y="34.53" width="4.37" height="15.67"/><polygon points="113.35 50.2 117.69 50.2 117.69 38.34 122.39 38.34 122.39 34.53 108.65 34.53 108.65 38.34 113.35 38.34 113.35 50.2"/><polygon points="173.9 46.51 165.2 46.51 165.2 44.02 173.9 44.02 173.9 40.6 165.2 40.6 165.2 38.23 173.9 38.23 173.9 34.53 160.91 34.53 160.91 50.2 173.9 50.2 173.9 46.51"/><path d="M215.89,47.52h6l1.14,2.8h4.66l-6.67-15.78h-4.19l-6.67,15.78h4.57Zm3-7.84,1.75,4.46h-3.52Z"/></g></g></g></svg>